M48
; DRILL file {KiCad 6.0.4+dfsg-1+b1} date Sat 07 May 2022 15:33:53
; FORMAT={-:-/ absolute / inch / decimal}
; #@! TF.CreationDate,2022-05-07T15:33:53+10:00
; #@! TF.GenerationSoftware,Kicad,Pcbnew,6.0.4+dfsg-1+b1
; #@! TF.FileFunction,MixedPlating,1,4
FMAT,2
INCH
; #@! TA.AperFunction,Plated,PTH,ViaDrill
T1C0.0157
; #@! TA.AperFunction,Plated,PTH,ComponentDrill
T2C0.0197
; #@! TA.AperFunction,Plated,PTH,ComponentDrill
T3C0.0236
; #@! TA.AperFunction,Plated,PTH,ComponentDrill
T4C0.0295
; #@! TA.AperFunction,Plated,PTH,ComponentDrill
T5C0.0315
; #@! TA.AperFunction,Plated,PTH,ComponentDrill
T6C0.0394
; #@! TA.AperFunction,Plated,PTH,ComponentDrill
T7C0.0630
; #@! TA.AperFunction,Plated,PTH,ComponentDrill
T8C0.1260
%
G90
G05
T1
X2.78Y-2.04
X2.95Y-3.18
X3.0Y-3.46
X3.0691Y-4.2494
X3.0885Y-4.3535
X3.2202Y-4.3452
X3.2655Y-4.84
X3.2778Y-4.3128
X3.3Y-4.81
X3.36Y-2.08
X3.56Y-2.02
X3.6502Y-4.2098
X3.71Y-4.19
X3.75Y-5.0
X3.7777Y-4.1824
X3.8Y-5.0
X3.8347Y-4.1685
X3.8773Y-4.1727
X3.96Y-1.92
X3.97Y-1.83
X3.99Y-4.29
X4.05Y-1.87
X4.06Y-4.1048
X4.0761Y-4.44
X4.0792Y-4.54
X4.09Y-4.1358
X4.1243Y-4.1643
X4.1522Y-4.1922
X4.18Y-4.22
X4.2078Y-4.2478
X4.24Y-4.28
X4.2678Y-4.3078
X4.2957Y-4.3357
X4.32Y-2.11
X4.3235Y-4.3635
X4.3428Y-3.2428
X4.3513Y-4.3913
X4.93Y-4.25
X4.95Y-3.175
X4.95Y-3.375
X4.95Y-3.575
X5.0815Y-2.045
X5.1Y-2.31
X5.11Y-2.24
X5.12Y-2.41
X5.13Y-4.26
X5.14Y-2.0
X5.155Y-2.92
X5.1678Y-2.0278
X5.1798Y-1.6448
X5.19Y-4.29
X5.35Y-2.04
X5.396Y-2.8815
X5.54Y-2.91
X5.56Y-2.6
X5.5652Y-3.2984
X5.5779Y-3.8653
X5.6Y-3.28
X5.6Y-3.41
X5.6159Y-3.8827
X5.6509Y-3.9007
X5.6915Y-3.9007
X5.7Y-3.28
X5.7485Y-3.75
X6.55Y-3.29
X6.56Y-3.25
X6.6515Y-3.5416
X6.68Y-3.22
X6.7085Y-3.2861
X6.775Y-2.425
X6.775Y-2.5
X6.78Y-3.3085
X6.82Y-3.3515
X6.88Y-3.26
X7.02Y-5.0
X7.0285Y-3.5416
X7.3Y-3.86
X7.3158Y-3.0378
X7.38Y-3.04
X7.62Y-3.24
X7.675Y-2.525
X7.72Y-3.94
X8.04Y-2.04
X8.3023Y-2.3073
X8.425Y-2.3
X8.63Y-1.87
X8.68Y-2.68
X8.78Y-4.3652
X8.88Y-4.3402
X8.98Y-4.3152
X8.98Y-4.92
X9.02Y-1.64
X9.2602Y-5.0102
T2
X2.8005Y-1.775
X2.8005Y-5.295
X2.8282Y-1.7082
X2.8282Y-1.8418
X2.8282Y-5.2282
X2.8282Y-5.3618
X2.895Y-1.6805
X2.895Y-1.8695
X2.895Y-5.2005
X2.895Y-5.3895
X2.9618Y-1.7082
X2.9618Y-1.8418
X2.9618Y-5.2282
X2.9618Y-5.3618
X2.9895Y-1.775
X2.9895Y-5.295
X9.0705Y-1.78
X9.0755Y-5.3
X9.0982Y-1.7132
X9.0982Y-1.8468
X9.1032Y-5.2332
X9.1032Y-5.3668
X9.165Y-1.6855
X9.165Y-1.8745
X9.17Y-5.2055
X9.17Y-5.3945
X9.2318Y-1.7132
X9.2318Y-1.8468
X9.2368Y-5.2332
X9.2368Y-5.3668
X9.2595Y-1.78
X9.2645Y-5.3
T3
X5.145Y-4.955
X5.2041Y-4.955
T4
X5.245Y-1.755
X5.295Y-1.755
X5.345Y-1.755
T5
X2.905Y-2.25
X2.905Y-2.55
X3.08Y-3.65
X3.08Y-3.95
X3.0948Y-2.9796
X3.0948Y-3.2796
X3.18Y-3.65
X3.18Y-3.95
X3.1948Y-2.9796
X3.1948Y-3.2796
X3.205Y-2.25
X3.205Y-2.55
X3.28Y-3.65
X3.28Y-3.95
X3.2948Y-2.9796
X3.2948Y-3.2796
X3.38Y-3.65
X3.38Y-3.95
X3.3948Y-2.9796
X3.3948Y-3.2796
X3.48Y-3.65
X3.48Y-3.95
X3.4948Y-2.9796
X3.4948Y-3.2796
X3.53Y-2.245
X3.53Y-2.545
X3.58Y-3.65
X3.58Y-3.95
X3.5948Y-2.9796
X3.5948Y-3.2796
X3.68Y-3.65
X3.68Y-3.95
X3.6948Y-2.9796
X3.6948Y-3.2796
X3.78Y-3.65
X3.78Y-3.95
X3.7948Y-2.9796
X3.7948Y-3.2796
X3.83Y-2.245
X3.83Y-2.545
X3.8948Y-2.9796
X3.8948Y-3.2796
X3.9948Y-2.9796
X3.9948Y-3.2796
X4.0948Y-2.9796
X4.0948Y-3.2796
X4.1498Y-2.2446
X4.1498Y-2.5446
X4.1948Y-2.9796
X4.1948Y-3.2796
X4.2498Y-2.2446
X4.2498Y-2.5446
X4.3498Y-2.2446
X4.3498Y-2.5446
X4.4498Y-2.2446
X4.4498Y-2.5446
X4.5498Y-2.2446
X4.5498Y-2.5446
X4.6498Y-2.2446
X4.6498Y-2.5446
X4.7498Y-2.2446
X4.7498Y-2.5446
X4.9634Y-1.77
X5.0619Y-1.77
X5.1Y-3.075
X5.1Y-3.675
X5.105Y-4.1152
X5.105Y-4.7152
X5.2Y-3.075
X5.2Y-3.675
X5.205Y-4.1152
X5.205Y-4.7152
X5.3Y-3.075
X5.3Y-3.675
X5.305Y-4.1152
X5.305Y-4.7152
X5.4Y-3.075
X5.4Y-3.675
X5.405Y-4.1152
X5.405Y-4.7152
X5.5Y-3.075
X5.5Y-3.675
X5.505Y-4.1152
X5.505Y-4.7152
X5.6Y-3.075
X5.6Y-3.675
X5.605Y-4.1152
X5.605Y-4.7152
X5.65Y-2.0
X5.65Y-2.3
X5.655Y-2.5398
X5.655Y-2.8398
X5.7Y-3.075
X5.7Y-3.675
X5.705Y-4.1152
X5.705Y-4.7152
X5.75Y-2.0
X5.75Y-2.3
X5.755Y-2.5398
X5.755Y-2.8398
X5.8Y-3.075
X5.8Y-3.675
X5.805Y-4.1152
X5.805Y-4.7152
X5.85Y-2.0
X5.85Y-2.3
X5.855Y-2.5398
X5.855Y-2.8398
X5.9Y-3.075
X5.9Y-3.675
X5.905Y-4.1152
X5.905Y-4.7152
X5.95Y-2.0
X5.95Y-2.3
X5.955Y-2.5398
X5.955Y-2.8398
X6.0Y-3.075
X6.0Y-3.675
X6.005Y-4.1152
X6.005Y-4.7152
X6.05Y-2.0
X6.05Y-2.3
X6.055Y-2.5398
X6.055Y-2.8398
X6.1Y-3.075
X6.1Y-3.675
X6.105Y-4.1152
X6.105Y-4.7152
X6.15Y-2.0
X6.15Y-2.3
X6.155Y-2.5398
X6.155Y-2.8398
X6.2Y-3.075
X6.2Y-3.675
X6.205Y-4.1152
X6.205Y-4.7152
X6.25Y-2.0
X6.25Y-2.3
X6.255Y-2.5398
X6.255Y-2.8398
X6.3Y-3.075
X6.3Y-3.675
X6.305Y-4.1152
X6.305Y-4.7152
X6.35Y-2.0
X6.35Y-2.3
X6.355Y-2.5398
X6.355Y-2.8398
X6.4Y-3.075
X6.4Y-3.675
X6.405Y-4.1152
X6.405Y-4.7152
X6.45Y-2.0
X6.45Y-2.3
X6.455Y-2.5398
X6.455Y-2.8398
X6.5Y-3.075
X6.5Y-3.675
X6.505Y-4.1152
X6.505Y-4.7152
X6.55Y-2.0
X6.55Y-2.3
X6.555Y-2.5398
X6.555Y-2.8398
X6.6Y-3.075
X6.6Y-3.675
X6.605Y-4.1152
X6.605Y-4.7152
X6.7Y-3.075
X6.7Y-3.675
X6.705Y-4.1152
X6.705Y-4.7152
X6.8Y-3.075
X6.8Y-3.675
X6.805Y-4.1152
X6.805Y-4.7152
X6.9Y-3.075
X6.9Y-3.675
X6.905Y-4.1152
X6.905Y-4.7152
X7.0Y-3.075
X7.0Y-3.675
X7.005Y-4.1152
X7.005Y-4.7152
X7.63Y-3.1654
X7.63Y-3.7654
X7.63Y-4.1402
X7.63Y-4.7402
X7.73Y-3.1654
X7.73Y-3.7654
X7.73Y-4.1402
X7.73Y-4.7402
X7.83Y-2.1904
X7.83Y-2.7904
X7.83Y-3.1654
X7.83Y-3.7654
X7.83Y-4.1402
X7.83Y-4.7402
X7.93Y-2.1904
X7.93Y-2.7904
X7.93Y-3.1654
X7.93Y-3.7654
X7.93Y-4.1402
X7.93Y-4.7402
X8.03Y-2.1904
X8.03Y-2.7904
X8.03Y-3.1654
X8.03Y-3.7654
X8.03Y-4.1402
X8.03Y-4.7402
X8.13Y-2.1904
X8.13Y-2.7904
X8.13Y-3.1654
X8.13Y-3.7654
X8.13Y-4.1402
X8.13Y-4.7402
X8.23Y-2.1904
X8.23Y-2.7904
X8.23Y-3.1654
X8.23Y-3.7654
X8.23Y-4.1402
X8.23Y-4.7402
X8.33Y-2.1904
X8.33Y-2.7904
X8.33Y-3.1654
X8.33Y-3.7654
X8.33Y-4.1402
X8.33Y-4.7402
X8.43Y-2.1904
X8.43Y-2.7904
X8.43Y-3.1654
X8.43Y-3.7654
X8.43Y-4.1402
X8.43Y-4.7402
X8.53Y-2.1904
X8.53Y-2.7904
X8.53Y-3.1654
X8.53Y-3.7654
X8.53Y-4.1402
X8.53Y-4.7402
X8.63Y-2.1904
X8.63Y-2.7904
X8.63Y-3.1654
X8.63Y-3.7654
X8.63Y-4.1402
X8.63Y-4.7402
X8.73Y-2.1904
X8.73Y-2.7904
X8.73Y-3.1654
X8.73Y-3.7654
X8.73Y-4.1402
X8.73Y-4.7402
X8.83Y-2.1904
X8.83Y-2.7904
X8.83Y-3.1654
X8.83Y-3.7654
X8.83Y-4.1402
X8.83Y-4.7402
X8.93Y-2.1904
X8.93Y-2.7904
X8.93Y-3.1654
X8.93Y-3.7654
X8.93Y-4.1402
X8.93Y-4.7402
X9.03Y-2.1904
X9.03Y-2.7904
X9.03Y-3.1654
X9.03Y-3.7654
X9.03Y-4.1402
X9.03Y-4.7402
X9.13Y-2.1904
X9.13Y-2.7904
X9.13Y-3.1654
X9.13Y-3.7654
X9.13Y-4.1402
X9.13Y-4.7402
T6
X2.8752Y-4.3
X2.8752Y-4.4
X2.8752Y-4.5
X2.8752Y-4.6
X2.8752Y-4.7
X2.8752Y-4.8
X2.88Y-2.83
X2.9752Y-4.3
X2.9752Y-4.4
X2.9752Y-4.5
X2.9752Y-4.6
X2.9752Y-4.7
X2.9752Y-4.8
X2.98Y-2.83
X3.08Y-2.83
X3.165Y-5.1302
X3.165Y-5.2302
X3.165Y-5.3302
X3.18Y-2.83
X3.1806Y-3.51
X3.2806Y-3.51
X3.33Y-1.81
X3.37Y-2.84
X3.3806Y-3.51
X3.4284Y-1.81
X3.47Y-2.84
X3.4806Y-3.51
X3.5Y-5.23
X3.5Y-5.33
X3.57Y-2.84
X3.5806Y-3.51
X3.6Y-5.23
X3.6Y-5.33
X3.67Y-2.84
X3.6806Y-3.51
X3.7Y-5.23
X3.7Y-5.33
X3.7198Y-1.75
X3.77Y-2.84
X3.7806Y-3.51
X3.8Y-5.23
X3.8Y-5.33
X3.8198Y-1.75
X3.87Y-2.84
X3.8806Y-3.51
X3.9Y-5.23
X3.9Y-5.33
X4.0Y-5.23
X4.0Y-5.33
X4.1148Y-1.75
X4.2Y-2.84
X4.205Y-3.537
X4.205Y-3.637
X4.2148Y-1.75
X4.3Y-2.84
X4.3898Y-4.96
X4.4581Y-4.405
X4.4898Y-4.96
X4.525Y-1.75
X4.5898Y-4.96
X4.615Y-3.175
X4.615Y-3.275
X4.615Y-3.375
X4.615Y-3.475
X4.615Y-3.575
X4.615Y-3.675
X4.625Y-1.75
X4.655Y-4.405
X4.6898Y-4.96
X4.725Y-1.75
X4.7898Y-4.96
X4.85Y-4.705
X4.8898Y-4.96
X4.95Y-4.705
X4.9898Y-4.96
X5.205Y-5.215
X5.205Y-5.315
X5.305Y-5.215
X5.305Y-5.315
X5.32Y-2.23
X5.32Y-2.33
X5.32Y-2.43
X5.32Y-2.53
X5.32Y-2.63
X5.32Y-2.73
X5.405Y-5.215
X5.405Y-5.315
X5.6075Y-5.2129
X5.6075Y-5.3129
X5.7075Y-5.2129
X5.7075Y-5.3129
X5.7504Y-1.75
X5.8075Y-5.2129
X5.8075Y-5.3129
X5.8504Y-1.75
X5.9075Y-5.2129
X5.9075Y-5.3129
X5.9504Y-1.75
X6.0075Y-5.2129
X6.0075Y-5.3129
X6.0504Y-1.75
X6.1075Y-5.2129
X6.1075Y-5.3129
X6.3875Y-5.2129
X6.3875Y-5.3129
X6.4875Y-5.2129
X6.4875Y-5.3129
X6.5875Y-5.2129
X6.5875Y-5.3129
X6.6875Y-5.2129
X6.6875Y-5.3129
X6.7875Y-5.2129
X6.7875Y-5.3129
X6.872Y-1.7114
X6.872Y-1.8886
X6.8875Y-5.2129
X6.8875Y-5.3129
X7.128Y-1.7114
X7.128Y-1.8886
X7.25Y-4.99
X7.25Y-5.26
X7.2752Y-4.69
X7.35Y-4.99
X7.35Y-5.26
X7.3752Y-4.69
X7.45Y-4.99
X7.45Y-5.26
X7.55Y-4.99
X7.55Y-5.26
X7.65Y-4.99
X7.65Y-5.26
X7.75Y-4.99
X7.75Y-5.26
X7.85Y-4.99
X7.85Y-5.26
X7.95Y-4.99
X7.95Y-5.26
X8.24Y-5.26
X8.34Y-5.26
X8.44Y-5.26
X8.54Y-5.26
X8.64Y-5.26
X8.74Y-5.26
X8.84Y-5.26
X8.94Y-5.26
T7
X4.26Y-3.9
X4.45Y-3.9
X4.485Y-1.99
X4.65Y-3.91
X4.7Y-2.85
X4.87Y-1.99
X4.9Y-2.85
X7.175Y-3.125
X7.21Y-4.115
X7.415Y-4.11
T8
X2.895Y-1.775
X2.895Y-5.295
X9.165Y-1.78
X9.17Y-5.3
T0
M30
