%TF.GenerationSoftware,KiCad,Pcbnew,6.0.4+dfsg-1+b1*%
%TF.CreationDate,2022-05-07T15:32:52+10:00*%
%TF.ProjectId,65816-computer,36353831-362d-4636-9f6d-70757465722e,rev?*%
%TF.SameCoordinates,Original*%
%TF.FileFunction,Soldermask,Top*%
%TF.FilePolarity,Negative*%
%FSLAX46Y46*%
G04 Gerber Fmt 4.6, Leading zero omitted, Abs format (unit mm)*
G04 Created by KiCad (PCBNEW 6.0.4+dfsg-1+b1) date 2022-05-07 15:32:52*
%MOMM*%
%LPD*%
G01*
G04 APERTURE LIST*
G04 Aperture macros list*
%AMRoundRect*
0 Rectangle with rounded corners*
0 $1 Rounding radius*
0 $2 $3 $4 $5 $6 $7 $8 $9 X,Y pos of 4 corners*
0 Add a 4 corners polygon primitive as box body*
4,1,4,$2,$3,$4,$5,$6,$7,$8,$9,$2,$3,0*
0 Add four circle primitives for the rounded corners*
1,1,$1+$1,$2,$3*
1,1,$1+$1,$4,$5*
1,1,$1+$1,$6,$7*
1,1,$1+$1,$8,$9*
0 Add four rect primitives between the rounded corners*
20,1,$1+$1,$2,$3,$4,$5,0*
20,1,$1+$1,$4,$5,$6,$7,0*
20,1,$1+$1,$6,$7,$8,$9,0*
20,1,$1+$1,$8,$9,$2,$3,0*%
%AMFreePoly0*
4,1,22,0.500000,-0.750000,0.000000,-0.750000,0.000000,-0.745033,-0.079941,-0.743568,-0.215256,-0.701293,-0.333266,-0.622738,-0.424486,-0.514219,-0.481581,-0.384460,-0.499164,-0.250000,-0.500000,-0.250000,-0.500000,0.250000,-0.499164,0.250000,-0.499963,0.256109,-0.478152,0.396186,-0.417904,0.524511,-0.324060,0.630769,-0.204165,0.706417,-0.067858,0.745374,0.000000,0.744959,0.000000,0.750000,
0.500000,0.750000,0.500000,-0.750000,0.500000,-0.750000,$1*%
%AMFreePoly1*
4,1,20,0.000000,0.744959,0.073905,0.744508,0.209726,0.703889,0.328688,0.626782,0.421226,0.519385,0.479903,0.390333,0.500000,0.250000,0.500000,-0.250000,0.499851,-0.262216,0.476331,-0.402017,0.414519,-0.529596,0.319384,-0.634700,0.198574,-0.708877,0.061801,-0.746166,0.000000,-0.745033,0.000000,-0.750000,-0.500000,-0.750000,-0.500000,0.750000,0.000000,0.750000,0.000000,0.744959,
0.000000,0.744959,$1*%
G04 Aperture macros list end*
%ADD10R,1.600000X1.600000*%
%ADD11C,1.600000*%
%ADD12C,1.500000*%
%ADD13R,1.700000X1.700000*%
%ADD14O,1.700000X1.700000*%
%ADD15O,1.600000X1.600000*%
%ADD16RoundRect,0.237500X-0.237500X0.300000X-0.237500X-0.300000X0.237500X-0.300000X0.237500X0.300000X0*%
%ADD17C,0.800000*%
%ADD18C,6.400000*%
%ADD19RoundRect,0.075000X0.662500X0.075000X-0.662500X0.075000X-0.662500X-0.075000X0.662500X-0.075000X0*%
%ADD20RoundRect,0.075000X0.075000X0.662500X-0.075000X0.662500X-0.075000X-0.662500X0.075000X-0.662500X0*%
%ADD21C,2.800000*%
%ADD22RoundRect,0.237500X0.287500X0.237500X-0.287500X0.237500X-0.287500X-0.237500X0.287500X-0.237500X0*%
%ADD23RoundRect,0.237500X0.237500X-0.250000X0.237500X0.250000X-0.237500X0.250000X-0.237500X-0.250000X0*%
%ADD24RoundRect,0.237500X-0.237500X0.250000X-0.237500X-0.250000X0.237500X-0.250000X0.237500X0.250000X0*%
%ADD25R,2.000000X2.000000*%
%ADD26C,2.000000*%
%ADD27RoundRect,0.150000X0.587500X-0.150000X0.587500X0.150000X-0.587500X0.150000X-0.587500X-0.150000X0*%
%ADD28RoundRect,0.150000X0.150000X-0.587500X0.150000X0.587500X-0.150000X0.587500X-0.150000X-0.587500X0*%
%ADD29RoundRect,0.237500X0.300000X0.237500X-0.300000X0.237500X-0.300000X-0.237500X0.300000X-0.237500X0*%
%ADD30RoundRect,0.237500X-0.250000X-0.237500X0.250000X-0.237500X0.250000X0.237500X-0.250000X0.237500X0*%
%ADD31RoundRect,0.237500X-0.300000X-0.237500X0.300000X-0.237500X0.300000X0.237500X-0.300000X0.237500X0*%
%ADD32C,1.700000*%
%ADD33FreePoly0,270.000000*%
%ADD34FreePoly1,270.000000*%
%ADD35RoundRect,0.250000X-0.600000X-0.750000X0.600000X-0.750000X0.600000X0.750000X-0.600000X0.750000X0*%
%ADD36O,1.700000X2.000000*%
%ADD37RoundRect,0.237500X0.237500X-0.300000X0.237500X0.300000X-0.237500X0.300000X-0.237500X-0.300000X0*%
%ADD38R,1.200000X1.200000*%
%ADD39C,1.200000*%
%ADD40RoundRect,0.237500X0.250000X0.237500X-0.250000X0.237500X-0.250000X-0.237500X0.250000X-0.237500X0*%
%ADD41R,1.560000X0.650000*%
%ADD42R,1.800000X2.000000*%
%ADD43R,1.120000X2.440000*%
%ADD44R,1.050000X1.500000*%
%ADD45O,1.050000X1.500000*%
G04 APERTURE END LIST*
D10*
%TO.C,X1*%
X89662000Y-64643000D03*
D11*
X97282000Y-64643000D03*
X97282000Y-57023000D03*
X89662000Y-57023000D03*
%TD*%
D12*
%TO.C,TP3*%
X87122000Y-126238000D03*
%TD*%
D13*
%TO.C,J19*%
X132207000Y-135001000D03*
D14*
X132207000Y-132461000D03*
X134747000Y-135001000D03*
X134747000Y-132461000D03*
X137287000Y-135001000D03*
X137287000Y-132461000D03*
%TD*%
D10*
%TO.C,U11*%
X78232000Y-100330000D03*
D15*
X80772000Y-100330000D03*
X83312000Y-100330000D03*
X85852000Y-100330000D03*
X88392000Y-100330000D03*
X90932000Y-100330000D03*
X93472000Y-100330000D03*
X96012000Y-100330000D03*
X96012000Y-92710000D03*
X93472000Y-92710000D03*
X90932000Y-92710000D03*
X88392000Y-92710000D03*
X85852000Y-92710000D03*
X83312000Y-92710000D03*
X80772000Y-92710000D03*
X78232000Y-92710000D03*
%TD*%
D16*
%TO.C,C13*%
X147320000Y-96292500D03*
X147320000Y-98017500D03*
%TD*%
D10*
%TO.C,U9*%
X198882000Y-70876000D03*
D15*
X201422000Y-70876000D03*
X203962000Y-70876000D03*
X206502000Y-70876000D03*
X209042000Y-70876000D03*
X211582000Y-70876000D03*
X214122000Y-70876000D03*
X216662000Y-70876000D03*
X219202000Y-70876000D03*
X221742000Y-70876000D03*
X224282000Y-70876000D03*
X226822000Y-70876000D03*
X229362000Y-70876000D03*
X231902000Y-70876000D03*
X231902000Y-55636000D03*
X229362000Y-55636000D03*
X226822000Y-55636000D03*
X224282000Y-55636000D03*
X221742000Y-55636000D03*
X219202000Y-55636000D03*
X216662000Y-55636000D03*
X214122000Y-55636000D03*
X211582000Y-55636000D03*
X209042000Y-55636000D03*
X206502000Y-55636000D03*
X203962000Y-55636000D03*
X201422000Y-55636000D03*
X198882000Y-55636000D03*
%TD*%
D17*
%TO.C,H1*%
X75230056Y-43387944D03*
X73533000Y-42685000D03*
X75230056Y-46782056D03*
X73533000Y-47485000D03*
X71835944Y-46782056D03*
D18*
X73533000Y-45085000D03*
D17*
X71835944Y-43387944D03*
X75933000Y-45085000D03*
X71133000Y-45085000D03*
%TD*%
D19*
%TO.C,U12*%
X98142500Y-117558000D03*
X98142500Y-117058000D03*
X98142500Y-116558000D03*
X98142500Y-116058000D03*
X98142500Y-115558000D03*
X98142500Y-115058000D03*
X98142500Y-114558000D03*
X98142500Y-114058000D03*
X98142500Y-113558000D03*
X98142500Y-113058000D03*
X98142500Y-112558000D03*
X98142500Y-112058000D03*
D20*
X96730000Y-110645500D03*
X96230000Y-110645500D03*
X95730000Y-110645500D03*
X95230000Y-110645500D03*
X94730000Y-110645500D03*
X94230000Y-110645500D03*
X93730000Y-110645500D03*
X93230000Y-110645500D03*
X92730000Y-110645500D03*
X92230000Y-110645500D03*
X91730000Y-110645500D03*
X91230000Y-110645500D03*
D19*
X89817500Y-112058000D03*
X89817500Y-112558000D03*
X89817500Y-113058000D03*
X89817500Y-113558000D03*
X89817500Y-114058000D03*
X89817500Y-114558000D03*
X89817500Y-115058000D03*
X89817500Y-115558000D03*
X89817500Y-116058000D03*
X89817500Y-116558000D03*
X89817500Y-117058000D03*
X89817500Y-117558000D03*
D20*
X91230000Y-118970500D03*
X91730000Y-118970500D03*
X92230000Y-118970500D03*
X92730000Y-118970500D03*
X93230000Y-118970500D03*
X93730000Y-118970500D03*
X94230000Y-118970500D03*
X94730000Y-118970500D03*
X95230000Y-118970500D03*
X95730000Y-118970500D03*
X96230000Y-118970500D03*
X96730000Y-118970500D03*
%TD*%
D21*
%TO.C,TP7*%
X124460000Y-72390000D03*
%TD*%
D17*
%TO.C,H4*%
X232918000Y-132220000D03*
X232918000Y-137020000D03*
X234615056Y-132922944D03*
X231220944Y-136317056D03*
X235318000Y-134620000D03*
D18*
X232918000Y-134620000D03*
D17*
X230518000Y-134620000D03*
X231220944Y-132922944D03*
X234615056Y-136317056D03*
%TD*%
D13*
%TO.C,J9*%
X227076000Y-133604000D03*
D14*
X224536000Y-133604000D03*
X221996000Y-133604000D03*
X219456000Y-133604000D03*
X216916000Y-133604000D03*
X214376000Y-133604000D03*
X211836000Y-133604000D03*
X209296000Y-133604000D03*
%TD*%
D17*
%TO.C,H3*%
X73533000Y-132093000D03*
X73533000Y-136893000D03*
X71133000Y-134493000D03*
X71835944Y-132795944D03*
X71835944Y-136190056D03*
X75933000Y-134493000D03*
X75230056Y-136190056D03*
X75230056Y-132795944D03*
D18*
X73533000Y-134493000D03*
%TD*%
D22*
%TO.C,D1*%
X222847500Y-46106000D03*
X221097500Y-46106000D03*
%TD*%
D10*
%TO.C,U13*%
X129667000Y-119766000D03*
D15*
X132207000Y-119766000D03*
X134747000Y-119766000D03*
X137287000Y-119766000D03*
X139827000Y-119766000D03*
X142367000Y-119766000D03*
X144907000Y-119766000D03*
X147447000Y-119766000D03*
X149987000Y-119766000D03*
X152527000Y-119766000D03*
X155067000Y-119766000D03*
X157607000Y-119766000D03*
X160147000Y-119766000D03*
X162687000Y-119766000D03*
X165227000Y-119766000D03*
X167767000Y-119766000D03*
X170307000Y-119766000D03*
X172847000Y-119766000D03*
X175387000Y-119766000D03*
X177927000Y-119766000D03*
X177927000Y-104526000D03*
X175387000Y-104526000D03*
X172847000Y-104526000D03*
X170307000Y-104526000D03*
X167767000Y-104526000D03*
X165227000Y-104526000D03*
X162687000Y-104526000D03*
X160147000Y-104526000D03*
X157607000Y-104526000D03*
X155067000Y-104526000D03*
X152527000Y-104526000D03*
X149987000Y-104526000D03*
X147447000Y-104526000D03*
X144907000Y-104526000D03*
X142367000Y-104526000D03*
X139827000Y-104526000D03*
X137287000Y-104526000D03*
X134747000Y-104526000D03*
X132207000Y-104526000D03*
X129667000Y-104526000D03*
%TD*%
D23*
%TO.C,R13*%
X211836000Y-128420500D03*
X211836000Y-126595500D03*
%TD*%
D21*
%TO.C,TP8*%
X188341000Y-104394000D03*
%TD*%
D10*
%TO.C,X2*%
X73787000Y-64770000D03*
D11*
X81407000Y-64770000D03*
X81407000Y-57150000D03*
X73787000Y-57150000D03*
%TD*%
D24*
%TO.C,R16*%
X186690000Y-80367500D03*
X186690000Y-82192500D03*
%TD*%
D25*
%TO.C,LS1*%
X118237000Y-111887000D03*
D26*
X113237000Y-111887000D03*
%TD*%
D27*
%TO.C,U1*%
X177312500Y-62865000D03*
X177312500Y-64135000D03*
X177312500Y-65405000D03*
X177312500Y-66675000D03*
D28*
X179070000Y-68427500D03*
X180340000Y-68427500D03*
X181610000Y-68427500D03*
X182880000Y-68427500D03*
X184150000Y-68427500D03*
X185420000Y-68427500D03*
X186690000Y-68427500D03*
X187960000Y-68427500D03*
X189230000Y-68427500D03*
D27*
X190987500Y-66675000D03*
X190987500Y-65405000D03*
X190987500Y-64135000D03*
X190987500Y-62865000D03*
X190987500Y-61595000D03*
X190987500Y-60325000D03*
X190987500Y-59055000D03*
D28*
X189230000Y-57302500D03*
X187960000Y-57302500D03*
X186690000Y-57302500D03*
X185420000Y-57302500D03*
X184150000Y-57302500D03*
X182880000Y-57302500D03*
X181610000Y-57302500D03*
X180340000Y-57302500D03*
X179070000Y-57302500D03*
D27*
X177312500Y-59055000D03*
X177312500Y-60325000D03*
X177312500Y-61595000D03*
%TD*%
D29*
%TO.C,C3*%
X140562500Y-64470000D03*
X138837500Y-64470000D03*
%TD*%
D13*
%TO.C,J14*%
X117221000Y-93345000D03*
D14*
X117221000Y-90805000D03*
X117221000Y-88265000D03*
X117221000Y-85725000D03*
X117221000Y-83185000D03*
X117221000Y-80645000D03*
%TD*%
D13*
%TO.C,J20*%
X187330000Y-119126000D03*
D14*
X184790000Y-119126000D03*
%TD*%
D23*
%TO.C,R10*%
X219456000Y-128420500D03*
X219456000Y-126595500D03*
%TD*%
D30*
%TO.C,R3*%
X121134500Y-80645000D03*
X122959500Y-80645000D03*
%TD*%
D22*
%TO.C,D3*%
X163943000Y-42926000D03*
X162193000Y-42926000D03*
%TD*%
D31*
%TO.C,C12*%
X105817500Y-53975000D03*
X107542500Y-53975000D03*
%TD*%
D13*
%TO.C,JP3*%
X109220000Y-72136000D03*
D14*
X106680000Y-72136000D03*
%TD*%
D29*
%TO.C,C4*%
X140582500Y-51720000D03*
X138857500Y-51720000D03*
%TD*%
D17*
%TO.C,H2*%
X232791000Y-47612000D03*
X230391000Y-45212000D03*
X235191000Y-45212000D03*
X231093944Y-43514944D03*
X231093944Y-46909056D03*
X234488056Y-43514944D03*
X232791000Y-42812000D03*
D18*
X232791000Y-45212000D03*
D17*
X234488056Y-46909056D03*
%TD*%
D13*
%TO.C,J6*%
X142429609Y-134946609D03*
D14*
X142429609Y-132406609D03*
X144969609Y-134946609D03*
X144969609Y-132406609D03*
X147509609Y-134946609D03*
X147509609Y-132406609D03*
X150049609Y-134946609D03*
X150049609Y-132406609D03*
X152589609Y-134946609D03*
X152589609Y-132406609D03*
X155129609Y-134946609D03*
X155129609Y-132406609D03*
%TD*%
D21*
%TO.C,TP11*%
X123698000Y-50546000D03*
%TD*%
D13*
%TO.C,J10*%
X201930000Y-126746000D03*
D14*
X199390000Y-126746000D03*
X196850000Y-126746000D03*
X194310000Y-126746000D03*
X191770000Y-126746000D03*
X189230000Y-126746000D03*
X186690000Y-126746000D03*
X184150000Y-126746000D03*
%TD*%
D23*
%TO.C,R14*%
X209296000Y-128420500D03*
X209296000Y-126595500D03*
%TD*%
D32*
%TO.C,SW1*%
X174550000Y-43470000D03*
X181050000Y-43470000D03*
X174550000Y-47970000D03*
X181050000Y-47970000D03*
%TD*%
D33*
%TO.C,JP5*%
X140081000Y-43688000D03*
D34*
X140081000Y-44988000D03*
%TD*%
D35*
%TO.C,J3*%
X84582000Y-45974000D03*
D36*
X87082000Y-45974000D03*
%TD*%
D10*
%TO.C,U7*%
X193802000Y-95641000D03*
D15*
X196342000Y-95641000D03*
X198882000Y-95641000D03*
X201422000Y-95641000D03*
X203962000Y-95641000D03*
X206502000Y-95641000D03*
X209042000Y-95641000D03*
X211582000Y-95641000D03*
X214122000Y-95641000D03*
X216662000Y-95641000D03*
X219202000Y-95641000D03*
X221742000Y-95641000D03*
X224282000Y-95641000D03*
X226822000Y-95641000D03*
X229362000Y-95641000D03*
X231902000Y-95641000D03*
X231902000Y-80401000D03*
X229362000Y-80401000D03*
X226822000Y-80401000D03*
X224282000Y-80401000D03*
X221742000Y-80401000D03*
X219202000Y-80401000D03*
X216662000Y-80401000D03*
X214122000Y-80401000D03*
X211582000Y-80401000D03*
X209042000Y-80401000D03*
X206502000Y-80401000D03*
X203962000Y-80401000D03*
X201422000Y-80401000D03*
X198882000Y-80401000D03*
X196342000Y-80401000D03*
X193802000Y-80401000D03*
%TD*%
D16*
%TO.C,C14*%
X170815000Y-61595000D03*
X170815000Y-63320000D03*
%TD*%
%TO.C,C7*%
X75438000Y-75845500D03*
X75438000Y-77570500D03*
%TD*%
D23*
%TO.C,R8*%
X224536000Y-128420500D03*
X224536000Y-126595500D03*
%TD*%
D13*
%TO.C,J17*%
X80772000Y-71882000D03*
D14*
X78232000Y-71882000D03*
X75692000Y-71882000D03*
X73152000Y-71882000D03*
%TD*%
D13*
%TO.C,J13*%
X135128000Y-69342000D03*
D14*
X135128000Y-66802000D03*
X135128000Y-64262000D03*
X135128000Y-61722000D03*
X135128000Y-59182000D03*
X135128000Y-56642000D03*
%TD*%
D13*
%TO.C,JP4*%
X106807000Y-92379000D03*
D14*
X106807000Y-89839000D03*
%TD*%
D13*
%TO.C,J5*%
X75570000Y-121920000D03*
D14*
X73030000Y-121920000D03*
X75570000Y-119380000D03*
X73030000Y-119380000D03*
X75570000Y-116840000D03*
X73030000Y-116840000D03*
X75570000Y-114300000D03*
X73030000Y-114300000D03*
X75570000Y-111760000D03*
X73030000Y-111760000D03*
X75570000Y-109220000D03*
X73030000Y-109220000D03*
%TD*%
D10*
%TO.C,U10*%
X105405000Y-64633000D03*
D15*
X107945000Y-64633000D03*
X110485000Y-64633000D03*
X113025000Y-64633000D03*
X115565000Y-64633000D03*
X118105000Y-64633000D03*
X120645000Y-64633000D03*
X120645000Y-57013000D03*
X118105000Y-57013000D03*
X115565000Y-57013000D03*
X113025000Y-57013000D03*
X110485000Y-57013000D03*
X107945000Y-57013000D03*
X105405000Y-57013000D03*
%TD*%
D10*
%TO.C,U6*%
X78608000Y-83302000D03*
D15*
X81148000Y-83302000D03*
X83688000Y-83302000D03*
X86228000Y-83302000D03*
X88768000Y-83302000D03*
X91308000Y-83302000D03*
X93848000Y-83302000D03*
X96388000Y-83302000D03*
X98928000Y-83302000D03*
X101468000Y-83302000D03*
X104008000Y-83302000D03*
X106548000Y-83302000D03*
X106548000Y-75682000D03*
X104008000Y-75682000D03*
X101468000Y-75682000D03*
X98928000Y-75682000D03*
X96388000Y-75682000D03*
X93848000Y-75682000D03*
X91308000Y-75682000D03*
X88768000Y-75682000D03*
X86228000Y-75682000D03*
X83688000Y-75682000D03*
X81148000Y-75682000D03*
X78608000Y-75682000D03*
%TD*%
D37*
%TO.C,C1*%
X75438000Y-91286500D03*
X75438000Y-89561500D03*
%TD*%
D29*
%TO.C,C6*%
X73760500Y-53086000D03*
X72035500Y-53086000D03*
%TD*%
D38*
%TO.C,C16*%
X130683000Y-125857000D03*
D39*
X132183000Y-125857000D03*
%TD*%
D13*
%TO.C,J16*%
X98298000Y-72136000D03*
D14*
X95758000Y-72136000D03*
X93218000Y-72136000D03*
X90678000Y-72136000D03*
X88138000Y-72136000D03*
X85598000Y-72136000D03*
%TD*%
D40*
%TO.C,R6*%
X106830500Y-47879000D03*
X105005500Y-47879000D03*
%TD*%
D21*
%TO.C,TP9*%
X118110000Y-99314000D03*
%TD*%
D24*
%TO.C,R15*%
X188595000Y-80367500D03*
X188595000Y-82192500D03*
%TD*%
D23*
%TO.C,R7*%
X227076000Y-128420500D03*
X227076000Y-126595500D03*
%TD*%
%TO.C,R11*%
X216916000Y-128420500D03*
X216916000Y-126595500D03*
%TD*%
D30*
%TO.C,R4*%
X225505000Y-46106000D03*
X227330000Y-46106000D03*
%TD*%
D13*
%TO.C,J2*%
X94483000Y-44450000D03*
D14*
X97023000Y-44450000D03*
%TD*%
D16*
%TO.C,C5*%
X178054000Y-122735000D03*
X178054000Y-124460000D03*
%TD*%
D41*
%TO.C,U5*%
X97470000Y-50160000D03*
X97470000Y-49210000D03*
X97470000Y-48260000D03*
X94770000Y-48260000D03*
X94770000Y-50160000D03*
%TD*%
D30*
%TO.C,R5*%
X225505000Y-42931000D03*
X227330000Y-42931000D03*
%TD*%
%TO.C,R2*%
X121134500Y-90805000D03*
X122959500Y-90805000D03*
%TD*%
D10*
%TO.C,U4*%
X129540000Y-93345000D03*
D15*
X132080000Y-93345000D03*
X134620000Y-93345000D03*
X137160000Y-93345000D03*
X139700000Y-93345000D03*
X142240000Y-93345000D03*
X144780000Y-93345000D03*
X147320000Y-93345000D03*
X149860000Y-93345000D03*
X152400000Y-93345000D03*
X154940000Y-93345000D03*
X157480000Y-93345000D03*
X160020000Y-93345000D03*
X162560000Y-93345000D03*
X165100000Y-93345000D03*
X167640000Y-93345000D03*
X170180000Y-93345000D03*
X172720000Y-93345000D03*
X175260000Y-93345000D03*
X177800000Y-93345000D03*
X177800000Y-78105000D03*
X175260000Y-78105000D03*
X172720000Y-78105000D03*
X170180000Y-78105000D03*
X167640000Y-78105000D03*
X165100000Y-78105000D03*
X162560000Y-78105000D03*
X160020000Y-78105000D03*
X157480000Y-78105000D03*
X154940000Y-78105000D03*
X152400000Y-78105000D03*
X149860000Y-78105000D03*
X147320000Y-78105000D03*
X144780000Y-78105000D03*
X142240000Y-78105000D03*
X139700000Y-78105000D03*
X137160000Y-78105000D03*
X134620000Y-78105000D03*
X132080000Y-78105000D03*
X129540000Y-78105000D03*
%TD*%
D13*
%TO.C,J4*%
X101600000Y-132842000D03*
D14*
X101600000Y-135382000D03*
X99060000Y-132842000D03*
X99060000Y-135382000D03*
X96520000Y-132842000D03*
X96520000Y-135382000D03*
X93980000Y-132842000D03*
X93980000Y-135382000D03*
X91440000Y-132842000D03*
X91440000Y-135382000D03*
X88900000Y-132842000D03*
X88900000Y-135382000D03*
%TD*%
D29*
%TO.C,C11*%
X89635500Y-52832000D03*
X87910500Y-52832000D03*
%TD*%
D10*
%TO.C,U3*%
X143510000Y-58420000D03*
D15*
X146050000Y-58420000D03*
X148590000Y-58420000D03*
X151130000Y-58420000D03*
X153670000Y-58420000D03*
X156210000Y-58420000D03*
X158750000Y-58420000D03*
X161290000Y-58420000D03*
X163830000Y-58420000D03*
X166370000Y-58420000D03*
X166370000Y-50800000D03*
X163830000Y-50800000D03*
X161290000Y-50800000D03*
X158750000Y-50800000D03*
X156210000Y-50800000D03*
X153670000Y-50800000D03*
X151130000Y-50800000D03*
X148590000Y-50800000D03*
X146050000Y-50800000D03*
X143510000Y-50800000D03*
%TD*%
D21*
%TO.C,TP4*%
X113030000Y-99060000D03*
%TD*%
D16*
%TO.C,C8*%
X93726000Y-124613500D03*
X93726000Y-126338500D03*
%TD*%
D13*
%TO.C,JP1*%
X125730000Y-119507000D03*
D14*
X123190000Y-119507000D03*
%TD*%
D21*
%TO.C,TP6*%
X183134000Y-104521000D03*
%TD*%
D13*
%TO.C,J18*%
X111500600Y-125984400D03*
D14*
X114040600Y-125984400D03*
X116580600Y-125984400D03*
X119120600Y-125984400D03*
X121660600Y-125984400D03*
X124200600Y-125984400D03*
X126740600Y-125984400D03*
%TD*%
D23*
%TO.C,R9*%
X221996000Y-128420500D03*
X221996000Y-126595500D03*
%TD*%
D22*
%TO.C,D2*%
X222847500Y-42931000D03*
X221097500Y-42931000D03*
%TD*%
D30*
%TO.C,R1*%
X121134500Y-85725000D03*
X122959500Y-85725000D03*
%TD*%
D13*
%TO.C,J1*%
X104516000Y-44450000D03*
D14*
X107056000Y-44450000D03*
%TD*%
D21*
%TO.C,TP5*%
X108204000Y-99060000D03*
%TD*%
D31*
%TO.C,C9*%
X194137500Y-102070000D03*
X195862500Y-102070000D03*
%TD*%
D21*
%TO.C,TP1*%
X119380000Y-72390000D03*
%TD*%
D42*
%TO.C,X2_ALT*%
X75057000Y-63060000D03*
X77597000Y-63060000D03*
X80137000Y-63060000D03*
X80137000Y-58860000D03*
X77597000Y-58860000D03*
X75057000Y-58860000D03*
%TD*%
%TO.C,X1_ALT*%
X90932000Y-62992000D03*
X93472000Y-62992000D03*
X96012000Y-62992000D03*
X96012000Y-58792000D03*
X93472000Y-58792000D03*
X90932000Y-58792000D03*
%TD*%
D43*
%TO.C,SW2*%
X184150000Y-95237000D03*
X186690000Y-95237000D03*
X186690000Y-86627000D03*
X184150000Y-86627000D03*
%TD*%
D13*
%TO.C,J12*%
X80787000Y-89154000D03*
D14*
X83327000Y-89154000D03*
X85867000Y-89154000D03*
X88407000Y-89154000D03*
X90947000Y-89154000D03*
X93487000Y-89154000D03*
X96027000Y-89154000D03*
X98567000Y-89154000D03*
%TD*%
D10*
%TO.C,C15*%
X126071621Y-44958000D03*
D11*
X128571621Y-44958000D03*
%TD*%
D10*
%TO.C,U2*%
X143637000Y-72131000D03*
D15*
X146177000Y-72131000D03*
X148717000Y-72131000D03*
X151257000Y-72131000D03*
X153797000Y-72131000D03*
X156337000Y-72131000D03*
X158877000Y-72131000D03*
X161417000Y-72131000D03*
X163957000Y-72131000D03*
X166497000Y-72131000D03*
X166497000Y-64511000D03*
X163957000Y-64511000D03*
X161417000Y-64511000D03*
X158877000Y-64511000D03*
X156337000Y-64511000D03*
X153797000Y-64511000D03*
X151257000Y-64511000D03*
X148717000Y-64511000D03*
X146177000Y-64511000D03*
X143637000Y-64511000D03*
%TD*%
D21*
%TO.C,TP2*%
X113919000Y-50546000D03*
%TD*%
D13*
%TO.C,J15*%
X80391000Y-135387000D03*
D14*
X80391000Y-132847000D03*
X80391000Y-130307000D03*
%TD*%
D13*
%TO.C,J7*%
X162241609Y-134946609D03*
D14*
X162241609Y-132406609D03*
X164781609Y-134946609D03*
X164781609Y-132406609D03*
X167321609Y-134946609D03*
X167321609Y-132406609D03*
X169861609Y-134946609D03*
X169861609Y-132406609D03*
X172401609Y-134946609D03*
X172401609Y-132406609D03*
X174941609Y-134946609D03*
X174941609Y-132406609D03*
%TD*%
D21*
%TO.C,TP10*%
X182245000Y-79375000D03*
%TD*%
D30*
%TO.C,R17*%
X166854500Y-42926000D03*
X168679500Y-42926000D03*
%TD*%
D13*
%TO.C,JP2*%
X120015000Y-44450000D03*
D14*
X117475000Y-44450000D03*
X114935000Y-44450000D03*
%TD*%
D13*
%TO.C,J11*%
X146060000Y-44450000D03*
D14*
X148600000Y-44450000D03*
X151140000Y-44450000D03*
X153680000Y-44450000D03*
%TD*%
D13*
%TO.C,J8*%
X201930000Y-133604000D03*
D14*
X199390000Y-133604000D03*
X196850000Y-133604000D03*
X194310000Y-133604000D03*
X191770000Y-133604000D03*
X189230000Y-133604000D03*
X186690000Y-133604000D03*
X184150000Y-133604000D03*
%TD*%
D10*
%TO.C,U8*%
X193802000Y-120401000D03*
D15*
X196342000Y-120401000D03*
X198882000Y-120401000D03*
X201422000Y-120401000D03*
X203962000Y-120401000D03*
X206502000Y-120401000D03*
X209042000Y-120401000D03*
X211582000Y-120401000D03*
X214122000Y-120401000D03*
X216662000Y-120401000D03*
X219202000Y-120401000D03*
X221742000Y-120401000D03*
X224282000Y-120401000D03*
X226822000Y-120401000D03*
X229362000Y-120401000D03*
X231902000Y-120401000D03*
X231902000Y-105161000D03*
X229362000Y-105161000D03*
X226822000Y-105161000D03*
X224282000Y-105161000D03*
X221742000Y-105161000D03*
X219202000Y-105161000D03*
X216662000Y-105161000D03*
X214122000Y-105161000D03*
X211582000Y-105161000D03*
X209042000Y-105161000D03*
X206502000Y-105161000D03*
X203962000Y-105161000D03*
X201422000Y-105161000D03*
X198882000Y-105161000D03*
X196342000Y-105161000D03*
X193802000Y-105161000D03*
%TD*%
D44*
%TO.C,U14*%
X133223000Y-44577000D03*
D45*
X134493000Y-44577000D03*
X135763000Y-44577000D03*
%TD*%
D23*
%TO.C,R12*%
X214376000Y-128420500D03*
X214376000Y-126595500D03*
%TD*%
D31*
%TO.C,C2*%
X199727500Y-51790000D03*
X201452500Y-51790000D03*
%TD*%
D16*
%TO.C,C10*%
X190500000Y-80417500D03*
X190500000Y-82142500D03*
%TD*%
M02*
