%TF.GenerationSoftware,KiCad,Pcbnew,6.0.4+dfsg-1+b1*%
%TF.CreationDate,2022-05-07T15:32:52+10:00*%
%TF.ProjectId,65816-computer,36353831-362d-4636-9f6d-70757465722e,rev?*%
%TF.SameCoordinates,Original*%
%TF.FileFunction,Copper,L4,Bot*%
%TF.FilePolarity,Positive*%
%FSLAX46Y46*%
G04 Gerber Fmt 4.6, Leading zero omitted, Abs format (unit mm)*
G04 Created by KiCad (PCBNEW 6.0.4+dfsg-1+b1) date 2022-05-07 15:32:52*
%MOMM*%
%LPD*%
G01*
G04 APERTURE LIST*
G04 Aperture macros list*
%AMRoundRect*
0 Rectangle with rounded corners*
0 $1 Rounding radius*
0 $2 $3 $4 $5 $6 $7 $8 $9 X,Y pos of 4 corners*
0 Add a 4 corners polygon primitive as box body*
4,1,4,$2,$3,$4,$5,$6,$7,$8,$9,$2,$3,0*
0 Add four circle primitives for the rounded corners*
1,1,$1+$1,$2,$3*
1,1,$1+$1,$4,$5*
1,1,$1+$1,$6,$7*
1,1,$1+$1,$8,$9*
0 Add four rect primitives between the rounded corners*
20,1,$1+$1,$2,$3,$4,$5,0*
20,1,$1+$1,$4,$5,$6,$7,0*
20,1,$1+$1,$6,$7,$8,$9,0*
20,1,$1+$1,$8,$9,$2,$3,0*%
G04 Aperture macros list end*
%ADD10C,0.750000*%
%TA.AperFunction,NonConductor*%
%ADD11C,0.750000*%
%TD*%
%TA.AperFunction,ComponentPad*%
%ADD12R,1.600000X1.600000*%
%TD*%
%TA.AperFunction,ComponentPad*%
%ADD13C,1.600000*%
%TD*%
%TA.AperFunction,ComponentPad*%
%ADD14R,1.700000X1.700000*%
%TD*%
%TA.AperFunction,ComponentPad*%
%ADD15O,1.700000X1.700000*%
%TD*%
%TA.AperFunction,ComponentPad*%
%ADD16O,1.600000X1.600000*%
%TD*%
%TA.AperFunction,ComponentPad*%
%ADD17C,0.800000*%
%TD*%
%TA.AperFunction,ComponentPad*%
%ADD18C,6.400000*%
%TD*%
%TA.AperFunction,ComponentPad*%
%ADD19C,2.800000*%
%TD*%
%TA.AperFunction,ComponentPad*%
%ADD20R,2.000000X2.000000*%
%TD*%
%TA.AperFunction,ComponentPad*%
%ADD21C,2.000000*%
%TD*%
%TA.AperFunction,ComponentPad*%
%ADD22C,1.700000*%
%TD*%
%TA.AperFunction,ComponentPad*%
%ADD23RoundRect,0.250000X-0.600000X-0.750000X0.600000X-0.750000X0.600000X0.750000X-0.600000X0.750000X0*%
%TD*%
%TA.AperFunction,ComponentPad*%
%ADD24O,1.700000X2.000000*%
%TD*%
%TA.AperFunction,ComponentPad*%
%ADD25R,1.200000X1.200000*%
%TD*%
%TA.AperFunction,ComponentPad*%
%ADD26C,1.200000*%
%TD*%
%TA.AperFunction,ComponentPad*%
%ADD27R,1.050000X1.500000*%
%TD*%
%TA.AperFunction,ComponentPad*%
%ADD28O,1.050000X1.500000*%
%TD*%
%TA.AperFunction,ViaPad*%
%ADD29C,0.800000*%
%TD*%
%TA.AperFunction,Conductor*%
%ADD30C,0.250000*%
%TD*%
G04 APERTURE END LIST*
D10*
D11*
X212946142Y-42640523D02*
X213708047Y-42640523D01*
X214089000Y-42831000D01*
X214279476Y-43021476D01*
X214660428Y-43592904D01*
X214850904Y-44354809D01*
X214850904Y-45878619D01*
X214660428Y-46259571D01*
X214469952Y-46450047D01*
X214089000Y-46640523D01*
X213327095Y-46640523D01*
X212946142Y-46450047D01*
X212755666Y-46259571D01*
X212565190Y-45878619D01*
X212565190Y-44926238D01*
X212755666Y-44545285D01*
X212946142Y-44354809D01*
X213327095Y-44164333D01*
X214089000Y-44164333D01*
X214469952Y-44354809D01*
X214660428Y-44545285D01*
X214850904Y-44926238D01*
X208946142Y-42640523D02*
X210850904Y-42640523D01*
X211041380Y-44545285D01*
X210850904Y-44354809D01*
X210469952Y-44164333D01*
X209517571Y-44164333D01*
X209136619Y-44354809D01*
X208946142Y-44545285D01*
X208755666Y-44926238D01*
X208755666Y-45878619D01*
X208946142Y-46259571D01*
X209136619Y-46450047D01*
X209517571Y-46640523D01*
X210469952Y-46640523D01*
X210850904Y-46450047D01*
X211041380Y-46259571D01*
X204755666Y-46259571D02*
X204946142Y-46450047D01*
X205517571Y-46640523D01*
X205898523Y-46640523D01*
X206469952Y-46450047D01*
X206850904Y-46069095D01*
X207041380Y-45688142D01*
X207231857Y-44926238D01*
X207231857Y-44354809D01*
X207041380Y-43592904D01*
X206850904Y-43211952D01*
X206469952Y-42831000D01*
X205898523Y-42640523D01*
X205517571Y-42640523D01*
X204946142Y-42831000D01*
X204755666Y-43021476D01*
X202469952Y-44354809D02*
X202850904Y-44164333D01*
X203041380Y-43973857D01*
X203231857Y-43592904D01*
X203231857Y-43402428D01*
X203041380Y-43021476D01*
X202850904Y-42831000D01*
X202469952Y-42640523D01*
X201708047Y-42640523D01*
X201327095Y-42831000D01*
X201136619Y-43021476D01*
X200946142Y-43402428D01*
X200946142Y-43592904D01*
X201136619Y-43973857D01*
X201327095Y-44164333D01*
X201708047Y-44354809D01*
X202469952Y-44354809D01*
X202850904Y-44545285D01*
X203041380Y-44735761D01*
X203231857Y-45116714D01*
X203231857Y-45878619D01*
X203041380Y-46259571D01*
X202850904Y-46450047D01*
X202469952Y-46640523D01*
X201708047Y-46640523D01*
X201327095Y-46450047D01*
X201136619Y-46259571D01*
X200946142Y-45878619D01*
X200946142Y-45116714D01*
X201136619Y-44735761D01*
X201327095Y-44545285D01*
X201708047Y-44354809D01*
X197136619Y-46640523D02*
X199422333Y-46640523D01*
X198279476Y-46640523D02*
X198279476Y-42640523D01*
X198660428Y-43211952D01*
X199041380Y-43592904D01*
X199422333Y-43783380D01*
X193708047Y-42640523D02*
X194469952Y-42640523D01*
X194850904Y-42831000D01*
X195041380Y-43021476D01*
X195422333Y-43592904D01*
X195612809Y-44354809D01*
X195612809Y-45878619D01*
X195422333Y-46259571D01*
X195231857Y-46450047D01*
X194850904Y-46640523D01*
X194089000Y-46640523D01*
X193708047Y-46450047D01*
X193517571Y-46259571D01*
X193327095Y-45878619D01*
X193327095Y-44926238D01*
X193517571Y-44545285D01*
X193708047Y-44354809D01*
X194089000Y-44164333D01*
X194850904Y-44164333D01*
X195231857Y-44354809D01*
X195422333Y-44545285D01*
X195612809Y-44926238D01*
D12*
%TO.P,X1,1,NC*%
%TO.N,+5V*%
X89662000Y-64643000D03*
D13*
%TO.P,X1,4,GND*%
%TO.N,GND*%
X97282000Y-64643000D03*
%TO.P,X1,5,OUT*%
%TO.N,/CPU& Bank Address Latching/CLK_UART*%
X97282000Y-57023000D03*
%TO.P,X1,8,Vcc*%
%TO.N,+5V*%
X89662000Y-57023000D03*
%TD*%
D14*
%TO.P,J19,1,Pin_1*%
%TO.N,+5V*%
X132207000Y-135001000D03*
D15*
%TO.P,J19,2,Pin_2*%
%TO.N,GND*%
X132207000Y-132461000D03*
%TO.P,J19,3,Pin_3*%
%TO.N,+5V*%
X134747000Y-135001000D03*
%TO.P,J19,4,Pin_4*%
%TO.N,GND*%
X134747000Y-132461000D03*
%TO.P,J19,5,Pin_5*%
%TO.N,+5V*%
X137287000Y-135001000D03*
%TO.P,J19,6,Pin_6*%
%TO.N,GND*%
X137287000Y-132461000D03*
%TD*%
D12*
%TO.P,U11,1,A0*%
%TO.N,/CPU& Bank Address Latching/A11*%
X78232000Y-100330000D03*
D16*
%TO.P,U11,2,A1*%
%TO.N,/CPU& Bank Address Latching/A10*%
X80772000Y-100330000D03*
%TO.P,U11,3,A2*%
%TO.N,/CPU& Bank Address Latching/A9*%
X83312000Y-100330000D03*
%TO.P,U11,4,~{G2A}*%
%TO.N,/CPU& Bank Address Latching/A12*%
X85852000Y-100330000D03*
%TO.P,U11,5,~{G2B}*%
%TO.N,/IO/~{IOCS}*%
X88392000Y-100330000D03*
%TO.P,U11,6,G1*%
%TO.N,+5V*%
X90932000Y-100330000D03*
%TO.P,U11,7,~{Y7}*%
%TO.N,/IO/~{IO7}*%
X93472000Y-100330000D03*
%TO.P,U11,8,GND*%
%TO.N,GND*%
X96012000Y-100330000D03*
%TO.P,U11,9,~{Y6}*%
%TO.N,/IO/~{IO6}*%
X96012000Y-92710000D03*
%TO.P,U11,10,~{Y5}*%
%TO.N,/IO/~{IO5}*%
X93472000Y-92710000D03*
%TO.P,U11,11,~{Y4}*%
%TO.N,/IO/~{IO4}*%
X90932000Y-92710000D03*
%TO.P,U11,12,~{Y3}*%
%TO.N,/IO/~{IO3}*%
X88392000Y-92710000D03*
%TO.P,U11,13,~{Y2}*%
%TO.N,/IO/~{IO2}*%
X85852000Y-92710000D03*
%TO.P,U11,14,~{Y1}*%
%TO.N,/IO/~{IO1}*%
X83312000Y-92710000D03*
%TO.P,U11,15,~{Y0}*%
%TO.N,/IO/~{IO0}*%
X80772000Y-92710000D03*
%TO.P,U11,16,VCC*%
%TO.N,+5V*%
X78232000Y-92710000D03*
%TD*%
D12*
%TO.P,U9,1,A14*%
%TO.N,/Memory/ROMSW1*%
X198882000Y-70876000D03*
D16*
%TO.P,U9,2,A12*%
%TO.N,/CPU& Bank Address Latching/A12*%
X201422000Y-70876000D03*
%TO.P,U9,3,A7*%
%TO.N,/CPU& Bank Address Latching/A7*%
X203962000Y-70876000D03*
%TO.P,U9,4,A6*%
%TO.N,/CPU& Bank Address Latching/A6*%
X206502000Y-70876000D03*
%TO.P,U9,5,A5*%
%TO.N,/CPU& Bank Address Latching/A5*%
X209042000Y-70876000D03*
%TO.P,U9,6,A4*%
%TO.N,/CPU& Bank Address Latching/A4*%
X211582000Y-70876000D03*
%TO.P,U9,7,A3*%
%TO.N,/CPU& Bank Address Latching/A3*%
X214122000Y-70876000D03*
%TO.P,U9,8,A2*%
%TO.N,/CPU& Bank Address Latching/A2*%
X216662000Y-70876000D03*
%TO.P,U9,9,A1*%
%TO.N,/CPU& Bank Address Latching/A1*%
X219202000Y-70876000D03*
%TO.P,U9,10,A0*%
%TO.N,/CPU& Bank Address Latching/A0*%
X221742000Y-70876000D03*
%TO.P,U9,11,D0*%
%TO.N,/CPU& Bank Address Latching/D0*%
X224282000Y-70876000D03*
%TO.P,U9,12,D1*%
%TO.N,/CPU& Bank Address Latching/D1*%
X226822000Y-70876000D03*
%TO.P,U9,13,D2*%
%TO.N,/CPU& Bank Address Latching/D2*%
X229362000Y-70876000D03*
%TO.P,U9,14,GND*%
%TO.N,GND*%
X231902000Y-70876000D03*
%TO.P,U9,15,D3*%
%TO.N,/CPU& Bank Address Latching/D3*%
X231902000Y-55636000D03*
%TO.P,U9,16,D4*%
%TO.N,/CPU& Bank Address Latching/D4*%
X229362000Y-55636000D03*
%TO.P,U9,17,D5*%
%TO.N,/CPU& Bank Address Latching/D5*%
X226822000Y-55636000D03*
%TO.P,U9,18,D6*%
%TO.N,/CPU& Bank Address Latching/D6*%
X224282000Y-55636000D03*
%TO.P,U9,19,D7*%
%TO.N,/CPU& Bank Address Latching/D7*%
X221742000Y-55636000D03*
%TO.P,U9,20,~{CS}*%
%TO.N,/Memory/~{ROMCS}*%
X219202000Y-55636000D03*
%TO.P,U9,21,A10*%
%TO.N,/CPU& Bank Address Latching/A10*%
X216662000Y-55636000D03*
%TO.P,U9,22,~{OE}*%
%TO.N,/Memory/~{RD}*%
X214122000Y-55636000D03*
%TO.P,U9,23,A11*%
%TO.N,/CPU& Bank Address Latching/A11*%
X211582000Y-55636000D03*
%TO.P,U9,24,A9*%
%TO.N,/CPU& Bank Address Latching/A9*%
X209042000Y-55636000D03*
%TO.P,U9,25,A8*%
%TO.N,/CPU& Bank Address Latching/A8*%
X206502000Y-55636000D03*
%TO.P,U9,26,A13*%
%TO.N,/Memory/ROMSW0*%
X203962000Y-55636000D03*
%TO.P,U9,27,~{WE}*%
%TO.N,+5V*%
X201422000Y-55636000D03*
%TO.P,U9,28,VCC*%
X198882000Y-55636000D03*
%TD*%
D17*
%TO.P,H1,1,1*%
%TO.N,GND*%
X75230056Y-43387944D03*
X73533000Y-42685000D03*
X75230056Y-46782056D03*
X73533000Y-47485000D03*
X71835944Y-46782056D03*
D18*
X73533000Y-45085000D03*
D17*
X71835944Y-43387944D03*
X75933000Y-45085000D03*
X71133000Y-45085000D03*
%TD*%
D19*
%TO.P,TP7,1,1*%
%TO.N,GND*%
X124460000Y-72390000D03*
%TD*%
D17*
%TO.P,H4,1,1*%
%TO.N,GND*%
X232918000Y-132220000D03*
X232918000Y-137020000D03*
X234615056Y-132922944D03*
X231220944Y-136317056D03*
X235318000Y-134620000D03*
D18*
X232918000Y-134620000D03*
D17*
X230518000Y-134620000D03*
X231220944Y-132922944D03*
X234615056Y-136317056D03*
%TD*%
D14*
%TO.P,J9,1,Pin_1*%
%TO.N,/CPU& Bank Address Latching/D0*%
X227076000Y-133604000D03*
D15*
%TO.P,J9,2,Pin_2*%
%TO.N,/CPU& Bank Address Latching/D1*%
X224536000Y-133604000D03*
%TO.P,J9,3,Pin_3*%
%TO.N,/CPU& Bank Address Latching/D2*%
X221996000Y-133604000D03*
%TO.P,J9,4,Pin_4*%
%TO.N,/CPU& Bank Address Latching/D3*%
X219456000Y-133604000D03*
%TO.P,J9,5,Pin_5*%
%TO.N,/CPU& Bank Address Latching/D4*%
X216916000Y-133604000D03*
%TO.P,J9,6,Pin_6*%
%TO.N,/CPU& Bank Address Latching/D5*%
X214376000Y-133604000D03*
%TO.P,J9,7,Pin_7*%
%TO.N,/CPU& Bank Address Latching/D6*%
X211836000Y-133604000D03*
%TO.P,J9,8,Pin_8*%
%TO.N,/CPU& Bank Address Latching/D7*%
X209296000Y-133604000D03*
%TD*%
D17*
%TO.P,H3,1,1*%
%TO.N,GND*%
X73533000Y-132093000D03*
X73533000Y-136893000D03*
X71133000Y-134493000D03*
X71835944Y-132795944D03*
X71835944Y-136190056D03*
X75933000Y-134493000D03*
X75230056Y-136190056D03*
X75230056Y-132795944D03*
D18*
X73533000Y-134493000D03*
%TD*%
D12*
%TO.P,U13,1,VSS*%
%TO.N,GND*%
X129667000Y-119766000D03*
D16*
%TO.P,U13,2,PA0*%
%TO.N,/IO/VIA_PA0*%
X132207000Y-119766000D03*
%TO.P,U13,3,PA1*%
%TO.N,/IO/VIA_PA1*%
X134747000Y-119766000D03*
%TO.P,U13,4,PA2*%
%TO.N,/IO/VIA_PA2*%
X137287000Y-119766000D03*
%TO.P,U13,5,PA3*%
%TO.N,/IO/VIA_PA3*%
X139827000Y-119766000D03*
%TO.P,U13,6,PA4*%
%TO.N,/IO/VIA_PA4*%
X142367000Y-119766000D03*
%TO.P,U13,7,PA5*%
%TO.N,/IO/VIA_PA5*%
X144907000Y-119766000D03*
%TO.P,U13,8,PA6*%
%TO.N,/IO/VIA_PA6*%
X147447000Y-119766000D03*
%TO.P,U13,9,PA7*%
%TO.N,/IO/VIA_PA7*%
X149987000Y-119766000D03*
%TO.P,U13,10,PB0*%
%TO.N,/IO/VIA_PB0*%
X152527000Y-119766000D03*
%TO.P,U13,11,PB1*%
%TO.N,/IO/VIA_PB1*%
X155067000Y-119766000D03*
%TO.P,U13,12,PB2*%
%TO.N,/IO/VIA_PB2*%
X157607000Y-119766000D03*
%TO.P,U13,13,PB3*%
%TO.N,/IO/VIA_PB3*%
X160147000Y-119766000D03*
%TO.P,U13,14,PB4*%
%TO.N,/IO/VIA_PB4*%
X162687000Y-119766000D03*
%TO.P,U13,15,PB5*%
%TO.N,/IO/VIA_PB5*%
X165227000Y-119766000D03*
%TO.P,U13,16,PB6*%
%TO.N,/IO/VIA_PB6*%
X167767000Y-119766000D03*
%TO.P,U13,17,PB7*%
%TO.N,/IO/VIA_PB7*%
X170307000Y-119766000D03*
%TO.P,U13,18,CB1*%
%TO.N,/IO/VIA_CB1*%
X172847000Y-119766000D03*
%TO.P,U13,19,CB2*%
%TO.N,/IO/VIA_CB2*%
X175387000Y-119766000D03*
%TO.P,U13,20,VDD*%
%TO.N,+5V*%
X177927000Y-119766000D03*
%TO.P,U13,21,~{IRQ}*%
%TO.N,/CPU& Bank Address Latching/~{NMI}*%
X177927000Y-104526000D03*
%TO.P,U13,22,~{RW}*%
%TO.N,/CPU& Bank Address Latching/~{RW}*%
X175387000Y-104526000D03*
%TO.P,U13,23,~{CS2}*%
%TO.N,/IO/~{IO0}*%
X172847000Y-104526000D03*
%TO.P,U13,24,CS1*%
%TO.N,+5V*%
X170307000Y-104526000D03*
%TO.P,U13,25,~{PHI2}*%
%TO.N,/CPU& Bank Address Latching/CLK*%
X167767000Y-104526000D03*
%TO.P,U13,26,D7*%
%TO.N,/CPU& Bank Address Latching/D7*%
X165227000Y-104526000D03*
%TO.P,U13,27,D6*%
%TO.N,/CPU& Bank Address Latching/D6*%
X162687000Y-104526000D03*
%TO.P,U13,28,D5*%
%TO.N,/CPU& Bank Address Latching/D5*%
X160147000Y-104526000D03*
%TO.P,U13,29,D4*%
%TO.N,/CPU& Bank Address Latching/D4*%
X157607000Y-104526000D03*
%TO.P,U13,30,D3*%
%TO.N,/CPU& Bank Address Latching/D3*%
X155067000Y-104526000D03*
%TO.P,U13,31,D2*%
%TO.N,/CPU& Bank Address Latching/D2*%
X152527000Y-104526000D03*
%TO.P,U13,32,D1*%
%TO.N,/CPU& Bank Address Latching/D1*%
X149987000Y-104526000D03*
%TO.P,U13,33,D0*%
%TO.N,/CPU& Bank Address Latching/D0*%
X147447000Y-104526000D03*
%TO.P,U13,34,~{RES}*%
%TO.N,/CPU& Bank Address Latching/~{RES}*%
X144907000Y-104526000D03*
%TO.P,U13,35,RS3*%
%TO.N,/CPU& Bank Address Latching/A3*%
X142367000Y-104526000D03*
%TO.P,U13,36,RS2*%
%TO.N,/CPU& Bank Address Latching/A2*%
X139827000Y-104526000D03*
%TO.P,U13,37,RS1*%
%TO.N,/CPU& Bank Address Latching/A1*%
X137287000Y-104526000D03*
%TO.P,U13,38,RS0*%
%TO.N,/CPU& Bank Address Latching/A0*%
X134747000Y-104526000D03*
%TO.P,U13,39,CA2*%
%TO.N,/IO/VIA_CA2*%
X132207000Y-104526000D03*
%TO.P,U13,40,CA1*%
%TO.N,/IO/VIA_CA1*%
X129667000Y-104526000D03*
%TD*%
D19*
%TO.P,TP8,1,1*%
%TO.N,GND*%
X188341000Y-104394000D03*
%TD*%
D12*
%TO.P,X2,1,NC*%
%TO.N,+5V*%
X73787000Y-64770000D03*
D13*
%TO.P,X2,4,GND*%
%TO.N,GND*%
X81407000Y-64770000D03*
%TO.P,X2,5,OUT*%
%TO.N,Net-(JP2-Pad3)*%
X81407000Y-57150000D03*
%TO.P,X2,8,Vcc*%
%TO.N,+5V*%
X73787000Y-57150000D03*
%TD*%
D20*
%TO.P,LS1,1,1*%
%TO.N,/IO/SPEAKER*%
X118237000Y-111887000D03*
D21*
%TO.P,LS1,2,2*%
%TO.N,GND*%
X113237000Y-111887000D03*
%TD*%
D14*
%TO.P,J14,1,Pin_1*%
%TO.N,/CPU& Bank Address Latching/~{VP}*%
X117221000Y-93345000D03*
D15*
%TO.P,J14,2,Pin_2*%
%TO.N,/CPU& Bank Address Latching/RDY*%
X117221000Y-90805000D03*
%TO.P,J14,3,Pin_3*%
%TO.N,/CPU& Bank Address Latching/~{RES}*%
X117221000Y-88265000D03*
%TO.P,J14,4,Pin_4*%
%TO.N,/CPU& Bank Address Latching/~{ABORT}*%
X117221000Y-85725000D03*
%TO.P,J14,5,Pin_5*%
%TO.N,/CPU& Bank Address Latching/~{NMI}*%
X117221000Y-83185000D03*
%TO.P,J14,6,Pin_6*%
%TO.N,/CPU& Bank Address Latching/BE*%
X117221000Y-80645000D03*
%TD*%
D14*
%TO.P,J20,1,Pin_1*%
%TO.N,GND*%
X187330000Y-119126000D03*
D15*
%TO.P,J20,2,Pin_2*%
X184790000Y-119126000D03*
%TD*%
D14*
%TO.P,JP3,1,A*%
%TO.N,GND*%
X109220000Y-72136000D03*
D15*
%TO.P,JP3,2,B*%
%TO.N,/Memory/S0*%
X106680000Y-72136000D03*
%TD*%
D17*
%TO.P,H2,1,1*%
%TO.N,GND*%
X232791000Y-47612000D03*
X230391000Y-45212000D03*
X235191000Y-45212000D03*
X231093944Y-43514944D03*
X231093944Y-46909056D03*
X234488056Y-43514944D03*
X232791000Y-42812000D03*
D18*
X232791000Y-45212000D03*
D17*
X234488056Y-46909056D03*
%TD*%
D14*
%TO.P,J6,1,Pin_1*%
%TO.N,+5V*%
X142429609Y-134946609D03*
D15*
%TO.P,J6,2,Pin_2*%
%TO.N,GND*%
X142429609Y-132406609D03*
%TO.P,J6,3,Pin_3*%
%TO.N,/IO/VIA_CA1*%
X144969609Y-134946609D03*
%TO.P,J6,4,Pin_4*%
%TO.N,/IO/VIA_CA2*%
X144969609Y-132406609D03*
%TO.P,J6,5,Pin_5*%
%TO.N,/IO/VIA_PA0*%
X147509609Y-134946609D03*
%TO.P,J6,6,Pin_6*%
%TO.N,/IO/VIA_PA1*%
X147509609Y-132406609D03*
%TO.P,J6,7,Pin_7*%
%TO.N,/IO/VIA_PA2*%
X150049609Y-134946609D03*
%TO.P,J6,8,Pin_8*%
%TO.N,/IO/VIA_PA3*%
X150049609Y-132406609D03*
%TO.P,J6,9,Pin_9*%
%TO.N,/IO/VIA_PA4*%
X152589609Y-134946609D03*
%TO.P,J6,10,Pin_10*%
%TO.N,/IO/VIA_PA5*%
X152589609Y-132406609D03*
%TO.P,J6,11,Pin_11*%
%TO.N,/IO/VIA_PA6*%
X155129609Y-134946609D03*
%TO.P,J6,12,Pin_12*%
%TO.N,/IO/VIA_PA7*%
X155129609Y-132406609D03*
%TD*%
D19*
%TO.P,TP11,1,1*%
%TO.N,/CPU& Bank Address Latching/CLK_UART*%
X123698000Y-50546000D03*
%TD*%
D14*
%TO.P,J10,1,Pin_1*%
%TO.N,/CPU& Bank Address Latching/A8*%
X201930000Y-126746000D03*
D15*
%TO.P,J10,2,Pin_2*%
%TO.N,/CPU& Bank Address Latching/A9*%
X199390000Y-126746000D03*
%TO.P,J10,3,Pin_3*%
%TO.N,/CPU& Bank Address Latching/A10*%
X196850000Y-126746000D03*
%TO.P,J10,4,Pin_4*%
%TO.N,/CPU& Bank Address Latching/A11*%
X194310000Y-126746000D03*
%TO.P,J10,5,Pin_5*%
%TO.N,/CPU& Bank Address Latching/A12*%
X191770000Y-126746000D03*
%TO.P,J10,6,Pin_6*%
%TO.N,/CPU& Bank Address Latching/A13*%
X189230000Y-126746000D03*
%TO.P,J10,7,Pin_7*%
%TO.N,/CPU& Bank Address Latching/A14*%
X186690000Y-126746000D03*
%TO.P,J10,8,Pin_8*%
%TO.N,/CPU& Bank Address Latching/A15*%
X184150000Y-126746000D03*
%TD*%
D22*
%TO.P,SW1,1,1*%
%TO.N,GND*%
X174550000Y-43470000D03*
%TO.P,SW1,2,2*%
%TO.N,/CPU& Bank Address Latching/~{RES_BTN}*%
X181050000Y-43470000D03*
%TO.P,SW1,3*%
%TO.N,N/C*%
X174550000Y-47970000D03*
%TO.P,SW1,4*%
X181050000Y-47970000D03*
%TD*%
D23*
%TO.P,J3,1,Pin_1*%
%TO.N,+5V*%
X84582000Y-45974000D03*
D24*
%TO.P,J3,2,Pin_2*%
%TO.N,GND*%
X87082000Y-45974000D03*
%TD*%
D12*
%TO.P,U7,1,A18*%
%TO.N,/CPU& Bank Address Latching/A18*%
X193802000Y-95641000D03*
D16*
%TO.P,U7,2,A16*%
%TO.N,/CPU& Bank Address Latching/A16*%
X196342000Y-95641000D03*
%TO.P,U7,3,A14*%
%TO.N,/CPU& Bank Address Latching/A14*%
X198882000Y-95641000D03*
%TO.P,U7,4,A12*%
%TO.N,/CPU& Bank Address Latching/A12*%
X201422000Y-95641000D03*
%TO.P,U7,5,A7*%
%TO.N,/CPU& Bank Address Latching/A7*%
X203962000Y-95641000D03*
%TO.P,U7,6,A6*%
%TO.N,/CPU& Bank Address Latching/A6*%
X206502000Y-95641000D03*
%TO.P,U7,7,A5*%
%TO.N,/CPU& Bank Address Latching/A5*%
X209042000Y-95641000D03*
%TO.P,U7,8,A4*%
%TO.N,/CPU& Bank Address Latching/A4*%
X211582000Y-95641000D03*
%TO.P,U7,9,A3*%
%TO.N,/CPU& Bank Address Latching/A3*%
X214122000Y-95641000D03*
%TO.P,U7,10,A2*%
%TO.N,/CPU& Bank Address Latching/A2*%
X216662000Y-95641000D03*
%TO.P,U7,11,A1*%
%TO.N,/CPU& Bank Address Latching/A1*%
X219202000Y-95641000D03*
%TO.P,U7,12,A0*%
%TO.N,/CPU& Bank Address Latching/A0*%
X221742000Y-95641000D03*
%TO.P,U7,13,DQ0*%
%TO.N,/CPU& Bank Address Latching/D0*%
X224282000Y-95641000D03*
%TO.P,U7,14,DQ1*%
%TO.N,/CPU& Bank Address Latching/D1*%
X226822000Y-95641000D03*
%TO.P,U7,15,DQ2*%
%TO.N,/CPU& Bank Address Latching/D2*%
X229362000Y-95641000D03*
%TO.P,U7,16,VSS*%
%TO.N,GND*%
X231902000Y-95641000D03*
%TO.P,U7,17,DQ3*%
%TO.N,/CPU& Bank Address Latching/D3*%
X231902000Y-80401000D03*
%TO.P,U7,18,DQ4*%
%TO.N,/CPU& Bank Address Latching/D4*%
X229362000Y-80401000D03*
%TO.P,U7,19,DQ5*%
%TO.N,/CPU& Bank Address Latching/D5*%
X226822000Y-80401000D03*
%TO.P,U7,20,DQ6*%
%TO.N,/CPU& Bank Address Latching/D6*%
X224282000Y-80401000D03*
%TO.P,U7,21,DQ7*%
%TO.N,/CPU& Bank Address Latching/D7*%
X221742000Y-80401000D03*
%TO.P,U7,22,~{CE}*%
%TO.N,/Memory/~{RAM0CS}*%
X219202000Y-80401000D03*
%TO.P,U7,23,A10*%
%TO.N,/CPU& Bank Address Latching/A10*%
X216662000Y-80401000D03*
%TO.P,U7,24,~{OE}*%
%TO.N,/Memory/~{RD}*%
X214122000Y-80401000D03*
%TO.P,U7,25,A11*%
%TO.N,/CPU& Bank Address Latching/A11*%
X211582000Y-80401000D03*
%TO.P,U7,26,A9*%
%TO.N,/CPU& Bank Address Latching/A9*%
X209042000Y-80401000D03*
%TO.P,U7,27,A8*%
%TO.N,/CPU& Bank Address Latching/A8*%
X206502000Y-80401000D03*
%TO.P,U7,28,A13*%
%TO.N,/CPU& Bank Address Latching/A13*%
X203962000Y-80401000D03*
%TO.P,U7,29,~{WE}*%
%TO.N,/Memory/~{WR}*%
X201422000Y-80401000D03*
%TO.P,U7,30,A17*%
%TO.N,/CPU& Bank Address Latching/A17*%
X198882000Y-80401000D03*
%TO.P,U7,31,A15*%
%TO.N,/CPU& Bank Address Latching/A15*%
X196342000Y-80401000D03*
%TO.P,U7,32,VCC*%
%TO.N,+5V*%
X193802000Y-80401000D03*
%TD*%
D14*
%TO.P,J17,1,Pin_1*%
%TO.N,/Memory/S1*%
X80772000Y-71882000D03*
D15*
%TO.P,J17,2,Pin_2*%
%TO.N,/Memory/S2*%
X78232000Y-71882000D03*
%TO.P,J17,3,Pin_3*%
%TO.N,/Memory/S3*%
X75692000Y-71882000D03*
%TO.P,J17,4,Pin_4*%
%TO.N,/Memory/S4*%
X73152000Y-71882000D03*
%TD*%
D14*
%TO.P,J13,1,Pin_1*%
%TO.N,/CPU& Bank Address Latching/MX*%
X135128000Y-69342000D03*
D15*
%TO.P,J13,2,Pin_2*%
%TO.N,/CPU& Bank Address Latching/~{ML}*%
X135128000Y-66802000D03*
%TO.P,J13,3,Pin_3*%
%TO.N,/CPU& Bank Address Latching/EMU*%
X135128000Y-64262000D03*
%TO.P,J13,4,Pin_4*%
%TO.N,/CPU& Bank Address Latching/VDA*%
X135128000Y-61722000D03*
%TO.P,J13,5,Pin_5*%
%TO.N,/CPU& Bank Address Latching/VPA*%
X135128000Y-59182000D03*
%TO.P,J13,6,Pin_6*%
%TO.N,/CPU& Bank Address Latching/~{RW}*%
X135128000Y-56642000D03*
%TD*%
D14*
%TO.P,JP4,1,A*%
%TO.N,/CPU& Bank Address Latching/~{IRQ}*%
X106807000Y-92379000D03*
D15*
%TO.P,JP4,2,B*%
%TO.N,+5V*%
X106807000Y-89839000D03*
%TD*%
D14*
%TO.P,J5,1,Pin_1*%
%TO.N,/IO/~{UART_DTRB}*%
X75570000Y-121920000D03*
D15*
%TO.P,J5,2,Pin_2*%
%TO.N,/IO/~{UART_DSRB}*%
X73030000Y-121920000D03*
%TO.P,J5,3,Pin_3*%
%TO.N,/IO/~{UART_OPB}*%
X75570000Y-119380000D03*
%TO.P,J5,4,Pin_4*%
%TO.N,/IO/~{UART_CTSB}*%
X73030000Y-119380000D03*
%TO.P,J5,5,Pin_5*%
%TO.N,/IO/~{UART_RIB}*%
X75570000Y-116840000D03*
%TO.P,J5,6,Pin_6*%
%TO.N,/IO/~{UART_CDB}*%
X73030000Y-116840000D03*
%TO.P,J5,7,Pin_7*%
%TO.N,/IO/~{UART_RXRDYB}*%
X75570000Y-114300000D03*
%TO.P,J5,8,Pin_8*%
%TO.N,/IO/UART_RXB*%
X73030000Y-114300000D03*
%TO.P,J5,9,Pin_9*%
%TO.N,/IO/~{UART_TXRDYB}*%
X75570000Y-111760000D03*
%TO.P,J5,10,Pin_10*%
%TO.N,/IO/UART_TXB*%
X73030000Y-111760000D03*
%TO.P,J5,11,Pin_11*%
%TO.N,/IO/~{UART_RTSB}*%
X75570000Y-109220000D03*
%TO.P,J5,12,Pin_12*%
%TO.N,GND*%
X73030000Y-109220000D03*
%TD*%
D12*
%TO.P,U10,1,~{R}*%
%TO.N,+5V*%
X105405000Y-64633000D03*
D16*
%TO.P,U10,2,D*%
%TO.N,/CPU& Bank Address Latching/CLK*%
X107945000Y-64633000D03*
%TO.P,U10,3,C*%
%TO.N,Net-(JP2-Pad2)*%
X110485000Y-64633000D03*
%TO.P,U10,4,~{S}*%
%TO.N,+5V*%
X113025000Y-64633000D03*
%TO.P,U10,5,Q*%
%TO.N,/CPU& Bank Address Latching/CLK*%
X115565000Y-64633000D03*
%TO.P,U10,6,~{Q}*%
%TO.N,/CPU& Bank Address Latching/CLK_INV*%
X118105000Y-64633000D03*
%TO.P,U10,7,GND*%
%TO.N,GND*%
X120645000Y-64633000D03*
%TO.P,U10,8,~{Q}*%
%TO.N,unconnected-(U10-Pad8)*%
X120645000Y-57013000D03*
%TO.P,U10,9,Q*%
%TO.N,unconnected-(U10-Pad9)*%
X118105000Y-57013000D03*
%TO.P,U10,10,~{S}*%
%TO.N,+5V*%
X115565000Y-57013000D03*
%TO.P,U10,11,C*%
X113025000Y-57013000D03*
%TO.P,U10,12,D*%
X110485000Y-57013000D03*
%TO.P,U10,13,~{R}*%
X107945000Y-57013000D03*
%TO.P,U10,14,VCC*%
X105405000Y-57013000D03*
%TD*%
D12*
%TO.P,U6,1,Clock*%
%TO.N,/CPU& Bank Address Latching/CLK*%
X78608000Y-83302000D03*
D16*
%TO.P,U6,2,RW*%
%TO.N,/CPU& Bank Address Latching/~{RW}*%
X81148000Y-83302000D03*
%TO.P,U6,3,VPA*%
%TO.N,/CPU& Bank Address Latching/VPA*%
X83688000Y-83302000D03*
%TO.P,U6,4,VDA*%
%TO.N,/CPU& Bank Address Latching/VDA*%
X86228000Y-83302000D03*
%TO.P,U6,5,A19*%
%TO.N,/CPU& Bank Address Latching/A19*%
X88768000Y-83302000D03*
%TO.P,U6,6,A18*%
%TO.N,/CPU& Bank Address Latching/A18*%
X91308000Y-83302000D03*
%TO.P,U6,7,A17*%
%TO.N,/CPU& Bank Address Latching/A17*%
X93848000Y-83302000D03*
%TO.P,U6,8,A16*%
%TO.N,/CPU& Bank Address Latching/A16*%
X96388000Y-83302000D03*
%TO.P,U6,9,A15*%
%TO.N,/CPU& Bank Address Latching/A15*%
X98928000Y-83302000D03*
%TO.P,U6,10,A14*%
%TO.N,/CPU& Bank Address Latching/A14*%
X101468000Y-83302000D03*
%TO.P,U6,11,A13*%
%TO.N,/CPU& Bank Address Latching/A13*%
X104008000Y-83302000D03*
%TO.P,U6,12,GND*%
%TO.N,GND*%
X106548000Y-83302000D03*
%TO.P,U6,13,S0*%
%TO.N,/Memory/S0*%
X106548000Y-75682000D03*
%TO.P,U6,14,~{RAM0}*%
%TO.N,/Memory/~{RAM0CS}*%
X104008000Y-75682000D03*
%TO.P,U6,15,~{RAM1}*%
%TO.N,/Memory/~{RAM1CS}*%
X101468000Y-75682000D03*
%TO.P,U6,16,~{ROM}*%
%TO.N,/Memory/~{ROMCS}*%
X98928000Y-75682000D03*
%TO.P,U6,17,~{IO}*%
%TO.N,/IO/~{IOCS}*%
X96388000Y-75682000D03*
%TO.P,U6,18,~{RD}*%
%TO.N,/Memory/~{RD}*%
X93848000Y-75682000D03*
%TO.P,U6,19,~{WR}*%
%TO.N,/Memory/~{WR}*%
X91308000Y-75682000D03*
%TO.P,U6,20,S1*%
%TO.N,/Memory/S1*%
X88768000Y-75682000D03*
%TO.P,U6,21,S2*%
%TO.N,/Memory/S2*%
X86228000Y-75682000D03*
%TO.P,U6,22,S3*%
%TO.N,/Memory/S3*%
X83688000Y-75682000D03*
%TO.P,U6,23,S4*%
%TO.N,/Memory/S4*%
X81148000Y-75682000D03*
%TO.P,U6,24,VCC*%
%TO.N,+5V*%
X78608000Y-75682000D03*
%TD*%
D25*
%TO.P,C16,1*%
%TO.N,+5V*%
X130683000Y-125857000D03*
D26*
%TO.P,C16,2*%
%TO.N,GND*%
X132183000Y-125857000D03*
%TD*%
D14*
%TO.P,J16,1,Pin_1*%
%TO.N,/Memory/~{RAM0CS}*%
X98298000Y-72136000D03*
D15*
%TO.P,J16,2,Pin_2*%
%TO.N,/Memory/~{RAM1CS}*%
X95758000Y-72136000D03*
%TO.P,J16,3,Pin_3*%
%TO.N,/Memory/~{ROMCS}*%
X93218000Y-72136000D03*
%TO.P,J16,4,Pin_4*%
%TO.N,/IO/~{IOCS}*%
X90678000Y-72136000D03*
%TO.P,J16,5,Pin_5*%
%TO.N,/Memory/~{RD}*%
X88138000Y-72136000D03*
%TO.P,J16,6,Pin_6*%
%TO.N,/Memory/~{WR}*%
X85598000Y-72136000D03*
%TD*%
D19*
%TO.P,TP9,1,1*%
%TO.N,GND*%
X118110000Y-99314000D03*
%TD*%
D14*
%TO.P,J2,1,Pin_1*%
%TO.N,/CPU& Bank Address Latching/~{RES_BTN}*%
X94483000Y-44450000D03*
D15*
%TO.P,J2,2,Pin_2*%
%TO.N,GND*%
X97023000Y-44450000D03*
%TD*%
D12*
%TO.P,U4,1,~{VP}*%
%TO.N,/CPU& Bank Address Latching/~{VP}*%
X129540000Y-93345000D03*
D16*
%TO.P,U4,2,RDY*%
%TO.N,/CPU& Bank Address Latching/RDY*%
X132080000Y-93345000D03*
%TO.P,U4,3,~{ABORT}*%
%TO.N,/CPU& Bank Address Latching/~{ABORT}*%
X134620000Y-93345000D03*
%TO.P,U4,4,~{IRQ}*%
%TO.N,/CPU& Bank Address Latching/~{IRQ}*%
X137160000Y-93345000D03*
%TO.P,U4,5,~{ML}*%
%TO.N,/CPU& Bank Address Latching/~{ML}*%
X139700000Y-93345000D03*
%TO.P,U4,6,~{NMI}*%
%TO.N,/CPU& Bank Address Latching/~{NMI}*%
X142240000Y-93345000D03*
%TO.P,U4,7,VPA*%
%TO.N,/CPU& Bank Address Latching/VPA*%
X144780000Y-93345000D03*
%TO.P,U4,8,VDD*%
%TO.N,+5V*%
X147320000Y-93345000D03*
%TO.P,U4,9,A0*%
%TO.N,/CPU& Bank Address Latching/A0*%
X149860000Y-93345000D03*
%TO.P,U4,10,A1*%
%TO.N,/CPU& Bank Address Latching/A1*%
X152400000Y-93345000D03*
%TO.P,U4,11,A2*%
%TO.N,/CPU& Bank Address Latching/A2*%
X154940000Y-93345000D03*
%TO.P,U4,12,A3*%
%TO.N,/CPU& Bank Address Latching/A3*%
X157480000Y-93345000D03*
%TO.P,U4,13,A4*%
%TO.N,/CPU& Bank Address Latching/A4*%
X160020000Y-93345000D03*
%TO.P,U4,14,A5*%
%TO.N,/CPU& Bank Address Latching/A5*%
X162560000Y-93345000D03*
%TO.P,U4,15,A6*%
%TO.N,/CPU& Bank Address Latching/A6*%
X165100000Y-93345000D03*
%TO.P,U4,16,A7*%
%TO.N,/CPU& Bank Address Latching/A7*%
X167640000Y-93345000D03*
%TO.P,U4,17,A8*%
%TO.N,/CPU& Bank Address Latching/A8*%
X170180000Y-93345000D03*
%TO.P,U4,18,A9*%
%TO.N,/CPU& Bank Address Latching/A9*%
X172720000Y-93345000D03*
%TO.P,U4,19,A10*%
%TO.N,/CPU& Bank Address Latching/A10*%
X175260000Y-93345000D03*
%TO.P,U4,20,A11*%
%TO.N,/CPU& Bank Address Latching/A11*%
X177800000Y-93345000D03*
%TO.P,U4,21,VSS*%
%TO.N,GND*%
X177800000Y-78105000D03*
%TO.P,U4,22,A12*%
%TO.N,/CPU& Bank Address Latching/A12*%
X175260000Y-78105000D03*
%TO.P,U4,23,A13*%
%TO.N,/CPU& Bank Address Latching/A13*%
X172720000Y-78105000D03*
%TO.P,U4,24,A14*%
%TO.N,/CPU& Bank Address Latching/A14*%
X170180000Y-78105000D03*
%TO.P,U4,25,A15*%
%TO.N,/CPU& Bank Address Latching/A15*%
X167640000Y-78105000D03*
%TO.P,U4,26,D7*%
%TO.N,/CPU& Bank Address Latching/DB7*%
X165100000Y-78105000D03*
%TO.P,U4,27,D6*%
%TO.N,/CPU& Bank Address Latching/DB6*%
X162560000Y-78105000D03*
%TO.P,U4,28,D5*%
%TO.N,/CPU& Bank Address Latching/DB5*%
X160020000Y-78105000D03*
%TO.P,U4,29,D4*%
%TO.N,/CPU& Bank Address Latching/DB4*%
X157480000Y-78105000D03*
%TO.P,U4,30,D3*%
%TO.N,/CPU& Bank Address Latching/DB3*%
X154940000Y-78105000D03*
%TO.P,U4,31,D2*%
%TO.N,/CPU& Bank Address Latching/DB2*%
X152400000Y-78105000D03*
%TO.P,U4,32,D1*%
%TO.N,/CPU& Bank Address Latching/DB1*%
X149860000Y-78105000D03*
%TO.P,U4,33,D0*%
%TO.N,/CPU& Bank Address Latching/DB0*%
X147320000Y-78105000D03*
%TO.P,U4,34,~{RW}*%
%TO.N,/CPU& Bank Address Latching/~{RW}*%
X144780000Y-78105000D03*
%TO.P,U4,35,E*%
%TO.N,/CPU& Bank Address Latching/EMU*%
X142240000Y-78105000D03*
%TO.P,U4,36,BE*%
%TO.N,/CPU& Bank Address Latching/BE*%
X139700000Y-78105000D03*
%TO.P,U4,37,PHI2*%
%TO.N,/CPU& Bank Address Latching/CLK*%
X137160000Y-78105000D03*
%TO.P,U4,38,MX*%
%TO.N,/CPU& Bank Address Latching/MX*%
X134620000Y-78105000D03*
%TO.P,U4,39,VDA*%
%TO.N,/CPU& Bank Address Latching/VDA*%
X132080000Y-78105000D03*
%TO.P,U4,40,~{RES}*%
%TO.N,/CPU& Bank Address Latching/~{RES}*%
X129540000Y-78105000D03*
%TD*%
D14*
%TO.P,J4,1,Pin_1*%
%TO.N,/IO/~{UART_DTRA}*%
X101600000Y-132842000D03*
D15*
%TO.P,J4,2,Pin_2*%
%TO.N,/IO/~{UART_DSRA}*%
X101600000Y-135382000D03*
%TO.P,J4,3,Pin_3*%
%TO.N,/IO/~{UART_OPA}*%
X99060000Y-132842000D03*
%TO.P,J4,4,Pin_4*%
%TO.N,/IO/~{UART_CTSA}*%
X99060000Y-135382000D03*
%TO.P,J4,5,Pin_5*%
%TO.N,/IO/~{UART_RIA}*%
X96520000Y-132842000D03*
%TO.P,J4,6,Pin_6*%
%TO.N,/IO/~{UART_CDA}*%
X96520000Y-135382000D03*
%TO.P,J4,7,Pin_7*%
%TO.N,/IO/~{UART_RXRDYA}*%
X93980000Y-132842000D03*
%TO.P,J4,8,Pin_8*%
%TO.N,/IO/UART_RXA*%
X93980000Y-135382000D03*
%TO.P,J4,9,Pin_9*%
%TO.N,/IO/~{UART_TXRDYA}*%
X91440000Y-132842000D03*
%TO.P,J4,10,Pin_10*%
%TO.N,/IO/UART_TXA*%
X91440000Y-135382000D03*
%TO.P,J4,11,Pin_11*%
%TO.N,/IO/~{UART_RTSA}*%
X88900000Y-132842000D03*
%TO.P,J4,12,Pin_12*%
%TO.N,GND*%
X88900000Y-135382000D03*
%TD*%
D12*
%TO.P,U3,1,OE*%
%TO.N,GND*%
X143510000Y-58420000D03*
D16*
%TO.P,U3,2,D0*%
%TO.N,/CPU& Bank Address Latching/DB0*%
X146050000Y-58420000D03*
%TO.P,U3,3,D1*%
%TO.N,/CPU& Bank Address Latching/DB1*%
X148590000Y-58420000D03*
%TO.P,U3,4,D2*%
%TO.N,/CPU& Bank Address Latching/DB2*%
X151130000Y-58420000D03*
%TO.P,U3,5,D3*%
%TO.N,/CPU& Bank Address Latching/DB3*%
X153670000Y-58420000D03*
%TO.P,U3,6,D4*%
%TO.N,/CPU& Bank Address Latching/DB4*%
X156210000Y-58420000D03*
%TO.P,U3,7,D5*%
%TO.N,/CPU& Bank Address Latching/DB5*%
X158750000Y-58420000D03*
%TO.P,U3,8,D6*%
%TO.N,/CPU& Bank Address Latching/DB6*%
X161290000Y-58420000D03*
%TO.P,U3,9,D7*%
%TO.N,/CPU& Bank Address Latching/DB7*%
X163830000Y-58420000D03*
%TO.P,U3,10,GND*%
%TO.N,GND*%
X166370000Y-58420000D03*
%TO.P,U3,11,Load*%
%TO.N,/CPU& Bank Address Latching/CLK_INV*%
X166370000Y-50800000D03*
%TO.P,U3,12,Q7*%
%TO.N,unconnected-(U3-Pad12)*%
X163830000Y-50800000D03*
%TO.P,U3,13,Q6*%
%TO.N,unconnected-(U3-Pad13)*%
X161290000Y-50800000D03*
%TO.P,U3,14,Q5*%
%TO.N,unconnected-(U3-Pad14)*%
X158750000Y-50800000D03*
%TO.P,U3,15,Q4*%
%TO.N,unconnected-(U3-Pad15)*%
X156210000Y-50800000D03*
%TO.P,U3,16,Q3*%
%TO.N,/CPU& Bank Address Latching/A19*%
X153670000Y-50800000D03*
%TO.P,U3,17,Q2*%
%TO.N,/CPU& Bank Address Latching/A18*%
X151130000Y-50800000D03*
%TO.P,U3,18,Q1*%
%TO.N,/CPU& Bank Address Latching/A17*%
X148590000Y-50800000D03*
%TO.P,U3,19,Q0*%
%TO.N,/CPU& Bank Address Latching/A16*%
X146050000Y-50800000D03*
%TO.P,U3,20,VCC*%
%TO.N,+5V*%
X143510000Y-50800000D03*
%TD*%
D19*
%TO.P,TP4,1,1*%
%TO.N,/CPU& Bank Address Latching/~{RES}*%
X113030000Y-99060000D03*
%TD*%
D14*
%TO.P,JP1,1,A*%
%TO.N,/IO/VIA_PB7*%
X125730000Y-119507000D03*
D15*
%TO.P,JP1,2,B*%
%TO.N,/IO/SPEAKER*%
X123190000Y-119507000D03*
%TD*%
D19*
%TO.P,TP6,1,1*%
%TO.N,/CPU& Bank Address Latching/~{NMI}*%
X183134000Y-104521000D03*
%TD*%
D14*
%TO.P,J18,1,Pin_1*%
%TO.N,GND*%
X111500600Y-125984400D03*
D15*
%TO.P,J18,2,Pin_2*%
%TO.N,unconnected-(J18-Pad2)*%
X114040600Y-125984400D03*
%TO.P,J18,3,Pin_3*%
%TO.N,/IO/VIA_PA0*%
X116580600Y-125984400D03*
%TO.P,J18,4,Pin_4*%
%TO.N,/IO/VIA_PA1*%
X119120600Y-125984400D03*
%TO.P,J18,5,Pin_5*%
%TO.N,/IO/VIA_PA2*%
X121660600Y-125984400D03*
%TO.P,J18,6,Pin_6*%
%TO.N,/IO/VIA_PA3*%
X124200600Y-125984400D03*
%TO.P,J18,7,Pin_7*%
%TO.N,+5V*%
X126740600Y-125984400D03*
%TD*%
D14*
%TO.P,J1,1,Pin_1*%
%TO.N,+5V*%
X104516000Y-44450000D03*
D15*
%TO.P,J1,2,Pin_2*%
%TO.N,Net-(J1-Pad2)*%
X107056000Y-44450000D03*
%TD*%
D19*
%TO.P,TP5,1,1*%
%TO.N,/CPU& Bank Address Latching/~{IRQ}*%
X108204000Y-99060000D03*
%TD*%
%TO.P,TP1,1,1*%
%TO.N,/CPU& Bank Address Latching/CLK*%
X119380000Y-72390000D03*
%TD*%
D14*
%TO.P,J12,1,Pin_1*%
%TO.N,/IO/~{IO0}*%
X80787000Y-89154000D03*
D15*
%TO.P,J12,2,Pin_2*%
%TO.N,/IO/~{IO1}*%
X83327000Y-89154000D03*
%TO.P,J12,3,Pin_3*%
%TO.N,/IO/~{IO2}*%
X85867000Y-89154000D03*
%TO.P,J12,4,Pin_4*%
%TO.N,/IO/~{IO3}*%
X88407000Y-89154000D03*
%TO.P,J12,5,Pin_5*%
%TO.N,/IO/~{IO4}*%
X90947000Y-89154000D03*
%TO.P,J12,6,Pin_6*%
%TO.N,/IO/~{IO5}*%
X93487000Y-89154000D03*
%TO.P,J12,7,Pin_7*%
%TO.N,/IO/~{IO6}*%
X96027000Y-89154000D03*
%TO.P,J12,8,Pin_8*%
%TO.N,/IO/~{IO7}*%
X98567000Y-89154000D03*
%TD*%
D12*
%TO.P,C15,1*%
%TO.N,+5V*%
X126071621Y-44958000D03*
D13*
%TO.P,C15,2*%
%TO.N,GND*%
X128571621Y-44958000D03*
%TD*%
D12*
%TO.P,U2,1,A->B*%
%TO.N,/CPU& Bank Address Latching/~{RW}*%
X143637000Y-72131000D03*
D16*
%TO.P,U2,2,A0*%
%TO.N,/CPU& Bank Address Latching/D0*%
X146177000Y-72131000D03*
%TO.P,U2,3,A1*%
%TO.N,/CPU& Bank Address Latching/D1*%
X148717000Y-72131000D03*
%TO.P,U2,4,A2*%
%TO.N,/CPU& Bank Address Latching/D2*%
X151257000Y-72131000D03*
%TO.P,U2,5,A3*%
%TO.N,/CPU& Bank Address Latching/D3*%
X153797000Y-72131000D03*
%TO.P,U2,6,A4*%
%TO.N,/CPU& Bank Address Latching/D4*%
X156337000Y-72131000D03*
%TO.P,U2,7,A5*%
%TO.N,/CPU& Bank Address Latching/D5*%
X158877000Y-72131000D03*
%TO.P,U2,8,A6*%
%TO.N,/CPU& Bank Address Latching/D6*%
X161417000Y-72131000D03*
%TO.P,U2,9,A7*%
%TO.N,/CPU& Bank Address Latching/D7*%
X163957000Y-72131000D03*
%TO.P,U2,10,GND*%
%TO.N,GND*%
X166497000Y-72131000D03*
%TO.P,U2,11,B7*%
%TO.N,/CPU& Bank Address Latching/DB7*%
X166497000Y-64511000D03*
%TO.P,U2,12,B6*%
%TO.N,/CPU& Bank Address Latching/DB6*%
X163957000Y-64511000D03*
%TO.P,U2,13,B5*%
%TO.N,/CPU& Bank Address Latching/DB5*%
X161417000Y-64511000D03*
%TO.P,U2,14,B4*%
%TO.N,/CPU& Bank Address Latching/DB4*%
X158877000Y-64511000D03*
%TO.P,U2,15,B3*%
%TO.N,/CPU& Bank Address Latching/DB3*%
X156337000Y-64511000D03*
%TO.P,U2,16,B2*%
%TO.N,/CPU& Bank Address Latching/DB2*%
X153797000Y-64511000D03*
%TO.P,U2,17,B1*%
%TO.N,/CPU& Bank Address Latching/DB1*%
X151257000Y-64511000D03*
%TO.P,U2,18,B0*%
%TO.N,/CPU& Bank Address Latching/DB0*%
X148717000Y-64511000D03*
%TO.P,U2,19,CE*%
%TO.N,/CPU& Bank Address Latching/CLK_INV*%
X146177000Y-64511000D03*
%TO.P,U2,20,VCC*%
%TO.N,+5V*%
X143637000Y-64511000D03*
%TD*%
D19*
%TO.P,TP2,1,1*%
%TO.N,Net-(JP2-Pad3)*%
X113919000Y-50546000D03*
%TD*%
D14*
%TO.P,J15,1,Pin_1*%
%TO.N,/IO/UART_INTA*%
X80391000Y-135387000D03*
D15*
%TO.P,J15,2,Pin_2*%
%TO.N,/IO/UART_INTB*%
X80391000Y-132847000D03*
%TO.P,J15,3,Pin_3*%
%TO.N,/CPU& Bank Address Latching/RES*%
X80391000Y-130307000D03*
%TD*%
D14*
%TO.P,J7,1,Pin_1*%
%TO.N,+5V*%
X162241609Y-134946609D03*
D15*
%TO.P,J7,2,Pin_2*%
%TO.N,GND*%
X162241609Y-132406609D03*
%TO.P,J7,3,Pin_3*%
%TO.N,/IO/VIA_CB1*%
X164781609Y-134946609D03*
%TO.P,J7,4,Pin_4*%
%TO.N,/IO/VIA_CB2*%
X164781609Y-132406609D03*
%TO.P,J7,5,Pin_5*%
%TO.N,/IO/VIA_PB0*%
X167321609Y-134946609D03*
%TO.P,J7,6,Pin_6*%
%TO.N,/IO/VIA_PB1*%
X167321609Y-132406609D03*
%TO.P,J7,7,Pin_7*%
%TO.N,/IO/VIA_PB2*%
X169861609Y-134946609D03*
%TO.P,J7,8,Pin_8*%
%TO.N,/IO/VIA_PB3*%
X169861609Y-132406609D03*
%TO.P,J7,9,Pin_9*%
%TO.N,/IO/VIA_PB4*%
X172401609Y-134946609D03*
%TO.P,J7,10,Pin_10*%
%TO.N,/IO/VIA_PB5*%
X172401609Y-132406609D03*
%TO.P,J7,11,Pin_11*%
%TO.N,/IO/VIA_PB6*%
X174941609Y-134946609D03*
%TO.P,J7,12,Pin_12*%
%TO.N,/IO/VIA_PB7*%
X174941609Y-132406609D03*
%TD*%
D19*
%TO.P,TP10,1,1*%
%TO.N,GND*%
X182245000Y-79375000D03*
%TD*%
D14*
%TO.P,JP2,1,A*%
%TO.N,/CPU& Bank Address Latching/CLK_UART*%
X120015000Y-44450000D03*
D15*
%TO.P,JP2,2,C*%
%TO.N,Net-(JP2-Pad2)*%
X117475000Y-44450000D03*
%TO.P,JP2,3,B*%
%TO.N,Net-(JP2-Pad3)*%
X114935000Y-44450000D03*
%TD*%
D14*
%TO.P,J11,1,Pin_1*%
%TO.N,/CPU& Bank Address Latching/A16*%
X146060000Y-44450000D03*
D15*
%TO.P,J11,2,Pin_2*%
%TO.N,/CPU& Bank Address Latching/A17*%
X148600000Y-44450000D03*
%TO.P,J11,3,Pin_3*%
%TO.N,/CPU& Bank Address Latching/A18*%
X151140000Y-44450000D03*
%TO.P,J11,4,Pin_4*%
%TO.N,/CPU& Bank Address Latching/A19*%
X153680000Y-44450000D03*
%TD*%
D14*
%TO.P,J8,1,Pin_1*%
%TO.N,/CPU& Bank Address Latching/A0*%
X201930000Y-133604000D03*
D15*
%TO.P,J8,2,Pin_2*%
%TO.N,/CPU& Bank Address Latching/A1*%
X199390000Y-133604000D03*
%TO.P,J8,3,Pin_3*%
%TO.N,/CPU& Bank Address Latching/A2*%
X196850000Y-133604000D03*
%TO.P,J8,4,Pin_4*%
%TO.N,/CPU& Bank Address Latching/A3*%
X194310000Y-133604000D03*
%TO.P,J8,5,Pin_5*%
%TO.N,/CPU& Bank Address Latching/A4*%
X191770000Y-133604000D03*
%TO.P,J8,6,Pin_6*%
%TO.N,/CPU& Bank Address Latching/A5*%
X189230000Y-133604000D03*
%TO.P,J8,7,Pin_7*%
%TO.N,/CPU& Bank Address Latching/A6*%
X186690000Y-133604000D03*
%TO.P,J8,8,Pin_8*%
%TO.N,/CPU& Bank Address Latching/A7*%
X184150000Y-133604000D03*
%TD*%
D12*
%TO.P,U8,1,A18*%
%TO.N,/CPU& Bank Address Latching/A18*%
X193802000Y-120401000D03*
D16*
%TO.P,U8,2,A16*%
%TO.N,/CPU& Bank Address Latching/A16*%
X196342000Y-120401000D03*
%TO.P,U8,3,A14*%
%TO.N,/CPU& Bank Address Latching/A14*%
X198882000Y-120401000D03*
%TO.P,U8,4,A12*%
%TO.N,/CPU& Bank Address Latching/A12*%
X201422000Y-120401000D03*
%TO.P,U8,5,A7*%
%TO.N,/CPU& Bank Address Latching/A7*%
X203962000Y-120401000D03*
%TO.P,U8,6,A6*%
%TO.N,/CPU& Bank Address Latching/A6*%
X206502000Y-120401000D03*
%TO.P,U8,7,A5*%
%TO.N,/CPU& Bank Address Latching/A5*%
X209042000Y-120401000D03*
%TO.P,U8,8,A4*%
%TO.N,/CPU& Bank Address Latching/A4*%
X211582000Y-120401000D03*
%TO.P,U8,9,A3*%
%TO.N,/CPU& Bank Address Latching/A3*%
X214122000Y-120401000D03*
%TO.P,U8,10,A2*%
%TO.N,/CPU& Bank Address Latching/A2*%
X216662000Y-120401000D03*
%TO.P,U8,11,A1*%
%TO.N,/CPU& Bank Address Latching/A1*%
X219202000Y-120401000D03*
%TO.P,U8,12,A0*%
%TO.N,/CPU& Bank Address Latching/A0*%
X221742000Y-120401000D03*
%TO.P,U8,13,DQ0*%
%TO.N,/CPU& Bank Address Latching/D0*%
X224282000Y-120401000D03*
%TO.P,U8,14,DQ1*%
%TO.N,/CPU& Bank Address Latching/D1*%
X226822000Y-120401000D03*
%TO.P,U8,15,DQ2*%
%TO.N,/CPU& Bank Address Latching/D2*%
X229362000Y-120401000D03*
%TO.P,U8,16,VSS*%
%TO.N,GND*%
X231902000Y-120401000D03*
%TO.P,U8,17,DQ3*%
%TO.N,/CPU& Bank Address Latching/D3*%
X231902000Y-105161000D03*
%TO.P,U8,18,DQ4*%
%TO.N,/CPU& Bank Address Latching/D4*%
X229362000Y-105161000D03*
%TO.P,U8,19,DQ5*%
%TO.N,/CPU& Bank Address Latching/D5*%
X226822000Y-105161000D03*
%TO.P,U8,20,DQ6*%
%TO.N,/CPU& Bank Address Latching/D6*%
X224282000Y-105161000D03*
%TO.P,U8,21,DQ7*%
%TO.N,/CPU& Bank Address Latching/D7*%
X221742000Y-105161000D03*
%TO.P,U8,22,~{CE}*%
%TO.N,/Memory/~{RAM1CS}*%
X219202000Y-105161000D03*
%TO.P,U8,23,A10*%
%TO.N,/CPU& Bank Address Latching/A10*%
X216662000Y-105161000D03*
%TO.P,U8,24,~{OE}*%
%TO.N,/Memory/~{RD}*%
X214122000Y-105161000D03*
%TO.P,U8,25,A11*%
%TO.N,/CPU& Bank Address Latching/A11*%
X211582000Y-105161000D03*
%TO.P,U8,26,A9*%
%TO.N,/CPU& Bank Address Latching/A9*%
X209042000Y-105161000D03*
%TO.P,U8,27,A8*%
%TO.N,/CPU& Bank Address Latching/A8*%
X206502000Y-105161000D03*
%TO.P,U8,28,A13*%
%TO.N,/CPU& Bank Address Latching/A13*%
X203962000Y-105161000D03*
%TO.P,U8,29,~{WE}*%
%TO.N,/Memory/~{WR}*%
X201422000Y-105161000D03*
%TO.P,U8,30,A17*%
%TO.N,/CPU& Bank Address Latching/A17*%
X198882000Y-105161000D03*
%TO.P,U8,31,A15*%
%TO.N,/CPU& Bank Address Latching/A15*%
X196342000Y-105161000D03*
%TO.P,U8,32,VCC*%
%TO.N,+5V*%
X193802000Y-105161000D03*
%TD*%
D27*
%TO.P,U14,1,~{RESET}*%
%TO.N,/CPU& Bank Address Latching/~{RES_BTN}*%
X133223000Y-44577000D03*
D28*
%TO.P,U14,2,VCC*%
%TO.N,+5V*%
X134493000Y-44577000D03*
%TO.P,U14,3,GND*%
%TO.N,GND*%
X135763000Y-44577000D03*
%TD*%
D29*
%TO.N,+5V*%
X185420000Y-98044000D03*
X125730000Y-85725000D03*
X172085000Y-61595000D03*
X125730000Y-90805000D03*
X90424000Y-51308000D03*
X95250000Y-127000000D03*
X229108000Y-41656000D03*
X125730000Y-80645000D03*
X228092000Y-124968000D03*
%TO.N,GND*%
X96520000Y-127000000D03*
X70612000Y-51816000D03*
X135890000Y-51816000D03*
X146012500Y-95250000D03*
X100584000Y-48768000D03*
X74930000Y-80772000D03*
X172085000Y-63500000D03*
X109728000Y-53594000D03*
X196088000Y-100076000D03*
X85344000Y-52832000D03*
X194945000Y-64135000D03*
X178308000Y-127000000D03*
X204216000Y-51816000D03*
X76200000Y-87884000D03*
X94234000Y-106426000D03*
X193548000Y-82296000D03*
X102870000Y-47498000D03*
X141224000Y-66040000D03*
%TO.N,/CPU& Bank Address Latching/RES*%
X83820000Y-122174000D03*
X100838000Y-46482000D03*
X219202000Y-47498000D03*
%TO.N,/CPU& Bank Address Latching/CLK*%
X141356275Y-83778940D03*
X137058400Y-73189500D03*
%TO.N,/CPU& Bank Address Latching/~{RES}*%
X110306312Y-82366312D03*
X130302000Y-108204000D03*
%TO.N,/CPU& Bank Address Latching/~{RW}*%
X144780000Y-83312000D03*
X166370000Y-83566000D03*
%TO.N,/CPU& Bank Address Latching/D0*%
X223012000Y-110876000D03*
X110523020Y-111539020D03*
%TO.N,/CPU& Bank Address Latching/D1*%
X109816265Y-110832265D03*
X225552000Y-110241000D03*
%TO.N,/CPU& Bank Address Latching/D2*%
X228092000Y-109606000D03*
X109109510Y-110125510D03*
%TO.N,/CPU& Bank Address Latching/D3*%
X108402755Y-109418755D03*
%TO.N,/CPU& Bank Address Latching/D4*%
X107696000Y-108712000D03*
%TO.N,/CPU& Bank Address Latching/D5*%
X106878755Y-107894755D03*
%TO.N,/CPU& Bank Address Latching/D6*%
X106172000Y-107188000D03*
%TO.N,/CPU& Bank Address Latching/D7*%
X105465245Y-106481245D03*
%TO.N,/CPU& Bank Address Latching/~{NMI}*%
X166624000Y-82550000D03*
X142240000Y-86614000D03*
X142240000Y-83312000D03*
%TO.N,/CPU& Bank Address Latching/A0*%
X141679263Y-98178380D03*
X103124000Y-104261986D03*
%TO.N,/CPU& Bank Address Latching/A1*%
X103886000Y-105049990D03*
X142644545Y-98619854D03*
%TO.N,/CPU& Bank Address Latching/A2*%
X104758490Y-105774490D03*
X143533161Y-99077420D03*
%TO.N,/CPU& Bank Address Latching/A3*%
X144563500Y-99077420D03*
%TO.N,/CPU& Bank Address Latching/A8*%
X169672000Y-81788000D03*
%TO.N,/CPU& Bank Address Latching/A9*%
X170396500Y-83467271D03*
%TO.N,/CPU& Bank Address Latching/A10*%
X173228000Y-85127500D03*
%TO.N,/CPU& Bank Address Latching/A11*%
X172212000Y-84036500D03*
%TO.N,/CPU& Bank Address Latching/A12*%
X178524500Y-89957060D03*
%TO.N,/CPU& Bank Address Latching/A13*%
X174752000Y-82804000D03*
%TO.N,/CPU& Bank Address Latching/A14*%
X168947500Y-89957060D03*
%TO.N,/Memory/~{RAM0CS}*%
X130048000Y-61214000D03*
X131262755Y-51506755D03*
X220472000Y-68072000D03*
%TO.N,/Memory/~{RAM1CS}*%
X129794000Y-56896000D03*
X235208299Y-127258299D03*
X130556000Y-50800000D03*
%TO.N,/Memory/~{ROMCS}*%
X210878842Y-58605842D03*
X129540000Y-58674000D03*
X129069500Y-51943000D03*
X213995000Y-58420000D03*
%TO.N,/Memory/~{RD}*%
X92715017Y-106928983D03*
%TO.N,/Memory/~{WR}*%
X95954500Y-106231713D03*
%TO.N,/IO/~{IO2}*%
X97401706Y-105880500D03*
%TO.N,/IO/~{IO1}*%
X98483125Y-105986875D03*
%TO.N,/IO/~{IO0}*%
X131826000Y-108966000D03*
X125222000Y-107950000D03*
%TO.N,/IO/UART_TXA*%
X103532460Y-112776000D03*
%TO.N,/IO/~{UART_DTRB}*%
X82943700Y-122936000D03*
%TO.N,/IO/~{UART_OPB}*%
X78448500Y-110579500D03*
%TO.N,/IO/~{UART_RIB}*%
X81794094Y-110369094D03*
%TO.N,/IO/UART_RXB*%
X77954950Y-107935550D03*
%TO.N,/IO/~{UART_RTSB}*%
X83254953Y-109543953D03*
%TO.N,/CPU& Bank Address Latching/~{RES_BTN}*%
X131567342Y-41778342D03*
%TO.N,/CPU& Bank Address Latching/CLK_UART*%
X101346000Y-108966000D03*
%TO.N,/Memory/ROMSW0*%
X185821801Y-77160180D03*
X187452000Y-77216000D03*
%TO.N,/IO/UART_RXA*%
X103611020Y-115316000D03*
%TO.N,/CPU& Bank Address Latching/VPA*%
X140716000Y-73914000D03*
%TO.N,/CPU& Bank Address Latching/VDA*%
X130937000Y-74167989D03*
%TD*%
D30*
%TO.N,/CPU& Bank Address Latching/RES*%
X85344000Y-120650000D02*
X83820000Y-122174000D01*
X84114160Y-105704160D02*
X85344000Y-106934000D01*
X85344000Y-106934000D02*
X85344000Y-120650000D01*
X154110197Y-41714480D02*
X132655802Y-41714480D01*
X158154118Y-45758400D02*
X154110197Y-41714480D01*
X168189271Y-45758400D02*
X158154118Y-45758400D01*
X131267239Y-42502853D02*
X130420386Y-41656000D01*
X100838000Y-43942000D02*
X100838000Y-46482000D01*
X83049386Y-54102000D02*
X70866000Y-54102000D01*
X219202000Y-47498000D02*
X217406591Y-49293409D01*
X90669386Y-46482000D02*
X83049386Y-54102000D01*
X70866000Y-54102000D02*
X70670480Y-54297520D01*
X172723783Y-50292911D02*
X168189271Y-45758400D01*
X83820000Y-122174000D02*
X83820000Y-126878000D01*
X100838000Y-46482000D02*
X90669386Y-46482000D01*
X131867429Y-42502853D02*
X131267239Y-42502853D01*
X103124000Y-41656000D02*
X100838000Y-43942000D01*
X132655802Y-41714480D02*
X131867429Y-42502853D01*
X70670480Y-99376786D02*
X76997853Y-105704160D01*
X83820000Y-126878000D02*
X80391000Y-130307000D01*
X76997853Y-105704160D02*
X84114160Y-105704160D01*
X203171106Y-49293409D02*
X202171604Y-50292911D01*
X217406591Y-49293409D02*
X203171106Y-49293409D01*
X70670480Y-54297520D02*
X70670480Y-99376786D01*
X130420386Y-41656000D02*
X103124000Y-41656000D01*
X202171604Y-50292911D02*
X172723783Y-50292911D01*
%TO.N,/CPU& Bank Address Latching/CLK*%
X132588000Y-70866000D02*
X134874000Y-70866000D01*
X107945000Y-64633000D02*
X110114000Y-66802000D01*
X137058400Y-73050400D02*
X137058400Y-73189500D01*
X127733833Y-72544449D02*
X136413349Y-72544449D01*
X120142000Y-71628000D02*
X119380000Y-72390000D01*
X131826000Y-70104000D02*
X132588000Y-70866000D01*
X78608000Y-83302000D02*
X82174080Y-79735920D01*
X134874000Y-70866000D02*
X137058400Y-73050400D01*
X120142000Y-70104000D02*
X131826000Y-70104000D01*
X115570000Y-66802000D02*
X115824000Y-67056000D01*
X110114000Y-66802000D02*
X115570000Y-66802000D01*
X115565000Y-64633000D02*
X115565000Y-66797000D01*
X115565000Y-66797000D02*
X115824000Y-67056000D01*
X118872000Y-70104000D02*
X120142000Y-70104000D01*
X115824000Y-67056000D02*
X118872000Y-70104000D01*
X137160000Y-79582665D02*
X141356275Y-83778940D01*
X126051802Y-74226480D02*
X127733833Y-72544449D01*
X136413349Y-72544449D02*
X137058400Y-73189500D01*
X120142000Y-70104000D02*
X120142000Y-71628000D01*
X137160000Y-78105000D02*
X137160000Y-79582665D01*
X112971521Y-74226480D02*
X126051802Y-74226480D01*
X107462081Y-79735920D02*
X112971521Y-74226480D01*
X82174080Y-79735920D02*
X107462081Y-79735920D01*
%TO.N,/CPU& Bank Address Latching/CLK_INV*%
X144404000Y-62738000D02*
X137160000Y-62738000D01*
X137160000Y-62738000D02*
X136906000Y-62992000D01*
X146177000Y-64511000D02*
X144404000Y-62738000D01*
X136906000Y-62992000D02*
X119746000Y-62992000D01*
X119746000Y-62992000D02*
X118105000Y-64633000D01*
%TO.N,/CPU& Bank Address Latching/~{RES}*%
X141229000Y-108204000D02*
X144907000Y-104526000D01*
X128066591Y-77919520D02*
X128252071Y-78105000D01*
X130302000Y-108204000D02*
X141229000Y-108204000D01*
X128252071Y-78105000D02*
X129540000Y-78105000D01*
X114364225Y-77919520D02*
X128066591Y-77919520D01*
X110306312Y-82366312D02*
X110306312Y-81977432D01*
X110306312Y-81977432D02*
X114364225Y-77919520D01*
%TO.N,/CPU& Bank Address Latching/~{RW}*%
X141440511Y-73914000D02*
X141440511Y-73613897D01*
X141016103Y-73189489D02*
X140415897Y-73189489D01*
X140415897Y-73189489D02*
X139691386Y-73914000D01*
X134289800Y-73914000D02*
X133369769Y-72993969D01*
X143637000Y-72131000D02*
X141854000Y-73914000D01*
X107648278Y-80185440D02*
X84264560Y-80185440D01*
X84264560Y-80185440D02*
X81148000Y-83302000D01*
X141440511Y-73613897D02*
X141016103Y-73189489D01*
X139691386Y-73914000D02*
X134289800Y-73914000D01*
X113157719Y-74676000D02*
X107648278Y-80185440D01*
X126238000Y-74676000D02*
X113157719Y-74676000D01*
X141854000Y-73914000D02*
X141440511Y-73914000D01*
X133369769Y-72993969D02*
X127920031Y-72993969D01*
X166116000Y-83312000D02*
X166370000Y-83566000D01*
X127920031Y-72993969D02*
X126238000Y-74676000D01*
X144780000Y-83312000D02*
X166116000Y-83312000D01*
%TO.N,/CPU& Bank Address Latching/D0*%
X206693218Y-137863520D02*
X222816480Y-137863520D01*
X224282000Y-127000000D02*
X222973600Y-128308400D01*
X120146307Y-109220000D02*
X126242307Y-103124000D01*
X222973600Y-128308400D02*
X208241600Y-128308400D01*
X205074882Y-131475119D02*
X205074882Y-136245185D01*
X208241600Y-128308400D02*
X205074882Y-131475119D01*
X222880000Y-110744000D02*
X223012000Y-110876000D01*
X205074882Y-136245185D02*
X206693218Y-137863520D01*
X126242307Y-103124000D02*
X146045000Y-103124000D01*
X112842040Y-109220000D02*
X120146307Y-109220000D01*
X224282000Y-120401000D02*
X224282000Y-127000000D01*
X110523020Y-111539020D02*
X112842040Y-109220000D01*
X153665000Y-110744000D02*
X222880000Y-110744000D01*
X222816480Y-137863520D02*
X227076000Y-133604000D01*
X146045000Y-103124000D02*
X147447000Y-104526000D01*
X147447000Y-104526000D02*
X153665000Y-110744000D01*
%TO.N,/CPU& Bank Address Latching/D1*%
X226822000Y-120401000D02*
X226822000Y-127254000D01*
X220726000Y-137414000D02*
X224536000Y-133604000D01*
X148077000Y-102616000D02*
X149987000Y-104526000D01*
X225462489Y-110151489D02*
X225552000Y-110241000D01*
X225318080Y-128757920D02*
X208427798Y-128757920D01*
X155697000Y-110236000D02*
X222627386Y-110236000D01*
X109816265Y-110832265D02*
X111936530Y-108712000D01*
X149987000Y-104526000D02*
X155697000Y-110236000D01*
X226822000Y-127254000D02*
X225318080Y-128757920D01*
X222711897Y-110151489D02*
X225462489Y-110151489D01*
X205524402Y-131661316D02*
X205524402Y-136058987D01*
X208427798Y-128757920D02*
X205524402Y-131661316D01*
X111936530Y-108712000D02*
X120018590Y-108712000D01*
X205524402Y-136058987D02*
X206879415Y-137414000D01*
X126114590Y-102616000D02*
X148077000Y-102616000D01*
X120018590Y-108712000D02*
X126114590Y-102616000D01*
X222627386Y-110236000D02*
X222711897Y-110151489D01*
X206879415Y-137414000D02*
X220726000Y-137414000D01*
%TO.N,/CPU& Bank Address Latching/D2*%
X157787480Y-109786480D02*
X221556520Y-109786480D01*
X228002489Y-109516489D02*
X228092000Y-109606000D01*
X218673920Y-136926080D02*
X221996000Y-133604000D01*
X150109000Y-102108000D02*
X152527000Y-104526000D01*
X221556520Y-109786480D02*
X221826511Y-109516489D01*
X208613996Y-129207440D02*
X205973920Y-131847519D01*
X229362000Y-128014564D02*
X228169124Y-129207440D01*
X119890872Y-108204000D02*
X125986872Y-102108000D01*
X229362000Y-120401000D02*
X229362000Y-128014564D01*
X109109510Y-110125510D02*
X111031020Y-108204000D01*
X221826511Y-109516489D02*
X228002489Y-109516489D01*
X111031020Y-108204000D02*
X119890872Y-108204000D01*
X152527000Y-104526000D02*
X157787480Y-109786480D01*
X125986872Y-102108000D02*
X150109000Y-102108000D01*
X228169124Y-129207440D02*
X208613996Y-129207440D01*
X205973922Y-135872791D02*
X207027212Y-136926080D01*
X205973920Y-131847519D02*
X205973922Y-135872791D01*
X207027212Y-136926080D02*
X218673920Y-136926080D01*
%TO.N,/CPU& Bank Address Latching/D3*%
X152199480Y-101658480D02*
X155067000Y-104526000D01*
X233484480Y-78818520D02*
X231902000Y-80401000D01*
X233431000Y-105161000D02*
X233680000Y-105410000D01*
X233484480Y-57218480D02*
X233484480Y-78818520D01*
X207213409Y-136476560D02*
X216583440Y-136476560D01*
X125800674Y-101658480D02*
X152199480Y-101658480D01*
X220261726Y-109336960D02*
X220886686Y-108712000D01*
X206423441Y-135686593D02*
X207213409Y-136476560D01*
X206423440Y-132033716D02*
X206423441Y-135686593D01*
X216583440Y-136476560D02*
X219456000Y-133604000D01*
X220886686Y-108712000D02*
X228351000Y-108712000D01*
X155067000Y-104526000D02*
X159877960Y-109336960D01*
X233680000Y-125219128D02*
X229242168Y-129656960D01*
X110125510Y-107696000D02*
X119763154Y-107696000D01*
X108402755Y-109418755D02*
X110125510Y-107696000D01*
X228351000Y-108712000D02*
X231902000Y-105161000D01*
X233680000Y-105410000D02*
X233680000Y-125219128D01*
X231902000Y-105161000D02*
X233431000Y-105161000D01*
X208800194Y-129656960D02*
X206423440Y-132033716D01*
X229242168Y-129656960D02*
X208800194Y-129656960D01*
X159877960Y-109336960D02*
X220261726Y-109336960D01*
X231902000Y-55636000D02*
X233484480Y-57218480D01*
X119763154Y-107696000D02*
X125800674Y-101658480D01*
%TO.N,/CPU& Bank Address Latching/D4*%
X208986392Y-130106480D02*
X206872960Y-132219913D01*
X229362000Y-55636000D02*
X230632000Y-56906000D01*
X206872960Y-132219913D02*
X206872960Y-135500395D01*
X229428366Y-130106480D02*
X208986392Y-130106480D01*
X154231480Y-101150480D02*
X127449520Y-101150480D01*
X230632000Y-79131000D02*
X229362000Y-80401000D01*
X220075528Y-108887440D02*
X220700489Y-108262480D01*
X119635436Y-107188000D02*
X125672956Y-101150480D01*
X125672956Y-101150480D02*
X127449520Y-101150480D01*
X231653000Y-102870000D02*
X233552282Y-102870000D01*
X157607000Y-104526000D02*
X161968440Y-108887440D01*
X109220000Y-107188000D02*
X119635436Y-107188000D01*
X226260520Y-108262480D02*
X229362000Y-105161000D01*
X206872960Y-135500395D02*
X207399606Y-136027040D01*
X157607000Y-104526000D02*
X154231480Y-101150480D01*
X214492960Y-136027040D02*
X216916000Y-133604000D01*
X229362000Y-105161000D02*
X231653000Y-102870000D01*
X234129520Y-125405326D02*
X229428366Y-130106480D01*
X220700489Y-108262480D02*
X226260520Y-108262480D01*
X230632000Y-56906000D02*
X230632000Y-79131000D01*
X207399606Y-136027040D02*
X214492960Y-136027040D01*
X161968440Y-108887440D02*
X220075528Y-108887440D01*
X233552282Y-102870000D02*
X234129520Y-103447238D01*
X107696000Y-108712000D02*
X109220000Y-107188000D01*
X234129520Y-103447238D02*
X234129520Y-125405326D01*
%TO.N,/CPU& Bank Address Latching/D5*%
X219889331Y-108437920D02*
X220514292Y-107812960D01*
X108093510Y-106680000D02*
X119507718Y-106680000D01*
X229621000Y-102362000D02*
X233680000Y-102362000D01*
X228092000Y-79131000D02*
X226822000Y-80401000D01*
X106878755Y-107894755D02*
X108093510Y-106680000D01*
X164058920Y-108437920D02*
X219889331Y-108437920D01*
X212402480Y-135577520D02*
X214376000Y-133604000D01*
X229614564Y-130556000D02*
X209172590Y-130556000D01*
X224170040Y-107812960D02*
X226822000Y-105161000D01*
X233680000Y-102362000D02*
X234579040Y-103261041D01*
X226822000Y-105161000D02*
X229621000Y-102362000D01*
X119507718Y-106680000D02*
X124777859Y-101409859D01*
X124777859Y-101409859D02*
X125486759Y-100700960D01*
X226822000Y-55636000D02*
X228092000Y-56906000D01*
X234579040Y-103261041D02*
X234579040Y-125591524D01*
X228092000Y-56906000D02*
X228092000Y-79131000D01*
X160147000Y-104526000D02*
X164058920Y-108437920D01*
X207322480Y-135314197D02*
X207585803Y-135577520D01*
X234579040Y-125591524D02*
X229614564Y-130556000D01*
X207585803Y-135577520D02*
X212402480Y-135577520D01*
X207322480Y-132406110D02*
X207322480Y-135314197D01*
X160147000Y-104526000D02*
X156321960Y-100700960D01*
X220514292Y-107812960D02*
X224170040Y-107812960D01*
X209172590Y-130556000D02*
X207322480Y-132406110D01*
X156321960Y-100700960D02*
X125486758Y-100700960D01*
X125486758Y-100700960D02*
X124777859Y-101409859D01*
%TO.N,/CPU& Bank Address Latching/D6*%
X231965141Y-128841141D02*
X235028560Y-125777722D01*
X106172000Y-107188000D02*
X107129520Y-106230480D01*
X224282000Y-55636000D02*
X225552000Y-56906000D01*
X220328095Y-107363440D02*
X222079560Y-107363440D01*
X231965141Y-128841141D02*
X234886141Y-125920141D01*
X225552000Y-56906000D02*
X225552000Y-79131000D01*
X107129520Y-106230480D02*
X119321522Y-106230480D01*
X158412440Y-100251440D02*
X162687000Y-104526000D01*
X225552000Y-79131000D02*
X224282000Y-80401000D01*
X235028560Y-125777722D02*
X235028560Y-102948560D01*
X166149400Y-107988400D02*
X219703133Y-107988400D01*
X211836000Y-133604000D02*
X210312000Y-135128000D01*
X207772000Y-132592308D02*
X209358788Y-131005520D01*
X162687000Y-104526000D02*
X166149400Y-107988400D01*
X233934000Y-101854000D02*
X227589000Y-101854000D01*
X119321522Y-106230480D02*
X125300562Y-100251440D01*
X227589000Y-101854000D02*
X224282000Y-105161000D01*
X209358788Y-131005520D02*
X229800761Y-131005520D01*
X219703133Y-107988400D02*
X220328095Y-107363440D01*
X222079560Y-107363440D02*
X224282000Y-105161000D01*
X207772000Y-135128000D02*
X207772000Y-132592308D01*
X229800761Y-131005520D02*
X231965141Y-128841141D01*
X210312000Y-135128000D02*
X207772000Y-135128000D01*
X125300562Y-100251440D02*
X158412440Y-100251440D01*
X235028560Y-102948560D02*
X233934000Y-101854000D01*
%TO.N,/CPU& Bank Address Latching/D7*%
X234061717Y-101346000D02*
X235478080Y-102762363D01*
X235478080Y-102762363D02*
X235478080Y-125963920D01*
X125114364Y-99801920D02*
X160502920Y-99801920D01*
X229986958Y-131455040D02*
X210936960Y-131455040D01*
X221742000Y-106913920D02*
X221742000Y-105161000D01*
X223012000Y-56906000D02*
X223012000Y-79131000D01*
X160502920Y-99801920D02*
X165227000Y-104526000D01*
X168239880Y-107538880D02*
X219516936Y-107538880D01*
X221742000Y-55636000D02*
X223012000Y-56906000D01*
X223012000Y-79131000D02*
X221742000Y-80401000D01*
X225557000Y-101346000D02*
X234061717Y-101346000D01*
X165227000Y-104526000D02*
X168239880Y-107538880D01*
X235478080Y-125963920D02*
X229986958Y-131455040D01*
X119135324Y-105780960D02*
X125114364Y-99801920D01*
X220141898Y-106913920D02*
X221742000Y-106913920D01*
X219516936Y-107538880D02*
X220141898Y-106913920D01*
X106165530Y-105780960D02*
X119135324Y-105780960D01*
X221742000Y-105161000D02*
X225557000Y-101346000D01*
X209296000Y-133096000D02*
X209296000Y-133604000D01*
X210936960Y-131455040D02*
X209296000Y-133096000D01*
X105465245Y-106481245D02*
X106165530Y-105780960D01*
%TO.N,/CPU& Bank Address Latching/A18*%
X153347440Y-46657440D02*
X167816876Y-46657440D01*
X167816876Y-46657440D02*
X172351387Y-51191951D01*
X197612000Y-99451000D02*
X193802000Y-95641000D01*
X172351387Y-51191951D02*
X202544000Y-51191951D01*
X234891520Y-97595914D02*
X231903434Y-100584000D01*
X197612000Y-106045000D02*
X197612000Y-99451000D01*
X233581884Y-50192449D02*
X234891520Y-51502085D01*
X198120000Y-106553000D02*
X197612000Y-106045000D01*
X200152000Y-104549722D02*
X200152000Y-105791000D01*
X231903434Y-100584000D02*
X204117722Y-100584000D01*
X203543502Y-50192449D02*
X233581884Y-50192449D01*
X199390000Y-106553000D02*
X198120000Y-106553000D01*
X151140000Y-44450000D02*
X153347440Y-46657440D01*
X234891520Y-51502085D02*
X234891520Y-97595914D01*
X202544000Y-51191951D02*
X203543502Y-50192449D01*
X200152000Y-105791000D02*
X199390000Y-106553000D01*
X204117722Y-100584000D02*
X200152000Y-104549722D01*
%TO.N,/CPU& Bank Address Latching/A17*%
X148600000Y-44450000D02*
X151256960Y-47106960D01*
X203729700Y-50641969D02*
X233395687Y-50641969D01*
X234442000Y-51688282D02*
X234442000Y-97409717D01*
X234442000Y-97409717D02*
X232537717Y-99314000D01*
X202730197Y-51641471D02*
X203729700Y-50641969D01*
X151256960Y-47106960D02*
X167630678Y-47106960D01*
X172165189Y-51641471D02*
X202730197Y-51641471D01*
X204724000Y-99314000D02*
X198882000Y-105156000D01*
X198882000Y-105156000D02*
X198882000Y-105161000D01*
X167630678Y-47106960D02*
X172165189Y-51641471D01*
X233395687Y-50641969D02*
X234442000Y-51688282D01*
X232537717Y-99314000D02*
X204724000Y-99314000D01*
%TO.N,/CPU& Bank Address Latching/A16*%
X233934000Y-97282000D02*
X232410000Y-98806000D01*
X202916395Y-52090991D02*
X203915897Y-51091489D01*
X232410000Y-98806000D02*
X204470000Y-98806000D01*
X202438000Y-100838000D02*
X201539000Y-100838000D01*
X204470000Y-98806000D02*
X202438000Y-100838000D01*
X233934000Y-51816000D02*
X233934000Y-97282000D01*
X167444480Y-47556480D02*
X171978991Y-52090991D01*
X146060000Y-44450000D02*
X149166480Y-47556480D01*
X201539000Y-100838000D02*
X196342000Y-95641000D01*
X233209489Y-51091489D02*
X233934000Y-51816000D01*
X171978991Y-52090991D02*
X202916395Y-52090991D01*
X149166480Y-47556480D02*
X167444480Y-47556480D01*
X203915897Y-51091489D02*
X233209489Y-51091489D01*
%TO.N,/CPU& Bank Address Latching/~{NMI}*%
X133731000Y-84836000D02*
X139481567Y-84836000D01*
X166624000Y-82550000D02*
X143002000Y-82550000D01*
X141478011Y-85852011D02*
X142240000Y-86614000D01*
X132080000Y-83185000D02*
X133731000Y-84836000D01*
X140497578Y-85852011D02*
X141478011Y-85852011D01*
X117221000Y-83185000D02*
X132080000Y-83185000D01*
X143002000Y-82550000D02*
X142240000Y-83312000D01*
X139481567Y-84836000D02*
X140497578Y-85852011D01*
%TO.N,/CPU& Bank Address Latching/A0*%
X136496640Y-98453360D02*
X124555768Y-98453360D01*
X221742000Y-120401000D02*
X221742000Y-126746000D01*
X143616019Y-97123969D02*
X143774050Y-97282000D01*
X124555768Y-98453360D02*
X120394564Y-102614564D01*
X103124000Y-104261986D02*
X104269835Y-104261986D01*
X202311718Y-133604000D02*
X201930000Y-133604000D01*
X212090000Y-85852000D02*
X221742000Y-95504000D01*
X221742000Y-95504000D02*
X221742000Y-95641000D01*
X142733674Y-97123969D02*
X143616019Y-97123969D01*
X220629120Y-127858880D02*
X208055402Y-127858880D01*
X118576728Y-104432400D02*
X120394564Y-102614564D01*
X149860000Y-96774000D02*
X149860000Y-93345000D01*
X141679263Y-98178380D02*
X141404283Y-98453360D01*
X208055402Y-127858880D02*
X207792080Y-128122203D01*
X141679263Y-98178380D02*
X142733674Y-97123969D01*
X149352000Y-97282000D02*
X149860000Y-96774000D01*
X207792080Y-128122203D02*
X203903520Y-132010763D01*
X104269835Y-104261986D02*
X104440249Y-104432400D01*
X149860000Y-93345000D02*
X149860000Y-87630000D01*
X149860000Y-87630000D02*
X151638000Y-85852000D01*
X151638000Y-85852000D02*
X212090000Y-85852000D01*
X141404283Y-98453360D02*
X136496640Y-98453360D01*
X104440249Y-104432400D02*
X118576728Y-104432400D01*
X203903520Y-132012198D02*
X202311718Y-133604000D01*
X203903520Y-132010763D02*
X203903520Y-132012198D01*
X221742000Y-126746000D02*
X220629120Y-127858880D01*
X143774050Y-97282000D02*
X149352000Y-97282000D01*
%TO.N,/CPU& Bank Address Latching/A1*%
X219202000Y-126746000D02*
X218538639Y-127409361D01*
X143587853Y-97731520D02*
X151696480Y-97731520D01*
X104626446Y-104881920D02*
X118762929Y-104881920D01*
X118762929Y-104881920D02*
X124268425Y-99376425D01*
X142644545Y-98619854D02*
X142699519Y-98619854D01*
X219202000Y-95504000D02*
X219202000Y-95641000D01*
X104458376Y-105049990D02*
X104626446Y-104881920D01*
X152400000Y-93345000D02*
X152400000Y-87376000D01*
X218538639Y-127409361D02*
X207869204Y-127409362D01*
X219202000Y-120401000D02*
X219202000Y-126746000D01*
X124741970Y-98902880D02*
X124268425Y-99376425D01*
X207869204Y-127409362D02*
X203454000Y-131824565D01*
X142361519Y-98902880D02*
X124741970Y-98902880D01*
X152400000Y-97028000D02*
X152400000Y-93345000D01*
X203200000Y-132080000D02*
X200914000Y-132080000D01*
X142699519Y-98619854D02*
X143587853Y-97731520D01*
X203454000Y-131826000D02*
X203200000Y-132080000D01*
X203454000Y-131824565D02*
X203454000Y-131826000D01*
X103886000Y-105049990D02*
X104458376Y-105049990D01*
X210116480Y-86418480D02*
X219202000Y-95504000D01*
X153357520Y-86418480D02*
X210116480Y-86418480D01*
X142644545Y-98619854D02*
X142361519Y-98902880D01*
X151696480Y-97731520D02*
X152400000Y-97028000D01*
X152400000Y-87376000D02*
X153357520Y-86418480D01*
X200914000Y-132080000D02*
X199390000Y-133604000D01*
%TO.N,/CPU& Bank Address Latching/A2*%
X215432159Y-126959841D02*
X207683006Y-126959841D01*
X216662000Y-125730000D02*
X215432159Y-126959841D01*
X216662000Y-95504000D02*
X216662000Y-95641000D01*
X208026000Y-86868000D02*
X216662000Y-95504000D01*
X105488560Y-105331440D02*
X118949126Y-105331440D01*
X154940000Y-93345000D02*
X154940000Y-87376000D01*
X216662000Y-120401000D02*
X216662000Y-125730000D01*
X207683006Y-126959841D02*
X207419684Y-127223164D01*
X203012368Y-131630480D02*
X198823520Y-131630480D01*
X118949126Y-105331440D02*
X124928166Y-99352400D01*
X105045510Y-105774490D02*
X105488560Y-105331440D01*
X143533161Y-99077420D02*
X144429541Y-98181040D01*
X143258181Y-99352400D02*
X143533161Y-99077420D01*
X154940000Y-97282000D02*
X154940000Y-93345000D01*
X155448000Y-86868000D02*
X208026000Y-86868000D01*
X144429541Y-98181040D02*
X154040960Y-98181040D01*
X104758490Y-105774490D02*
X105045510Y-105774490D01*
X207419684Y-127223164D02*
X203012368Y-131630480D01*
X154940000Y-87376000D02*
X155448000Y-86868000D01*
X124928166Y-99352400D02*
X143258181Y-99352400D01*
X154040960Y-98181040D02*
X154940000Y-97282000D01*
X198823520Y-131630480D02*
X196850000Y-133604000D01*
%TO.N,/CPU& Bank Address Latching/A3*%
X214122000Y-120401000D02*
X214122000Y-125730000D01*
X196733040Y-131180960D02*
X194310000Y-133604000D01*
X213341679Y-126510321D02*
X207496808Y-126510321D01*
X144563500Y-99077420D02*
X145010360Y-98630560D01*
X214122000Y-125730000D02*
X213341679Y-126510321D01*
X207496808Y-126510321D02*
X202826169Y-131180960D01*
X145010360Y-98630560D02*
X155877440Y-98630560D01*
X157480000Y-87592500D02*
X157754980Y-87317520D01*
X202826169Y-131180960D02*
X196733040Y-131180960D01*
X155877440Y-98630560D02*
X157480000Y-97028000D01*
X205798520Y-87317520D02*
X214122000Y-95641000D01*
X157754980Y-87317520D02*
X205798520Y-87317520D01*
X157480000Y-97028000D02*
X157480000Y-93345000D01*
X157480000Y-93345000D02*
X157480000Y-87592500D01*
%TO.N,/CPU& Bank Address Latching/A4*%
X202639971Y-130731440D02*
X194642560Y-130731440D01*
X211582000Y-94869718D02*
X211582000Y-95641000D01*
X194642560Y-130731440D02*
X191770000Y-133604000D01*
X211582000Y-120401000D02*
X211582000Y-124714000D01*
X160020000Y-93345000D02*
X160020000Y-88646000D01*
X210507520Y-125788480D02*
X207582931Y-125788480D01*
X211582000Y-124714000D02*
X210507520Y-125788480D01*
X160782000Y-87884000D02*
X204596282Y-87884000D01*
X160020000Y-88646000D02*
X160782000Y-87884000D01*
X207582931Y-125788480D02*
X202639971Y-130731440D01*
X204596282Y-87884000D02*
X211582000Y-94869718D01*
%TO.N,/CPU& Bank Address Latching/A5*%
X208417040Y-125338960D02*
X207396733Y-125338960D01*
X207396733Y-125338960D02*
X202453773Y-130281920D01*
X202453773Y-130281920D02*
X192552080Y-130281920D01*
X162560000Y-89154000D02*
X163380480Y-88333520D01*
X163380480Y-88333520D02*
X202633520Y-88333520D01*
X209042000Y-120401000D02*
X209042000Y-124714000D01*
X162560000Y-93345000D02*
X162560000Y-89154000D01*
X192552080Y-130281920D02*
X189230000Y-133604000D01*
X202633520Y-88333520D02*
X209042000Y-94742000D01*
X209042000Y-94742000D02*
X209042000Y-95641000D01*
X209042000Y-124714000D02*
X208417040Y-125338960D01*
%TO.N,/CPU& Bank Address Latching/A6*%
X165978960Y-88783040D02*
X199908040Y-88783040D01*
X206502000Y-125597975D02*
X206502000Y-120401000D01*
X186690000Y-133604000D02*
X190461600Y-129832400D01*
X165100000Y-89662000D02*
X165978960Y-88783040D01*
X199908040Y-88783040D02*
X206502000Y-95377000D01*
X206502000Y-95377000D02*
X206502000Y-95641000D01*
X165100000Y-93345000D02*
X165100000Y-89662000D01*
X190461600Y-129832400D02*
X202267575Y-129832400D01*
X202267575Y-129832400D02*
X206502000Y-125597975D01*
%TO.N,/CPU& Bank Address Latching/A7*%
X203962000Y-95641000D02*
X203962000Y-95572500D01*
X167640000Y-89916000D02*
X167640000Y-93345000D01*
X202081377Y-129382880D02*
X188371120Y-129382880D01*
X197622060Y-89232560D02*
X168323440Y-89232560D01*
X188371120Y-129382880D02*
X184150000Y-133604000D01*
X203962000Y-95572500D02*
X197622060Y-89232560D01*
X203962000Y-120401000D02*
X203962000Y-127502257D01*
X203962000Y-127502257D02*
X202081377Y-129382880D01*
X168323440Y-89232560D02*
X167640000Y-89916000D01*
%TO.N,/CPU& Bank Address Latching/A8*%
X207772000Y-79131000D02*
X206502000Y-80401000D01*
X170626760Y-82742760D02*
X173139310Y-82742760D01*
X169672000Y-81788000D02*
X170626760Y-82742760D01*
X207772000Y-56906000D02*
X207772000Y-79131000D01*
X206502000Y-55636000D02*
X207772000Y-56906000D01*
X202849080Y-84053920D02*
X206502000Y-80401000D01*
X174450470Y-84053920D02*
X202849080Y-84053920D01*
X173139310Y-82742760D02*
X174450470Y-84053920D01*
%TO.N,/CPU& Bank Address Latching/A9*%
X111125000Y-82679153D02*
X107619593Y-86184560D01*
X100525520Y-87815480D02*
X100525520Y-97974761D01*
X167450800Y-84503451D02*
X141056172Y-84503451D01*
X204939560Y-84503440D02*
X209042000Y-80401000D01*
X86360000Y-102108000D02*
X85090000Y-102108000D01*
X111125000Y-81794462D02*
X111125000Y-82679153D01*
X129071834Y-79560480D02*
X127880394Y-78369040D01*
X173072821Y-83311989D02*
X174264272Y-84503440D01*
X170551782Y-83311989D02*
X173072821Y-83311989D01*
X209042000Y-62230000D02*
X210312000Y-63500000D01*
X170396500Y-83467271D02*
X170551782Y-83311989D01*
X102156440Y-86184560D02*
X100525520Y-87815480D01*
X210312000Y-63500000D02*
X210312000Y-79131000D01*
X209042000Y-55636000D02*
X209042000Y-62230000D01*
X169441740Y-82512511D02*
X167450800Y-84503451D01*
X99694281Y-98806000D02*
X88034722Y-98806000D01*
X114550422Y-78369040D02*
X111125000Y-81794462D01*
X86976511Y-101491489D02*
X86360000Y-102108000D01*
X100525520Y-97974761D02*
X99694281Y-98806000D01*
X85090000Y-102108000D02*
X83312000Y-100330000D01*
X127880394Y-78369040D02*
X114550422Y-78369040D01*
X86976511Y-99864211D02*
X86976511Y-101491489D01*
X136113201Y-79560480D02*
X129071834Y-79560480D01*
X174264272Y-84503440D02*
X204939560Y-84503440D01*
X170396500Y-83467271D02*
X169441740Y-82512511D01*
X88034722Y-98806000D02*
X86976511Y-99864211D01*
X107619593Y-86184560D02*
X102156440Y-86184560D01*
X141056172Y-84503451D02*
X136113201Y-79560480D01*
X210312000Y-79131000D02*
X209042000Y-80401000D01*
%TO.N,/CPU& Bank Address Latching/A10*%
X217932000Y-79131000D02*
X216662000Y-80401000D01*
X172953009Y-85402491D02*
X140683776Y-85402491D01*
X101424560Y-88187876D02*
X101424560Y-98347156D01*
X114922818Y-79268080D02*
X112024040Y-82166858D01*
X173228000Y-85127500D02*
X173502980Y-85402480D01*
X76454000Y-99586489D02*
X77488489Y-98552000D01*
X76454000Y-101346000D02*
X76454000Y-99586489D01*
X173502980Y-85402480D02*
X211660520Y-85402480D01*
X140683776Y-85402491D02*
X135799285Y-80518000D01*
X78115040Y-103007040D02*
X76454000Y-101346000D01*
X211660520Y-85402480D02*
X216662000Y-80401000D01*
X96764676Y-103007040D02*
X78115040Y-103007040D01*
X78994000Y-98552000D02*
X80772000Y-100330000D01*
X128757918Y-80518000D02*
X127507998Y-79268080D01*
X101424560Y-98347156D02*
X96764676Y-103007040D01*
X112024040Y-83051547D02*
X107991987Y-87083600D01*
X112024040Y-82166858D02*
X112024040Y-83051547D01*
X217932000Y-56906000D02*
X217932000Y-79131000D01*
X135799285Y-80518000D02*
X128757918Y-80518000D01*
X127507998Y-79268080D02*
X114922818Y-79268080D01*
X216662000Y-55636000D02*
X217932000Y-56906000D01*
X102528836Y-87083600D02*
X101424560Y-88187876D01*
X77488489Y-98552000D02*
X78994000Y-98552000D01*
X107991987Y-87083600D02*
X102528836Y-87083600D01*
X173228000Y-85127500D02*
X172953009Y-85402491D01*
%TO.N,/CPU& Bank Address Latching/A11*%
X174078074Y-84952960D02*
X207030040Y-84952960D01*
X171937009Y-83761509D02*
X170745547Y-84952971D01*
X172927897Y-84402989D02*
X173528103Y-84402989D01*
X207030040Y-84952960D02*
X211582000Y-80401000D01*
X111574520Y-82865350D02*
X107805790Y-86634080D01*
X102342638Y-86634080D02*
X100975040Y-88001678D01*
X211582000Y-56261000D02*
X210058000Y-57785000D01*
X114736620Y-78818560D02*
X111574520Y-81980660D01*
X127694196Y-78818560D02*
X114736620Y-78818560D01*
X170745547Y-84952971D02*
X140869974Y-84952971D01*
X128885636Y-80010000D02*
X127694196Y-78818560D01*
X212852000Y-79131000D02*
X211582000Y-80401000D01*
X111574520Y-81980660D02*
X111574520Y-82865350D01*
X78681520Y-102557520D02*
X78232000Y-102108000D01*
X172212000Y-84036500D02*
X172753193Y-84577693D01*
X173528103Y-84402989D02*
X174078074Y-84952960D01*
X172212000Y-84036500D02*
X171937009Y-83761509D01*
X212852000Y-63880282D02*
X212852000Y-79131000D01*
X210058000Y-61086282D02*
X212852000Y-63880282D01*
X107805790Y-86634080D02*
X102342638Y-86634080D01*
X172753193Y-84577693D02*
X172927897Y-84402989D01*
X140869974Y-84952971D02*
X135927003Y-80010000D01*
X78232000Y-102108000D02*
X78232000Y-100330000D01*
X100975040Y-98160959D02*
X96578479Y-102557520D01*
X210058000Y-57785000D02*
X210058000Y-61086282D01*
X135927003Y-80010000D02*
X128885636Y-80010000D01*
X100975040Y-88001678D02*
X100975040Y-98160959D01*
X211582000Y-55636000D02*
X211582000Y-56261000D01*
X96578479Y-102557520D02*
X78681520Y-102557520D01*
%TO.N,/CPU& Bank Address Latching/A12*%
X100076000Y-97788564D02*
X100076000Y-86360000D01*
X98806000Y-81534000D02*
X108206870Y-81534000D01*
X97663000Y-82677000D02*
X98806000Y-81534000D01*
X128023887Y-75046960D02*
X172201960Y-75046960D01*
X126949406Y-76121440D02*
X128023887Y-75046960D01*
X100076000Y-86360000D02*
X97663000Y-83947000D01*
X85852000Y-100330000D02*
X87825520Y-98356480D01*
X87825520Y-98356480D02*
X99508084Y-98356480D01*
X97663000Y-83947000D02*
X97663000Y-82677000D01*
X99508084Y-98356480D02*
X100076000Y-97788564D01*
X113619432Y-76121440D02*
X126949406Y-76121440D01*
X196009480Y-90228480D02*
X201422000Y-95641000D01*
X178524500Y-89957060D02*
X178795920Y-90228480D01*
X172201960Y-75046960D02*
X175260000Y-78105000D01*
X178795920Y-90228480D02*
X196009480Y-90228480D01*
X108206870Y-81534000D02*
X113619432Y-76121440D01*
%TO.N,/CPU& Bank Address Latching/A13*%
X128210084Y-75496480D02*
X127135604Y-76570960D01*
X170111480Y-75496480D02*
X128210084Y-75496480D01*
X105542000Y-84836000D02*
X104008000Y-83302000D01*
X200758600Y-83604400D02*
X203962000Y-80401000D01*
X108393067Y-83503933D02*
X107061000Y-84836000D01*
X175552400Y-83604400D02*
X200758600Y-83604400D01*
X113805630Y-76570960D02*
X108393067Y-81983520D01*
X107061000Y-84836000D02*
X105542000Y-84836000D01*
X174752000Y-82804000D02*
X175552400Y-83604400D01*
X108393067Y-81983520D02*
X108393067Y-83503933D01*
X127135604Y-76570960D02*
X113805630Y-76570960D01*
X172720000Y-78105000D02*
X170111480Y-75496480D01*
%TO.N,/CPU& Bank Address Latching/A14*%
X103451520Y-85285520D02*
X107247198Y-85285520D01*
X108842587Y-83690131D02*
X108842587Y-82169721D01*
X113991828Y-77020480D02*
X127321802Y-77020480D01*
X178824603Y-90681571D02*
X169672011Y-90681571D01*
X101468000Y-83302000D02*
X103451520Y-85285520D01*
X107247198Y-85285520D02*
X108842587Y-83690131D01*
X168021000Y-75946000D02*
X170180000Y-78105000D01*
X127321802Y-77020480D02*
X128396282Y-75946000D01*
X169672011Y-90681571D02*
X168947500Y-89957060D01*
X128396282Y-75946000D02*
X168021000Y-75946000D01*
X193919000Y-90678000D02*
X178828174Y-90678000D01*
X198882000Y-95641000D02*
X193919000Y-90678000D01*
X178828174Y-90678000D02*
X178824603Y-90681571D01*
X108842587Y-82169721D02*
X113991828Y-77020480D01*
%TO.N,/CPU& Bank Address Latching/A15*%
X128582480Y-76395520D02*
X127508000Y-77470000D01*
X171323000Y-81788000D02*
X175768000Y-81788000D01*
X177134880Y-83154880D02*
X195072000Y-83154880D01*
X175768000Y-81788000D02*
X177134880Y-83154880D01*
X109292107Y-83876328D02*
X107433395Y-85735040D01*
X167640000Y-78105000D02*
X171323000Y-81788000D01*
X109292107Y-82355919D02*
X109292107Y-83876328D01*
X196342000Y-81884880D02*
X196342000Y-80401000D01*
X167640000Y-78105000D02*
X165930520Y-76395520D01*
X101361040Y-85735040D02*
X98928000Y-83302000D01*
X127508000Y-77470000D02*
X114178026Y-77470000D01*
X195072000Y-83154880D02*
X196342000Y-81884880D01*
X165930520Y-76395520D02*
X128582480Y-76395520D01*
X107433395Y-85735040D02*
X101361040Y-85735040D01*
X114178026Y-77470000D02*
X109292107Y-82355919D01*
%TO.N,/Memory/~{RAM0CS}*%
X171792793Y-52540511D02*
X219418511Y-52540511D01*
X132223510Y-50546000D02*
X135890000Y-50546000D01*
X104008000Y-75682000D02*
X103124000Y-74798000D01*
X135890000Y-50546000D02*
X138430000Y-48006000D01*
X167258282Y-48006000D02*
X171792793Y-52540511D01*
X105665436Y-61214000D02*
X130048000Y-61214000D01*
X219418511Y-52540511D02*
X220472000Y-53594000D01*
X220472000Y-53594000D02*
X220472000Y-68072000D01*
X103124000Y-63755436D02*
X105665436Y-61214000D01*
X131262755Y-51506755D02*
X132223510Y-50546000D01*
X103124000Y-74798000D02*
X103124000Y-63755436D01*
X138430000Y-48006000D02*
X167258282Y-48006000D01*
%TO.N,/Memory/~{RAM1CS}*%
X105479239Y-60764480D02*
X129472906Y-60764480D01*
X130360480Y-57462480D02*
X129794000Y-56896000D01*
X233768082Y-49742929D02*
X203357304Y-49742929D01*
X168003074Y-46207920D02*
X157967920Y-46207920D01*
X235927600Y-126538998D02*
X235927600Y-98368672D01*
X129472906Y-60764480D02*
X130039386Y-60198000D01*
X235208299Y-127258299D02*
X235927600Y-126538998D01*
X131318000Y-50038000D02*
X130556000Y-50800000D01*
X235341040Y-51315887D02*
X233768082Y-49742929D01*
X235927600Y-98368672D02*
X235341040Y-97782112D01*
X130360480Y-59885520D02*
X130360480Y-57462480D01*
X101468000Y-75682000D02*
X101468000Y-73777718D01*
X102674480Y-63569238D02*
X105479239Y-60764480D01*
X203357304Y-49742929D02*
X202357802Y-50742431D01*
X235341040Y-97782112D02*
X235341040Y-51315887D01*
X157967920Y-46207920D02*
X153924000Y-42164000D01*
X172537585Y-50742431D02*
X168003074Y-46207920D01*
X153924000Y-42164000D02*
X132842000Y-42164000D01*
X130039386Y-60198000D02*
X130048000Y-60198000D01*
X130048000Y-60198000D02*
X130360480Y-59885520D01*
X102674480Y-72571238D02*
X102674480Y-63569238D01*
X131318000Y-43688000D02*
X131318000Y-50038000D01*
X202357802Y-50742431D02*
X172537585Y-50742431D01*
X132842000Y-42164000D02*
X131318000Y-43688000D01*
X101468000Y-73777718D02*
X102674480Y-72571238D01*
%TO.N,/Memory/~{ROMCS}*%
X127899040Y-60314960D02*
X129540000Y-58674000D01*
X105293042Y-60314960D02*
X127899040Y-60314960D01*
X129069500Y-51943000D02*
X130116531Y-52990031D01*
X130116531Y-52990031D02*
X218344031Y-52990031D01*
X98928000Y-75682000D02*
X102224960Y-72385040D01*
X102224960Y-63383040D02*
X105293042Y-60314960D01*
X213995000Y-58420000D02*
X211064684Y-58420000D01*
X211064684Y-58420000D02*
X210878842Y-58605842D01*
X218344031Y-52990031D02*
X219202000Y-53848000D01*
X102224960Y-72385040D02*
X102224960Y-63383040D01*
X219202000Y-53848000D02*
X219202000Y-55636000D01*
%TO.N,/Memory/~{RD}*%
X90805000Y-74422000D02*
X92588000Y-74422000D01*
X92588000Y-74422000D02*
X93848000Y-75682000D01*
X215392000Y-79131000D02*
X214122000Y-80401000D01*
X101325920Y-63010644D02*
X101325920Y-72012644D01*
X101325920Y-72012644D02*
X99230595Y-74107969D01*
X92715017Y-106928983D02*
X90591154Y-104805120D01*
X214122000Y-55636000D02*
X215392000Y-56906000D01*
X214122000Y-54102000D02*
X213459551Y-53439551D01*
X74655920Y-102090790D02*
X74655920Y-83712362D01*
X130836732Y-53439551D02*
X124860363Y-59415920D01*
X90591154Y-104805120D02*
X77370249Y-104805120D01*
X77370249Y-104805120D02*
X74655920Y-102090790D01*
X90170000Y-76184282D02*
X90170000Y-75057000D01*
X213459551Y-53439551D02*
X130836732Y-53439551D01*
X94294031Y-74107969D02*
X93848000Y-74554000D01*
X124860363Y-59415920D02*
X104920644Y-59415920D01*
X215392000Y-56906000D02*
X215392000Y-79131000D01*
X93848000Y-74554000D02*
X93848000Y-75682000D01*
X104920644Y-59415920D02*
X101325920Y-63010644D01*
X90170000Y-75057000D02*
X90805000Y-74422000D01*
X79648363Y-78719920D02*
X87634362Y-78719920D01*
X214122000Y-55636000D02*
X214122000Y-54102000D01*
X99230595Y-74107969D02*
X94294031Y-74107969D01*
X87634362Y-78719920D02*
X90170000Y-76184282D01*
X74655920Y-83712362D02*
X79648363Y-78719920D01*
%TO.N,/Memory/~{WR}*%
X95954500Y-106231713D02*
X94078387Y-104355600D01*
X94107000Y-77216000D02*
X94996000Y-76327000D01*
X94078387Y-104355600D02*
X77556447Y-104355600D01*
X75105440Y-83898560D02*
X79834560Y-79169440D01*
X77556447Y-104355600D02*
X75105440Y-101904593D01*
X131022929Y-53889071D02*
X204031221Y-53889071D01*
X92842000Y-77216000D02*
X94107000Y-77216000D01*
X101775440Y-72198842D02*
X101775440Y-63196842D01*
X99416793Y-74557489D02*
X101775440Y-72198842D01*
X204031221Y-53889071D02*
X205232000Y-55089850D01*
X205232000Y-76591000D02*
X201422000Y-80401000D01*
X94996000Y-76327000D02*
X94996000Y-75184000D01*
X94996000Y-75184000D02*
X95622511Y-74557489D01*
X125046560Y-59865440D02*
X131022929Y-53889071D01*
X101775440Y-63196842D02*
X105106845Y-59865440D01*
X87820560Y-79169440D02*
X91308000Y-75682000D01*
X91308000Y-75682000D02*
X92842000Y-77216000D01*
X95622511Y-74557489D02*
X99416793Y-74557489D01*
X75105440Y-101904593D02*
X75105440Y-83898560D01*
X105106845Y-59865440D02*
X125046560Y-59865440D01*
X205232000Y-55089850D02*
X205232000Y-76591000D01*
X79834560Y-79169440D02*
X87820560Y-79169440D01*
%TO.N,/IO/~{IO2}*%
X95074560Y-103456560D02*
X77928842Y-103456560D01*
X97401706Y-105783706D02*
X95074560Y-103456560D01*
X77928842Y-103456560D02*
X76004480Y-101532198D01*
X82550000Y-96012000D02*
X85852000Y-92710000D01*
X76004480Y-101532198D02*
X76004480Y-99400291D01*
X79392771Y-96012000D02*
X82550000Y-96012000D01*
X97401706Y-105880500D02*
X97401706Y-105783706D01*
X76004480Y-99400291D02*
X79392771Y-96012000D01*
%TO.N,/IO/~{IO1}*%
X96677195Y-106180603D02*
X96677195Y-105929794D01*
X96677195Y-105929794D02*
X94653481Y-103906080D01*
X77742645Y-103906080D02*
X75554960Y-101718396D01*
X82363802Y-95562480D02*
X83312000Y-94614282D01*
X83312000Y-94614282D02*
X83312000Y-92710000D01*
X79206573Y-95562480D02*
X82363802Y-95562480D01*
X97101603Y-106605011D02*
X96677195Y-106180603D01*
X75554960Y-101718396D02*
X75554960Y-99214094D01*
X97864989Y-106605011D02*
X97101603Y-106605011D01*
X98483125Y-105986875D02*
X97864989Y-106605011D01*
X94653481Y-103906080D02*
X77742645Y-103906080D01*
X75554960Y-99214094D02*
X79206573Y-95562480D01*
%TO.N,/IO/~{IO0}*%
X126238000Y-108966000D02*
X125222000Y-107950000D01*
X131826000Y-108966000D02*
X126238000Y-108966000D01*
%TO.N,/IO/UART_TXA*%
X97087198Y-128465520D02*
X94420198Y-128465520D01*
X104335520Y-113579060D02*
X104335520Y-121217198D01*
X92710000Y-130175718D02*
X92710000Y-134112000D01*
X94420198Y-128465520D02*
X92710000Y-130175718D01*
X92710000Y-134112000D02*
X91440000Y-135382000D01*
X104335520Y-121217198D02*
X97087198Y-128465520D01*
X103532460Y-112776000D02*
X104335520Y-113579060D01*
%TO.N,/IO/~{UART_DTRB}*%
X76200000Y-121412000D02*
X75692000Y-121920000D01*
X82181700Y-122174000D02*
X77724000Y-122174000D01*
X75692000Y-121920000D02*
X75570000Y-121920000D01*
X77724000Y-122174000D02*
X76962000Y-121412000D01*
X76962000Y-121412000D02*
X76200000Y-121412000D01*
X82943700Y-122936000D02*
X82181700Y-122174000D01*
%TO.N,/IO/~{UART_OPB}*%
X76835000Y-114046000D02*
X78448500Y-112432500D01*
X78448500Y-112432500D02*
X78448500Y-110579500D01*
X75570000Y-119380000D02*
X74295000Y-118105000D01*
X76835000Y-114935000D02*
X76835000Y-114046000D01*
X74295000Y-116263012D02*
X74892523Y-115665489D01*
X74295000Y-118105000D02*
X74295000Y-116263012D01*
X76104511Y-115665489D02*
X76835000Y-114935000D01*
X74892523Y-115665489D02*
X76104511Y-115665489D01*
%TO.N,/IO/~{UART_RIB}*%
X81794094Y-110369094D02*
X81794094Y-111118906D01*
X81794094Y-111118906D02*
X76073000Y-116840000D01*
X76073000Y-116840000D02*
X75570000Y-116840000D01*
%TO.N,/IO/UART_RXB*%
X77724000Y-108166500D02*
X77724000Y-111506000D01*
X77954950Y-107935550D02*
X77724000Y-108166500D01*
X77724000Y-111506000D02*
X76200000Y-113030000D01*
X74300000Y-113030000D02*
X73030000Y-114300000D01*
X76200000Y-113030000D02*
X74300000Y-113030000D01*
%TO.N,/IO/~{UART_RTSB}*%
X78232000Y-107188000D02*
X77602000Y-107188000D01*
X77602000Y-107188000D02*
X75570000Y-109220000D01*
X80587953Y-109543953D02*
X78232000Y-107188000D01*
X83254953Y-109543953D02*
X80587953Y-109543953D01*
%TO.N,/IO/VIA_PA0*%
X130522920Y-122562680D02*
X120002320Y-122562680D01*
X132207000Y-120878600D02*
X130522920Y-122562680D01*
X132207000Y-119766000D02*
X132207000Y-120878600D01*
X120002320Y-122562680D02*
X116580600Y-125984400D01*
%TO.N,/IO/VIA_PA1*%
X134747000Y-119766000D02*
X134747000Y-121031000D01*
X122092800Y-123012200D02*
X119120600Y-125984400D01*
X132765800Y-123012200D02*
X122092800Y-123012200D01*
X134747000Y-121031000D02*
X132765800Y-123012200D01*
%TO.N,/IO/VIA_PA2*%
X134399080Y-123461720D02*
X137287000Y-120573800D01*
X137287000Y-120573800D02*
X137287000Y-119766000D01*
X124183280Y-123461720D02*
X134399080Y-123461720D01*
X121660600Y-125984400D02*
X124183280Y-123461720D01*
%TO.N,/IO/VIA_PA3*%
X139827000Y-119766000D02*
X139827000Y-120370600D01*
X126273760Y-123911240D02*
X124200600Y-125984400D01*
X136286360Y-123911240D02*
X126273760Y-123911240D01*
X139827000Y-120370600D02*
X136286360Y-123911240D01*
%TO.N,/CPU& Bank Address Latching/~{RES_BTN}*%
X131567342Y-41778342D02*
X131005520Y-41216520D01*
X94483000Y-42169000D02*
X95445520Y-41206480D01*
X131005520Y-41206480D02*
X178786480Y-41206480D01*
X94483000Y-44450000D02*
X94483000Y-42169000D01*
X178786480Y-41206480D02*
X181050000Y-43470000D01*
X95445520Y-41206480D02*
X131005520Y-41206480D01*
X131005520Y-41216520D02*
X131005520Y-41206480D01*
%TO.N,/CPU& Bank Address Latching/CLK_UART*%
X71120000Y-99190589D02*
X71120000Y-70866000D01*
X90016060Y-105254640D02*
X77184051Y-105254640D01*
X100584000Y-108204000D02*
X92964000Y-108204000D01*
X89154000Y-60198000D02*
X94107000Y-60198000D01*
X121031000Y-50546000D02*
X123698000Y-50546000D01*
X77184051Y-105254640D02*
X71120000Y-99190589D01*
X118745000Y-52832000D02*
X121031000Y-50546000D01*
X97282000Y-57023000D02*
X101473000Y-52832000D01*
X101346000Y-108966000D02*
X100584000Y-108204000D01*
X92964000Y-108204000D02*
X92414914Y-107654914D01*
X92414914Y-107654914D02*
X92414914Y-107653494D01*
X92414914Y-107653494D02*
X90016060Y-105254640D01*
X82169000Y-67183000D02*
X89154000Y-60198000D01*
X101473000Y-52832000D02*
X118745000Y-52832000D01*
X94107000Y-60198000D02*
X97282000Y-57023000D01*
X74803000Y-67183000D02*
X82169000Y-67183000D01*
X71120000Y-70866000D02*
X74803000Y-67183000D01*
%TO.N,Net-(JP2-Pad3)*%
X82538370Y-57150000D02*
X84570370Y-55118000D01*
X107950000Y-50546000D02*
X113919000Y-50546000D01*
X81407000Y-57150000D02*
X82538370Y-57150000D01*
X88519000Y-55118000D02*
X92075000Y-51562000D01*
X84570370Y-55118000D02*
X88519000Y-55118000D01*
X106934000Y-51562000D02*
X107950000Y-50546000D01*
X92075000Y-51562000D02*
X106934000Y-51562000D01*
%TO.N,/Memory/ROMSW0*%
X185821801Y-77160180D02*
X187396180Y-77160180D01*
X187396180Y-77160180D02*
X187452000Y-77216000D01*
%TO.N,/IO/UART_RXA*%
X103886000Y-115590980D02*
X103886000Y-121031000D01*
X91053995Y-136779000D02*
X92583000Y-136779000D01*
X90170000Y-132080000D02*
X90170000Y-135895005D01*
X92583000Y-136779000D02*
X93980000Y-135382000D01*
X90170000Y-135895005D02*
X91053995Y-136779000D01*
X103886000Y-121031000D02*
X96901000Y-128016000D01*
X96901000Y-128016000D02*
X94234000Y-128016000D01*
X94234000Y-128016000D02*
X90170000Y-132080000D01*
X103611020Y-115316000D02*
X103886000Y-115590980D01*
%TO.N,/CPU& Bank Address Latching/VPA*%
X128257911Y-73443489D02*
X126517400Y-75184000D01*
X126517400Y-75184000D02*
X113285436Y-75184000D01*
X134594600Y-74422000D02*
X134536120Y-74363520D01*
X86355040Y-80634960D02*
X83688000Y-83302000D01*
X134103603Y-74363520D02*
X133183571Y-73443489D01*
X140716000Y-73914000D02*
X140208000Y-74422000D01*
X113285436Y-75184000D02*
X107834475Y-80634960D01*
X140208000Y-74422000D02*
X134594600Y-74422000D01*
X133183571Y-73443489D02*
X128257911Y-73443489D01*
X134536120Y-74363520D02*
X134103603Y-74363520D01*
X107834475Y-80634960D02*
X86355040Y-80634960D01*
%TO.N,/CPU& Bank Address Latching/VDA*%
X130507549Y-74597440D02*
X127837690Y-74597440D01*
X127837690Y-74597440D02*
X126763209Y-75671920D01*
X108020672Y-81084480D02*
X88445520Y-81084480D01*
X88445520Y-81084480D02*
X86228000Y-83302000D01*
X113433234Y-75671920D02*
X108020672Y-81084480D01*
X126763209Y-75671920D02*
X113433234Y-75671920D01*
X130937000Y-74167989D02*
X130507549Y-74597440D01*
%TD*%
M02*
