%TF.GenerationSoftware,KiCad,Pcbnew,6.0.4+dfsg-1+b1*%
%TF.CreationDate,2022-05-07T15:32:52+10:00*%
%TF.ProjectId,65816-computer,36353831-362d-4636-9f6d-70757465722e,rev?*%
%TF.SameCoordinates,Original*%
%TF.FileFunction,Copper,L1,Top*%
%TF.FilePolarity,Positive*%
%FSLAX46Y46*%
G04 Gerber Fmt 4.6, Leading zero omitted, Abs format (unit mm)*
G04 Created by KiCad (PCBNEW 6.0.4+dfsg-1+b1) date 2022-05-07 15:32:52*
%MOMM*%
%LPD*%
G01*
G04 APERTURE LIST*
G04 Aperture macros list*
%AMRoundRect*
0 Rectangle with rounded corners*
0 $1 Rounding radius*
0 $2 $3 $4 $5 $6 $7 $8 $9 X,Y pos of 4 corners*
0 Add a 4 corners polygon primitive as box body*
4,1,4,$2,$3,$4,$5,$6,$7,$8,$9,$2,$3,0*
0 Add four circle primitives for the rounded corners*
1,1,$1+$1,$2,$3*
1,1,$1+$1,$4,$5*
1,1,$1+$1,$6,$7*
1,1,$1+$1,$8,$9*
0 Add four rect primitives between the rounded corners*
20,1,$1+$1,$2,$3,$4,$5,0*
20,1,$1+$1,$4,$5,$6,$7,0*
20,1,$1+$1,$6,$7,$8,$9,0*
20,1,$1+$1,$8,$9,$2,$3,0*%
%AMFreePoly0*
4,1,22,0.500000,-0.750000,0.000000,-0.750000,0.000000,-0.745033,-0.079941,-0.743568,-0.215256,-0.701293,-0.333266,-0.622738,-0.424486,-0.514219,-0.481581,-0.384460,-0.499164,-0.250000,-0.500000,-0.250000,-0.500000,0.250000,-0.499164,0.250000,-0.499963,0.256109,-0.478152,0.396186,-0.417904,0.524511,-0.324060,0.630769,-0.204165,0.706417,-0.067858,0.745374,0.000000,0.744959,0.000000,0.750000,
0.500000,0.750000,0.500000,-0.750000,0.500000,-0.750000,$1*%
%AMFreePoly1*
4,1,20,0.000000,0.744959,0.073905,0.744508,0.209726,0.703889,0.328688,0.626782,0.421226,0.519385,0.479903,0.390333,0.500000,0.250000,0.500000,-0.250000,0.499851,-0.262216,0.476331,-0.402017,0.414519,-0.529596,0.319384,-0.634700,0.198574,-0.708877,0.061801,-0.746166,0.000000,-0.745033,0.000000,-0.750000,-0.500000,-0.750000,-0.500000,0.750000,0.000000,0.750000,0.000000,0.744959,
0.000000,0.744959,$1*%
G04 Aperture macros list end*
%TA.AperFunction,ComponentPad*%
%ADD10R,1.600000X1.600000*%
%TD*%
%TA.AperFunction,ComponentPad*%
%ADD11C,1.600000*%
%TD*%
%TA.AperFunction,SMDPad,CuDef*%
%ADD12C,1.500000*%
%TD*%
%TA.AperFunction,ComponentPad*%
%ADD13R,1.700000X1.700000*%
%TD*%
%TA.AperFunction,ComponentPad*%
%ADD14O,1.700000X1.700000*%
%TD*%
%TA.AperFunction,ComponentPad*%
%ADD15O,1.600000X1.600000*%
%TD*%
%TA.AperFunction,SMDPad,CuDef*%
%ADD16RoundRect,0.237500X-0.237500X0.300000X-0.237500X-0.300000X0.237500X-0.300000X0.237500X0.300000X0*%
%TD*%
%TA.AperFunction,ComponentPad*%
%ADD17C,0.800000*%
%TD*%
%TA.AperFunction,ComponentPad*%
%ADD18C,6.400000*%
%TD*%
%TA.AperFunction,SMDPad,CuDef*%
%ADD19RoundRect,0.075000X0.662500X0.075000X-0.662500X0.075000X-0.662500X-0.075000X0.662500X-0.075000X0*%
%TD*%
%TA.AperFunction,SMDPad,CuDef*%
%ADD20RoundRect,0.075000X0.075000X0.662500X-0.075000X0.662500X-0.075000X-0.662500X0.075000X-0.662500X0*%
%TD*%
%TA.AperFunction,ComponentPad*%
%ADD21C,2.800000*%
%TD*%
%TA.AperFunction,SMDPad,CuDef*%
%ADD22RoundRect,0.237500X0.287500X0.237500X-0.287500X0.237500X-0.287500X-0.237500X0.287500X-0.237500X0*%
%TD*%
%TA.AperFunction,SMDPad,CuDef*%
%ADD23RoundRect,0.237500X0.237500X-0.250000X0.237500X0.250000X-0.237500X0.250000X-0.237500X-0.250000X0*%
%TD*%
%TA.AperFunction,SMDPad,CuDef*%
%ADD24RoundRect,0.237500X-0.237500X0.250000X-0.237500X-0.250000X0.237500X-0.250000X0.237500X0.250000X0*%
%TD*%
%TA.AperFunction,ComponentPad*%
%ADD25R,2.000000X2.000000*%
%TD*%
%TA.AperFunction,ComponentPad*%
%ADD26C,2.000000*%
%TD*%
%TA.AperFunction,SMDPad,CuDef*%
%ADD27RoundRect,0.150000X0.587500X-0.150000X0.587500X0.150000X-0.587500X0.150000X-0.587500X-0.150000X0*%
%TD*%
%TA.AperFunction,SMDPad,CuDef*%
%ADD28RoundRect,0.150000X0.150000X-0.587500X0.150000X0.587500X-0.150000X0.587500X-0.150000X-0.587500X0*%
%TD*%
%TA.AperFunction,SMDPad,CuDef*%
%ADD29RoundRect,0.237500X0.300000X0.237500X-0.300000X0.237500X-0.300000X-0.237500X0.300000X-0.237500X0*%
%TD*%
%TA.AperFunction,SMDPad,CuDef*%
%ADD30RoundRect,0.237500X-0.250000X-0.237500X0.250000X-0.237500X0.250000X0.237500X-0.250000X0.237500X0*%
%TD*%
%TA.AperFunction,SMDPad,CuDef*%
%ADD31RoundRect,0.237500X-0.300000X-0.237500X0.300000X-0.237500X0.300000X0.237500X-0.300000X0.237500X0*%
%TD*%
%TA.AperFunction,ComponentPad*%
%ADD32C,1.700000*%
%TD*%
%TA.AperFunction,SMDPad,CuDef*%
%ADD33FreePoly0,270.000000*%
%TD*%
%TA.AperFunction,SMDPad,CuDef*%
%ADD34FreePoly1,270.000000*%
%TD*%
%TA.AperFunction,ComponentPad*%
%ADD35RoundRect,0.250000X-0.600000X-0.750000X0.600000X-0.750000X0.600000X0.750000X-0.600000X0.750000X0*%
%TD*%
%TA.AperFunction,ComponentPad*%
%ADD36O,1.700000X2.000000*%
%TD*%
%TA.AperFunction,SMDPad,CuDef*%
%ADD37RoundRect,0.237500X0.237500X-0.300000X0.237500X0.300000X-0.237500X0.300000X-0.237500X-0.300000X0*%
%TD*%
%TA.AperFunction,ComponentPad*%
%ADD38R,1.200000X1.200000*%
%TD*%
%TA.AperFunction,ComponentPad*%
%ADD39C,1.200000*%
%TD*%
%TA.AperFunction,SMDPad,CuDef*%
%ADD40RoundRect,0.237500X0.250000X0.237500X-0.250000X0.237500X-0.250000X-0.237500X0.250000X-0.237500X0*%
%TD*%
%TA.AperFunction,SMDPad,CuDef*%
%ADD41R,1.560000X0.650000*%
%TD*%
%TA.AperFunction,SMDPad,CuDef*%
%ADD42R,1.800000X2.000000*%
%TD*%
%TA.AperFunction,SMDPad,CuDef*%
%ADD43R,1.120000X2.440000*%
%TD*%
%TA.AperFunction,ComponentPad*%
%ADD44R,1.050000X1.500000*%
%TD*%
%TA.AperFunction,ComponentPad*%
%ADD45O,1.050000X1.500000*%
%TD*%
%TA.AperFunction,ViaPad*%
%ADD46C,0.800000*%
%TD*%
%TA.AperFunction,Conductor*%
%ADD47C,0.500000*%
%TD*%
%TA.AperFunction,Conductor*%
%ADD48C,0.250000*%
%TD*%
G04 APERTURE END LIST*
D10*
%TO.P,X1,1,NC*%
%TO.N,+5V*%
X89662000Y-64643000D03*
D11*
%TO.P,X1,4,GND*%
%TO.N,GND*%
X97282000Y-64643000D03*
%TO.P,X1,5,OUT*%
%TO.N,/CPU& Bank Address Latching/CLK_UART*%
X97282000Y-57023000D03*
%TO.P,X1,8,Vcc*%
%TO.N,+5V*%
X89662000Y-57023000D03*
%TD*%
D12*
%TO.P,TP3,1,1*%
%TO.N,/CPU& Bank Address Latching/RES*%
X87122000Y-126238000D03*
%TD*%
D13*
%TO.P,J19,1,Pin_1*%
%TO.N,+5V*%
X132207000Y-135001000D03*
D14*
%TO.P,J19,2,Pin_2*%
%TO.N,GND*%
X132207000Y-132461000D03*
%TO.P,J19,3,Pin_3*%
%TO.N,+5V*%
X134747000Y-135001000D03*
%TO.P,J19,4,Pin_4*%
%TO.N,GND*%
X134747000Y-132461000D03*
%TO.P,J19,5,Pin_5*%
%TO.N,+5V*%
X137287000Y-135001000D03*
%TO.P,J19,6,Pin_6*%
%TO.N,GND*%
X137287000Y-132461000D03*
%TD*%
D10*
%TO.P,U11,1,A0*%
%TO.N,/CPU& Bank Address Latching/A11*%
X78232000Y-100330000D03*
D15*
%TO.P,U11,2,A1*%
%TO.N,/CPU& Bank Address Latching/A10*%
X80772000Y-100330000D03*
%TO.P,U11,3,A2*%
%TO.N,/CPU& Bank Address Latching/A9*%
X83312000Y-100330000D03*
%TO.P,U11,4,~{G2A}*%
%TO.N,/CPU& Bank Address Latching/A12*%
X85852000Y-100330000D03*
%TO.P,U11,5,~{G2B}*%
%TO.N,/IO/~{IOCS}*%
X88392000Y-100330000D03*
%TO.P,U11,6,G1*%
%TO.N,+5V*%
X90932000Y-100330000D03*
%TO.P,U11,7,~{Y7}*%
%TO.N,/IO/~{IO7}*%
X93472000Y-100330000D03*
%TO.P,U11,8,GND*%
%TO.N,GND*%
X96012000Y-100330000D03*
%TO.P,U11,9,~{Y6}*%
%TO.N,/IO/~{IO6}*%
X96012000Y-92710000D03*
%TO.P,U11,10,~{Y5}*%
%TO.N,/IO/~{IO5}*%
X93472000Y-92710000D03*
%TO.P,U11,11,~{Y4}*%
%TO.N,/IO/~{IO4}*%
X90932000Y-92710000D03*
%TO.P,U11,12,~{Y3}*%
%TO.N,/IO/~{IO3}*%
X88392000Y-92710000D03*
%TO.P,U11,13,~{Y2}*%
%TO.N,/IO/~{IO2}*%
X85852000Y-92710000D03*
%TO.P,U11,14,~{Y1}*%
%TO.N,/IO/~{IO1}*%
X83312000Y-92710000D03*
%TO.P,U11,15,~{Y0}*%
%TO.N,/IO/~{IO0}*%
X80772000Y-92710000D03*
%TO.P,U11,16,VCC*%
%TO.N,+5V*%
X78232000Y-92710000D03*
%TD*%
D16*
%TO.P,C13,1*%
%TO.N,+5V*%
X147320000Y-96292500D03*
%TO.P,C13,2*%
%TO.N,GND*%
X147320000Y-98017500D03*
%TD*%
D10*
%TO.P,U9,1,A14*%
%TO.N,/Memory/ROMSW1*%
X198882000Y-70876000D03*
D15*
%TO.P,U9,2,A12*%
%TO.N,/CPU& Bank Address Latching/A12*%
X201422000Y-70876000D03*
%TO.P,U9,3,A7*%
%TO.N,/CPU& Bank Address Latching/A7*%
X203962000Y-70876000D03*
%TO.P,U9,4,A6*%
%TO.N,/CPU& Bank Address Latching/A6*%
X206502000Y-70876000D03*
%TO.P,U9,5,A5*%
%TO.N,/CPU& Bank Address Latching/A5*%
X209042000Y-70876000D03*
%TO.P,U9,6,A4*%
%TO.N,/CPU& Bank Address Latching/A4*%
X211582000Y-70876000D03*
%TO.P,U9,7,A3*%
%TO.N,/CPU& Bank Address Latching/A3*%
X214122000Y-70876000D03*
%TO.P,U9,8,A2*%
%TO.N,/CPU& Bank Address Latching/A2*%
X216662000Y-70876000D03*
%TO.P,U9,9,A1*%
%TO.N,/CPU& Bank Address Latching/A1*%
X219202000Y-70876000D03*
%TO.P,U9,10,A0*%
%TO.N,/CPU& Bank Address Latching/A0*%
X221742000Y-70876000D03*
%TO.P,U9,11,D0*%
%TO.N,/CPU& Bank Address Latching/D0*%
X224282000Y-70876000D03*
%TO.P,U9,12,D1*%
%TO.N,/CPU& Bank Address Latching/D1*%
X226822000Y-70876000D03*
%TO.P,U9,13,D2*%
%TO.N,/CPU& Bank Address Latching/D2*%
X229362000Y-70876000D03*
%TO.P,U9,14,GND*%
%TO.N,GND*%
X231902000Y-70876000D03*
%TO.P,U9,15,D3*%
%TO.N,/CPU& Bank Address Latching/D3*%
X231902000Y-55636000D03*
%TO.P,U9,16,D4*%
%TO.N,/CPU& Bank Address Latching/D4*%
X229362000Y-55636000D03*
%TO.P,U9,17,D5*%
%TO.N,/CPU& Bank Address Latching/D5*%
X226822000Y-55636000D03*
%TO.P,U9,18,D6*%
%TO.N,/CPU& Bank Address Latching/D6*%
X224282000Y-55636000D03*
%TO.P,U9,19,D7*%
%TO.N,/CPU& Bank Address Latching/D7*%
X221742000Y-55636000D03*
%TO.P,U9,20,~{CS}*%
%TO.N,/Memory/~{ROMCS}*%
X219202000Y-55636000D03*
%TO.P,U9,21,A10*%
%TO.N,/CPU& Bank Address Latching/A10*%
X216662000Y-55636000D03*
%TO.P,U9,22,~{OE}*%
%TO.N,/Memory/~{RD}*%
X214122000Y-55636000D03*
%TO.P,U9,23,A11*%
%TO.N,/CPU& Bank Address Latching/A11*%
X211582000Y-55636000D03*
%TO.P,U9,24,A9*%
%TO.N,/CPU& Bank Address Latching/A9*%
X209042000Y-55636000D03*
%TO.P,U9,25,A8*%
%TO.N,/CPU& Bank Address Latching/A8*%
X206502000Y-55636000D03*
%TO.P,U9,26,A13*%
%TO.N,/Memory/ROMSW0*%
X203962000Y-55636000D03*
%TO.P,U9,27,~{WE}*%
%TO.N,+5V*%
X201422000Y-55636000D03*
%TO.P,U9,28,VCC*%
X198882000Y-55636000D03*
%TD*%
D17*
%TO.P,H1,1,1*%
%TO.N,GND*%
X75230056Y-43387944D03*
X73533000Y-42685000D03*
X75230056Y-46782056D03*
X73533000Y-47485000D03*
X71835944Y-46782056D03*
D18*
X73533000Y-45085000D03*
D17*
X71835944Y-43387944D03*
X75933000Y-45085000D03*
X71133000Y-45085000D03*
%TD*%
D19*
%TO.P,U12,1,D5*%
%TO.N,/CPU& Bank Address Latching/D5*%
X98142500Y-117558000D03*
%TO.P,U12,2,D6*%
%TO.N,/CPU& Bank Address Latching/D6*%
X98142500Y-117058000D03*
%TO.P,U12,3,D7*%
%TO.N,/CPU& Bank Address Latching/D7*%
X98142500Y-116558000D03*
%TO.P,U12,4,RXB*%
%TO.N,/IO/UART_RXB*%
X98142500Y-116058000D03*
%TO.P,U12,5,RXA*%
%TO.N,/IO/UART_RXA*%
X98142500Y-115558000D03*
%TO.P,U12,6,~{TXRDYB}*%
%TO.N,/IO/~{UART_TXRDYB}*%
X98142500Y-115058000D03*
%TO.P,U12,7,TXA*%
%TO.N,/IO/UART_TXA*%
X98142500Y-114558000D03*
%TO.P,U12,8,TXB*%
%TO.N,/IO/UART_TXB*%
X98142500Y-114058000D03*
%TO.P,U12,9,~{OPB}*%
%TO.N,/IO/~{UART_OPB}*%
X98142500Y-113558000D03*
%TO.P,U12,10,~{CSA}*%
%TO.N,/IO/~{IO1}*%
X98142500Y-113058000D03*
%TO.P,U12,11,~{CSB}*%
%TO.N,/IO/~{IO2}*%
X98142500Y-112558000D03*
%TO.P,U12,12,NC*%
%TO.N,unconnected-(U12-Pad12)*%
X98142500Y-112058000D03*
D20*
%TO.P,U12,13,XTAL1*%
%TO.N,/CPU& Bank Address Latching/CLK_UART*%
X96730000Y-110645500D03*
%TO.P,U12,14,XTAL2*%
%TO.N,unconnected-(U12-Pad14)*%
X96230000Y-110645500D03*
%TO.P,U12,15,~{IOW}*%
%TO.N,/Memory/~{WR}*%
X95730000Y-110645500D03*
%TO.P,U12,16,~{CDB}*%
%TO.N,/IO/~{UART_CDB}*%
X95230000Y-110645500D03*
%TO.P,U12,17,GND*%
%TO.N,GND*%
X94730000Y-110645500D03*
%TO.P,U12,18,~{RXRDYB}*%
%TO.N,/IO/~{UART_RXRDYB}*%
X94230000Y-110645500D03*
%TO.P,U12,19,~{IOR}*%
%TO.N,/Memory/~{RD}*%
X93730000Y-110645500D03*
%TO.P,U12,20,~{DSRB}*%
%TO.N,/IO/~{UART_DSRB}*%
X93230000Y-110645500D03*
%TO.P,U12,21,~{RIB}*%
%TO.N,/IO/~{UART_RIB}*%
X92730000Y-110645500D03*
%TO.P,U12,22,~{RTSB}*%
%TO.N,/IO/~{UART_RTSB}*%
X92230000Y-110645500D03*
%TO.P,U12,23,~{CTSB}*%
%TO.N,/IO/~{UART_CTSB}*%
X91730000Y-110645500D03*
%TO.P,U12,24,NC*%
%TO.N,unconnected-(U12-Pad24)*%
X91230000Y-110645500D03*
D19*
%TO.P,U12,25,NC*%
%TO.N,unconnected-(U12-Pad25)*%
X89817500Y-112058000D03*
%TO.P,U12,26,A2*%
%TO.N,/CPU& Bank Address Latching/A2*%
X89817500Y-112558000D03*
%TO.P,U12,27,A1*%
%TO.N,/CPU& Bank Address Latching/A1*%
X89817500Y-113058000D03*
%TO.P,U12,28,A0*%
%TO.N,/CPU& Bank Address Latching/A0*%
X89817500Y-113558000D03*
%TO.P,U12,29,INTB*%
%TO.N,/IO/UART_INTB*%
X89817500Y-114058000D03*
%TO.P,U12,30,INTA*%
%TO.N,/IO/UART_INTA*%
X89817500Y-114558000D03*
%TO.P,U12,31,~{RXRDYA}*%
%TO.N,/IO/~{UART_RXRDYA}*%
X89817500Y-115058000D03*
%TO.P,U12,32,~{OPA}*%
%TO.N,/IO/~{UART_OPA}*%
X89817500Y-115558000D03*
%TO.P,U12,33,~{RTSA}*%
%TO.N,/IO/~{UART_RTSA}*%
X89817500Y-116058000D03*
%TO.P,U12,34,~{DTRA}*%
%TO.N,/IO/~{UART_DTRA}*%
X89817500Y-116558000D03*
%TO.P,U12,35,~{DTRB}*%
%TO.N,/IO/~{UART_DTRB}*%
X89817500Y-117058000D03*
%TO.P,U12,36,RESET*%
%TO.N,/CPU& Bank Address Latching/RES*%
X89817500Y-117558000D03*
D20*
%TO.P,U12,37,NC*%
%TO.N,unconnected-(U12-Pad37)*%
X91230000Y-118970500D03*
%TO.P,U12,38,~{CTSA}*%
%TO.N,/IO/~{UART_CTSA}*%
X91730000Y-118970500D03*
%TO.P,U12,39,~{DSRA}*%
%TO.N,/IO/~{UART_DSRA}*%
X92230000Y-118970500D03*
%TO.P,U12,40,~{CDA}*%
%TO.N,/IO/~{UART_CDA}*%
X92730000Y-118970500D03*
%TO.P,U12,41,~{RIA}*%
%TO.N,/IO/~{UART_RIA}*%
X93230000Y-118970500D03*
%TO.P,U12,42,VCC*%
%TO.N,+5V*%
X93730000Y-118970500D03*
%TO.P,U12,43,~{TXRDYA}*%
%TO.N,/IO/~{UART_TXRDYA}*%
X94230000Y-118970500D03*
%TO.P,U12,44,D0*%
%TO.N,/CPU& Bank Address Latching/D0*%
X94730000Y-118970500D03*
%TO.P,U12,45,D1*%
%TO.N,/CPU& Bank Address Latching/D1*%
X95230000Y-118970500D03*
%TO.P,U12,46,D2*%
%TO.N,/CPU& Bank Address Latching/D2*%
X95730000Y-118970500D03*
%TO.P,U12,47,D3*%
%TO.N,/CPU& Bank Address Latching/D3*%
X96230000Y-118970500D03*
%TO.P,U12,48,D4*%
%TO.N,/CPU& Bank Address Latching/D4*%
X96730000Y-118970500D03*
%TD*%
D21*
%TO.P,TP7,1,1*%
%TO.N,GND*%
X124460000Y-72390000D03*
%TD*%
D17*
%TO.P,H4,1,1*%
%TO.N,GND*%
X232918000Y-132220000D03*
X232918000Y-137020000D03*
X234615056Y-132922944D03*
X231220944Y-136317056D03*
X235318000Y-134620000D03*
D18*
X232918000Y-134620000D03*
D17*
X230518000Y-134620000D03*
X231220944Y-132922944D03*
X234615056Y-136317056D03*
%TD*%
D13*
%TO.P,J9,1,Pin_1*%
%TO.N,/CPU& Bank Address Latching/D0*%
X227076000Y-133604000D03*
D14*
%TO.P,J9,2,Pin_2*%
%TO.N,/CPU& Bank Address Latching/D1*%
X224536000Y-133604000D03*
%TO.P,J9,3,Pin_3*%
%TO.N,/CPU& Bank Address Latching/D2*%
X221996000Y-133604000D03*
%TO.P,J9,4,Pin_4*%
%TO.N,/CPU& Bank Address Latching/D3*%
X219456000Y-133604000D03*
%TO.P,J9,5,Pin_5*%
%TO.N,/CPU& Bank Address Latching/D4*%
X216916000Y-133604000D03*
%TO.P,J9,6,Pin_6*%
%TO.N,/CPU& Bank Address Latching/D5*%
X214376000Y-133604000D03*
%TO.P,J9,7,Pin_7*%
%TO.N,/CPU& Bank Address Latching/D6*%
X211836000Y-133604000D03*
%TO.P,J9,8,Pin_8*%
%TO.N,/CPU& Bank Address Latching/D7*%
X209296000Y-133604000D03*
%TD*%
D17*
%TO.P,H3,1,1*%
%TO.N,GND*%
X73533000Y-132093000D03*
X73533000Y-136893000D03*
X71133000Y-134493000D03*
X71835944Y-132795944D03*
X71835944Y-136190056D03*
X75933000Y-134493000D03*
X75230056Y-136190056D03*
X75230056Y-132795944D03*
D18*
X73533000Y-134493000D03*
%TD*%
D22*
%TO.P,D1,1,K*%
%TO.N,Net-(D1-Pad1)*%
X222847500Y-46106000D03*
%TO.P,D1,2,A*%
%TO.N,/CPU& Bank Address Latching/RES*%
X221097500Y-46106000D03*
%TD*%
D10*
%TO.P,U13,1,VSS*%
%TO.N,GND*%
X129667000Y-119766000D03*
D15*
%TO.P,U13,2,PA0*%
%TO.N,/IO/VIA_PA0*%
X132207000Y-119766000D03*
%TO.P,U13,3,PA1*%
%TO.N,/IO/VIA_PA1*%
X134747000Y-119766000D03*
%TO.P,U13,4,PA2*%
%TO.N,/IO/VIA_PA2*%
X137287000Y-119766000D03*
%TO.P,U13,5,PA3*%
%TO.N,/IO/VIA_PA3*%
X139827000Y-119766000D03*
%TO.P,U13,6,PA4*%
%TO.N,/IO/VIA_PA4*%
X142367000Y-119766000D03*
%TO.P,U13,7,PA5*%
%TO.N,/IO/VIA_PA5*%
X144907000Y-119766000D03*
%TO.P,U13,8,PA6*%
%TO.N,/IO/VIA_PA6*%
X147447000Y-119766000D03*
%TO.P,U13,9,PA7*%
%TO.N,/IO/VIA_PA7*%
X149987000Y-119766000D03*
%TO.P,U13,10,PB0*%
%TO.N,/IO/VIA_PB0*%
X152527000Y-119766000D03*
%TO.P,U13,11,PB1*%
%TO.N,/IO/VIA_PB1*%
X155067000Y-119766000D03*
%TO.P,U13,12,PB2*%
%TO.N,/IO/VIA_PB2*%
X157607000Y-119766000D03*
%TO.P,U13,13,PB3*%
%TO.N,/IO/VIA_PB3*%
X160147000Y-119766000D03*
%TO.P,U13,14,PB4*%
%TO.N,/IO/VIA_PB4*%
X162687000Y-119766000D03*
%TO.P,U13,15,PB5*%
%TO.N,/IO/VIA_PB5*%
X165227000Y-119766000D03*
%TO.P,U13,16,PB6*%
%TO.N,/IO/VIA_PB6*%
X167767000Y-119766000D03*
%TO.P,U13,17,PB7*%
%TO.N,/IO/VIA_PB7*%
X170307000Y-119766000D03*
%TO.P,U13,18,CB1*%
%TO.N,/IO/VIA_CB1*%
X172847000Y-119766000D03*
%TO.P,U13,19,CB2*%
%TO.N,/IO/VIA_CB2*%
X175387000Y-119766000D03*
%TO.P,U13,20,VDD*%
%TO.N,+5V*%
X177927000Y-119766000D03*
%TO.P,U13,21,~{IRQ}*%
%TO.N,/CPU& Bank Address Latching/~{NMI}*%
X177927000Y-104526000D03*
%TO.P,U13,22,~{RW}*%
%TO.N,/CPU& Bank Address Latching/~{RW}*%
X175387000Y-104526000D03*
%TO.P,U13,23,~{CS2}*%
%TO.N,/IO/~{IO0}*%
X172847000Y-104526000D03*
%TO.P,U13,24,CS1*%
%TO.N,+5V*%
X170307000Y-104526000D03*
%TO.P,U13,25,~{PHI2}*%
%TO.N,/CPU& Bank Address Latching/CLK*%
X167767000Y-104526000D03*
%TO.P,U13,26,D7*%
%TO.N,/CPU& Bank Address Latching/D7*%
X165227000Y-104526000D03*
%TO.P,U13,27,D6*%
%TO.N,/CPU& Bank Address Latching/D6*%
X162687000Y-104526000D03*
%TO.P,U13,28,D5*%
%TO.N,/CPU& Bank Address Latching/D5*%
X160147000Y-104526000D03*
%TO.P,U13,29,D4*%
%TO.N,/CPU& Bank Address Latching/D4*%
X157607000Y-104526000D03*
%TO.P,U13,30,D3*%
%TO.N,/CPU& Bank Address Latching/D3*%
X155067000Y-104526000D03*
%TO.P,U13,31,D2*%
%TO.N,/CPU& Bank Address Latching/D2*%
X152527000Y-104526000D03*
%TO.P,U13,32,D1*%
%TO.N,/CPU& Bank Address Latching/D1*%
X149987000Y-104526000D03*
%TO.P,U13,33,D0*%
%TO.N,/CPU& Bank Address Latching/D0*%
X147447000Y-104526000D03*
%TO.P,U13,34,~{RES}*%
%TO.N,/CPU& Bank Address Latching/~{RES}*%
X144907000Y-104526000D03*
%TO.P,U13,35,RS3*%
%TO.N,/CPU& Bank Address Latching/A3*%
X142367000Y-104526000D03*
%TO.P,U13,36,RS2*%
%TO.N,/CPU& Bank Address Latching/A2*%
X139827000Y-104526000D03*
%TO.P,U13,37,RS1*%
%TO.N,/CPU& Bank Address Latching/A1*%
X137287000Y-104526000D03*
%TO.P,U13,38,RS0*%
%TO.N,/CPU& Bank Address Latching/A0*%
X134747000Y-104526000D03*
%TO.P,U13,39,CA2*%
%TO.N,/IO/VIA_CA2*%
X132207000Y-104526000D03*
%TO.P,U13,40,CA1*%
%TO.N,/IO/VIA_CA1*%
X129667000Y-104526000D03*
%TD*%
D23*
%TO.P,R13,1*%
%TO.N,/CPU& Bank Address Latching/D6*%
X211836000Y-128420500D03*
%TO.P,R13,2*%
%TO.N,+5V*%
X211836000Y-126595500D03*
%TD*%
D21*
%TO.P,TP8,1,1*%
%TO.N,GND*%
X188341000Y-104394000D03*
%TD*%
D10*
%TO.P,X2,1,NC*%
%TO.N,+5V*%
X73787000Y-64770000D03*
D11*
%TO.P,X2,4,GND*%
%TO.N,GND*%
X81407000Y-64770000D03*
%TO.P,X2,5,OUT*%
%TO.N,Net-(JP2-Pad3)*%
X81407000Y-57150000D03*
%TO.P,X2,8,Vcc*%
%TO.N,+5V*%
X73787000Y-57150000D03*
%TD*%
D24*
%TO.P,R16,1*%
%TO.N,/Memory/ROMSW1*%
X186690000Y-80367500D03*
%TO.P,R16,2*%
%TO.N,GND*%
X186690000Y-82192500D03*
%TD*%
D25*
%TO.P,LS1,1,1*%
%TO.N,/IO/SPEAKER*%
X118237000Y-111887000D03*
D26*
%TO.P,LS1,2,2*%
%TO.N,GND*%
X113237000Y-111887000D03*
%TD*%
D27*
%TO.P,U1,1,NC*%
%TO.N,GND*%
X177312500Y-62865000D03*
%TO.P,U1,2,A16*%
X177312500Y-64135000D03*
%TO.P,U1,3,A15*%
X177312500Y-65405000D03*
%TO.P,U1,4,A12*%
%TO.N,/CPU& Bank Address Latching/A12*%
X177312500Y-66675000D03*
D28*
%TO.P,U1,5,A7*%
%TO.N,/CPU& Bank Address Latching/A7*%
X179070000Y-68427500D03*
%TO.P,U1,6,A6*%
%TO.N,/CPU& Bank Address Latching/A6*%
X180340000Y-68427500D03*
%TO.P,U1,7,A5*%
%TO.N,/CPU& Bank Address Latching/A5*%
X181610000Y-68427500D03*
%TO.P,U1,8,A4*%
%TO.N,/CPU& Bank Address Latching/A4*%
X182880000Y-68427500D03*
%TO.P,U1,9,A3*%
%TO.N,/CPU& Bank Address Latching/A3*%
X184150000Y-68427500D03*
%TO.P,U1,10,A2*%
%TO.N,/CPU& Bank Address Latching/A2*%
X185420000Y-68427500D03*
%TO.P,U1,11,A1*%
%TO.N,/CPU& Bank Address Latching/A1*%
X186690000Y-68427500D03*
%TO.P,U1,12,A0*%
%TO.N,/CPU& Bank Address Latching/A0*%
X187960000Y-68427500D03*
%TO.P,U1,13,D0*%
%TO.N,/CPU& Bank Address Latching/D0*%
X189230000Y-68427500D03*
D27*
%TO.P,U1,14,D1*%
%TO.N,/CPU& Bank Address Latching/D1*%
X190987500Y-66675000D03*
%TO.P,U1,15,D2*%
%TO.N,/CPU& Bank Address Latching/D2*%
X190987500Y-65405000D03*
%TO.P,U1,16,GND*%
%TO.N,GND*%
X190987500Y-64135000D03*
%TO.P,U1,17,D3*%
%TO.N,/CPU& Bank Address Latching/D3*%
X190987500Y-62865000D03*
%TO.P,U1,18,D4*%
%TO.N,/CPU& Bank Address Latching/D4*%
X190987500Y-61595000D03*
%TO.P,U1,19,D5*%
%TO.N,/CPU& Bank Address Latching/D5*%
X190987500Y-60325000D03*
%TO.P,U1,20,D6*%
%TO.N,/CPU& Bank Address Latching/D6*%
X190987500Y-59055000D03*
D28*
%TO.P,U1,21,D7*%
%TO.N,/CPU& Bank Address Latching/D7*%
X189230000Y-57302500D03*
%TO.P,U1,22,CE*%
%TO.N,/Memory/~{RD}*%
X187960000Y-57302500D03*
%TO.P,U1,23,A10*%
%TO.N,/CPU& Bank Address Latching/A10*%
X186690000Y-57302500D03*
%TO.P,U1,24,OE*%
%TO.N,/Memory/~{ROMCS}*%
X185420000Y-57302500D03*
%TO.P,U1,25,A11*%
%TO.N,/CPU& Bank Address Latching/A11*%
X184150000Y-57302500D03*
%TO.P,U1,26,A9*%
%TO.N,/CPU& Bank Address Latching/A9*%
X182880000Y-57302500D03*
%TO.P,U1,27,A8*%
%TO.N,/CPU& Bank Address Latching/A8*%
X181610000Y-57302500D03*
%TO.P,U1,28,A13*%
%TO.N,/Memory/ROMSW0*%
X180340000Y-57302500D03*
%TO.P,U1,29,A14*%
%TO.N,/Memory/ROMSW1*%
X179070000Y-57302500D03*
D27*
%TO.P,U1,30,NC*%
%TO.N,GND*%
X177312500Y-59055000D03*
%TO.P,U1,31,PGM*%
%TO.N,+5V*%
X177312500Y-60325000D03*
%TO.P,U1,32,VCC*%
X177312500Y-61595000D03*
%TD*%
D29*
%TO.P,C3,1*%
%TO.N,+5V*%
X140562500Y-64470000D03*
%TO.P,C3,2*%
%TO.N,GND*%
X138837500Y-64470000D03*
%TD*%
D13*
%TO.P,J14,1,Pin_1*%
%TO.N,/CPU& Bank Address Latching/~{VP}*%
X117221000Y-93345000D03*
D14*
%TO.P,J14,2,Pin_2*%
%TO.N,/CPU& Bank Address Latching/RDY*%
X117221000Y-90805000D03*
%TO.P,J14,3,Pin_3*%
%TO.N,/CPU& Bank Address Latching/~{RES}*%
X117221000Y-88265000D03*
%TO.P,J14,4,Pin_4*%
%TO.N,/CPU& Bank Address Latching/~{ABORT}*%
X117221000Y-85725000D03*
%TO.P,J14,5,Pin_5*%
%TO.N,/CPU& Bank Address Latching/~{NMI}*%
X117221000Y-83185000D03*
%TO.P,J14,6,Pin_6*%
%TO.N,/CPU& Bank Address Latching/BE*%
X117221000Y-80645000D03*
%TD*%
D13*
%TO.P,J20,1,Pin_1*%
%TO.N,GND*%
X187330000Y-119126000D03*
D14*
%TO.P,J20,2,Pin_2*%
X184790000Y-119126000D03*
%TD*%
D23*
%TO.P,R10,1*%
%TO.N,/CPU& Bank Address Latching/D3*%
X219456000Y-128420500D03*
%TO.P,R10,2*%
%TO.N,+5V*%
X219456000Y-126595500D03*
%TD*%
D30*
%TO.P,R3,1*%
%TO.N,/CPU& Bank Address Latching/BE*%
X121134500Y-80645000D03*
%TO.P,R3,2*%
%TO.N,+5V*%
X122959500Y-80645000D03*
%TD*%
D22*
%TO.P,D3,1,K*%
%TO.N,Net-(D3-Pad1)*%
X163943000Y-42926000D03*
%TO.P,D3,2,A*%
%TO.N,/CPU& Bank Address Latching/EMU*%
X162193000Y-42926000D03*
%TD*%
D31*
%TO.P,C12,1*%
%TO.N,+5V*%
X105817500Y-53975000D03*
%TO.P,C12,2*%
%TO.N,GND*%
X107542500Y-53975000D03*
%TD*%
D13*
%TO.P,JP3,1,A*%
%TO.N,GND*%
X109220000Y-72136000D03*
D14*
%TO.P,JP3,2,B*%
%TO.N,/Memory/S0*%
X106680000Y-72136000D03*
%TD*%
D29*
%TO.P,C4,1*%
%TO.N,+5V*%
X140582500Y-51720000D03*
%TO.P,C4,2*%
%TO.N,GND*%
X138857500Y-51720000D03*
%TD*%
D17*
%TO.P,H2,1,1*%
%TO.N,GND*%
X232791000Y-47612000D03*
X230391000Y-45212000D03*
X235191000Y-45212000D03*
X231093944Y-43514944D03*
X231093944Y-46909056D03*
X234488056Y-43514944D03*
X232791000Y-42812000D03*
D18*
X232791000Y-45212000D03*
D17*
X234488056Y-46909056D03*
%TD*%
D13*
%TO.P,J6,1,Pin_1*%
%TO.N,+5V*%
X142429609Y-134946609D03*
D14*
%TO.P,J6,2,Pin_2*%
%TO.N,GND*%
X142429609Y-132406609D03*
%TO.P,J6,3,Pin_3*%
%TO.N,/IO/VIA_CA1*%
X144969609Y-134946609D03*
%TO.P,J6,4,Pin_4*%
%TO.N,/IO/VIA_CA2*%
X144969609Y-132406609D03*
%TO.P,J6,5,Pin_5*%
%TO.N,/IO/VIA_PA0*%
X147509609Y-134946609D03*
%TO.P,J6,6,Pin_6*%
%TO.N,/IO/VIA_PA1*%
X147509609Y-132406609D03*
%TO.P,J6,7,Pin_7*%
%TO.N,/IO/VIA_PA2*%
X150049609Y-134946609D03*
%TO.P,J6,8,Pin_8*%
%TO.N,/IO/VIA_PA3*%
X150049609Y-132406609D03*
%TO.P,J6,9,Pin_9*%
%TO.N,/IO/VIA_PA4*%
X152589609Y-134946609D03*
%TO.P,J6,10,Pin_10*%
%TO.N,/IO/VIA_PA5*%
X152589609Y-132406609D03*
%TO.P,J6,11,Pin_11*%
%TO.N,/IO/VIA_PA6*%
X155129609Y-134946609D03*
%TO.P,J6,12,Pin_12*%
%TO.N,/IO/VIA_PA7*%
X155129609Y-132406609D03*
%TD*%
D21*
%TO.P,TP11,1,1*%
%TO.N,/CPU& Bank Address Latching/CLK_UART*%
X123698000Y-50546000D03*
%TD*%
D13*
%TO.P,J10,1,Pin_1*%
%TO.N,/CPU& Bank Address Latching/A8*%
X201930000Y-126746000D03*
D14*
%TO.P,J10,2,Pin_2*%
%TO.N,/CPU& Bank Address Latching/A9*%
X199390000Y-126746000D03*
%TO.P,J10,3,Pin_3*%
%TO.N,/CPU& Bank Address Latching/A10*%
X196850000Y-126746000D03*
%TO.P,J10,4,Pin_4*%
%TO.N,/CPU& Bank Address Latching/A11*%
X194310000Y-126746000D03*
%TO.P,J10,5,Pin_5*%
%TO.N,/CPU& Bank Address Latching/A12*%
X191770000Y-126746000D03*
%TO.P,J10,6,Pin_6*%
%TO.N,/CPU& Bank Address Latching/A13*%
X189230000Y-126746000D03*
%TO.P,J10,7,Pin_7*%
%TO.N,/CPU& Bank Address Latching/A14*%
X186690000Y-126746000D03*
%TO.P,J10,8,Pin_8*%
%TO.N,/CPU& Bank Address Latching/A15*%
X184150000Y-126746000D03*
%TD*%
D23*
%TO.P,R14,1*%
%TO.N,/CPU& Bank Address Latching/D7*%
X209296000Y-128420500D03*
%TO.P,R14,2*%
%TO.N,+5V*%
X209296000Y-126595500D03*
%TD*%
D32*
%TO.P,SW1,1,1*%
%TO.N,GND*%
X174550000Y-43470000D03*
%TO.P,SW1,2,2*%
%TO.N,/CPU& Bank Address Latching/~{RES_BTN}*%
X181050000Y-43470000D03*
%TO.P,SW1,3*%
%TO.N,N/C*%
X174550000Y-47970000D03*
%TO.P,SW1,4*%
X181050000Y-47970000D03*
%TD*%
D33*
%TO.P,JP5,1,A*%
%TO.N,/CPU& Bank Address Latching/~{RES_BTN}*%
X140081000Y-43688000D03*
D34*
%TO.P,JP5,2,B*%
%TO.N,/CPU& Bank Address Latching/~{RES}*%
X140081000Y-44988000D03*
%TD*%
D35*
%TO.P,J3,1,Pin_1*%
%TO.N,+5V*%
X84582000Y-45974000D03*
D36*
%TO.P,J3,2,Pin_2*%
%TO.N,GND*%
X87082000Y-45974000D03*
%TD*%
D10*
%TO.P,U7,1,A18*%
%TO.N,/CPU& Bank Address Latching/A18*%
X193802000Y-95641000D03*
D15*
%TO.P,U7,2,A16*%
%TO.N,/CPU& Bank Address Latching/A16*%
X196342000Y-95641000D03*
%TO.P,U7,3,A14*%
%TO.N,/CPU& Bank Address Latching/A14*%
X198882000Y-95641000D03*
%TO.P,U7,4,A12*%
%TO.N,/CPU& Bank Address Latching/A12*%
X201422000Y-95641000D03*
%TO.P,U7,5,A7*%
%TO.N,/CPU& Bank Address Latching/A7*%
X203962000Y-95641000D03*
%TO.P,U7,6,A6*%
%TO.N,/CPU& Bank Address Latching/A6*%
X206502000Y-95641000D03*
%TO.P,U7,7,A5*%
%TO.N,/CPU& Bank Address Latching/A5*%
X209042000Y-95641000D03*
%TO.P,U7,8,A4*%
%TO.N,/CPU& Bank Address Latching/A4*%
X211582000Y-95641000D03*
%TO.P,U7,9,A3*%
%TO.N,/CPU& Bank Address Latching/A3*%
X214122000Y-95641000D03*
%TO.P,U7,10,A2*%
%TO.N,/CPU& Bank Address Latching/A2*%
X216662000Y-95641000D03*
%TO.P,U7,11,A1*%
%TO.N,/CPU& Bank Address Latching/A1*%
X219202000Y-95641000D03*
%TO.P,U7,12,A0*%
%TO.N,/CPU& Bank Address Latching/A0*%
X221742000Y-95641000D03*
%TO.P,U7,13,DQ0*%
%TO.N,/CPU& Bank Address Latching/D0*%
X224282000Y-95641000D03*
%TO.P,U7,14,DQ1*%
%TO.N,/CPU& Bank Address Latching/D1*%
X226822000Y-95641000D03*
%TO.P,U7,15,DQ2*%
%TO.N,/CPU& Bank Address Latching/D2*%
X229362000Y-95641000D03*
%TO.P,U7,16,VSS*%
%TO.N,GND*%
X231902000Y-95641000D03*
%TO.P,U7,17,DQ3*%
%TO.N,/CPU& Bank Address Latching/D3*%
X231902000Y-80401000D03*
%TO.P,U7,18,DQ4*%
%TO.N,/CPU& Bank Address Latching/D4*%
X229362000Y-80401000D03*
%TO.P,U7,19,DQ5*%
%TO.N,/CPU& Bank Address Latching/D5*%
X226822000Y-80401000D03*
%TO.P,U7,20,DQ6*%
%TO.N,/CPU& Bank Address Latching/D6*%
X224282000Y-80401000D03*
%TO.P,U7,21,DQ7*%
%TO.N,/CPU& Bank Address Latching/D7*%
X221742000Y-80401000D03*
%TO.P,U7,22,~{CE}*%
%TO.N,/Memory/~{RAM0CS}*%
X219202000Y-80401000D03*
%TO.P,U7,23,A10*%
%TO.N,/CPU& Bank Address Latching/A10*%
X216662000Y-80401000D03*
%TO.P,U7,24,~{OE}*%
%TO.N,/Memory/~{RD}*%
X214122000Y-80401000D03*
%TO.P,U7,25,A11*%
%TO.N,/CPU& Bank Address Latching/A11*%
X211582000Y-80401000D03*
%TO.P,U7,26,A9*%
%TO.N,/CPU& Bank Address Latching/A9*%
X209042000Y-80401000D03*
%TO.P,U7,27,A8*%
%TO.N,/CPU& Bank Address Latching/A8*%
X206502000Y-80401000D03*
%TO.P,U7,28,A13*%
%TO.N,/CPU& Bank Address Latching/A13*%
X203962000Y-80401000D03*
%TO.P,U7,29,~{WE}*%
%TO.N,/Memory/~{WR}*%
X201422000Y-80401000D03*
%TO.P,U7,30,A17*%
%TO.N,/CPU& Bank Address Latching/A17*%
X198882000Y-80401000D03*
%TO.P,U7,31,A15*%
%TO.N,/CPU& Bank Address Latching/A15*%
X196342000Y-80401000D03*
%TO.P,U7,32,VCC*%
%TO.N,+5V*%
X193802000Y-80401000D03*
%TD*%
D16*
%TO.P,C14,1*%
%TO.N,+5V*%
X170815000Y-61595000D03*
%TO.P,C14,2*%
%TO.N,GND*%
X170815000Y-63320000D03*
%TD*%
%TO.P,C7,1*%
%TO.N,+5V*%
X75438000Y-75845500D03*
%TO.P,C7,2*%
%TO.N,GND*%
X75438000Y-77570500D03*
%TD*%
D23*
%TO.P,R8,1*%
%TO.N,/CPU& Bank Address Latching/D1*%
X224536000Y-128420500D03*
%TO.P,R8,2*%
%TO.N,+5V*%
X224536000Y-126595500D03*
%TD*%
D13*
%TO.P,J17,1,Pin_1*%
%TO.N,/Memory/S1*%
X80772000Y-71882000D03*
D14*
%TO.P,J17,2,Pin_2*%
%TO.N,/Memory/S2*%
X78232000Y-71882000D03*
%TO.P,J17,3,Pin_3*%
%TO.N,/Memory/S3*%
X75692000Y-71882000D03*
%TO.P,J17,4,Pin_4*%
%TO.N,/Memory/S4*%
X73152000Y-71882000D03*
%TD*%
D13*
%TO.P,J13,1,Pin_1*%
%TO.N,/CPU& Bank Address Latching/MX*%
X135128000Y-69342000D03*
D14*
%TO.P,J13,2,Pin_2*%
%TO.N,/CPU& Bank Address Latching/~{ML}*%
X135128000Y-66802000D03*
%TO.P,J13,3,Pin_3*%
%TO.N,/CPU& Bank Address Latching/EMU*%
X135128000Y-64262000D03*
%TO.P,J13,4,Pin_4*%
%TO.N,/CPU& Bank Address Latching/VDA*%
X135128000Y-61722000D03*
%TO.P,J13,5,Pin_5*%
%TO.N,/CPU& Bank Address Latching/VPA*%
X135128000Y-59182000D03*
%TO.P,J13,6,Pin_6*%
%TO.N,/CPU& Bank Address Latching/~{RW}*%
X135128000Y-56642000D03*
%TD*%
D13*
%TO.P,JP4,1,A*%
%TO.N,/CPU& Bank Address Latching/~{IRQ}*%
X106807000Y-92379000D03*
D14*
%TO.P,JP4,2,B*%
%TO.N,+5V*%
X106807000Y-89839000D03*
%TD*%
D13*
%TO.P,J5,1,Pin_1*%
%TO.N,/IO/~{UART_DTRB}*%
X75570000Y-121920000D03*
D14*
%TO.P,J5,2,Pin_2*%
%TO.N,/IO/~{UART_DSRB}*%
X73030000Y-121920000D03*
%TO.P,J5,3,Pin_3*%
%TO.N,/IO/~{UART_OPB}*%
X75570000Y-119380000D03*
%TO.P,J5,4,Pin_4*%
%TO.N,/IO/~{UART_CTSB}*%
X73030000Y-119380000D03*
%TO.P,J5,5,Pin_5*%
%TO.N,/IO/~{UART_RIB}*%
X75570000Y-116840000D03*
%TO.P,J5,6,Pin_6*%
%TO.N,/IO/~{UART_CDB}*%
X73030000Y-116840000D03*
%TO.P,J5,7,Pin_7*%
%TO.N,/IO/~{UART_RXRDYB}*%
X75570000Y-114300000D03*
%TO.P,J5,8,Pin_8*%
%TO.N,/IO/UART_RXB*%
X73030000Y-114300000D03*
%TO.P,J5,9,Pin_9*%
%TO.N,/IO/~{UART_TXRDYB}*%
X75570000Y-111760000D03*
%TO.P,J5,10,Pin_10*%
%TO.N,/IO/UART_TXB*%
X73030000Y-111760000D03*
%TO.P,J5,11,Pin_11*%
%TO.N,/IO/~{UART_RTSB}*%
X75570000Y-109220000D03*
%TO.P,J5,12,Pin_12*%
%TO.N,GND*%
X73030000Y-109220000D03*
%TD*%
D10*
%TO.P,U10,1,~{R}*%
%TO.N,+5V*%
X105405000Y-64633000D03*
D15*
%TO.P,U10,2,D*%
%TO.N,/CPU& Bank Address Latching/CLK*%
X107945000Y-64633000D03*
%TO.P,U10,3,C*%
%TO.N,Net-(JP2-Pad2)*%
X110485000Y-64633000D03*
%TO.P,U10,4,~{S}*%
%TO.N,+5V*%
X113025000Y-64633000D03*
%TO.P,U10,5,Q*%
%TO.N,/CPU& Bank Address Latching/CLK*%
X115565000Y-64633000D03*
%TO.P,U10,6,~{Q}*%
%TO.N,/CPU& Bank Address Latching/CLK_INV*%
X118105000Y-64633000D03*
%TO.P,U10,7,GND*%
%TO.N,GND*%
X120645000Y-64633000D03*
%TO.P,U10,8,~{Q}*%
%TO.N,unconnected-(U10-Pad8)*%
X120645000Y-57013000D03*
%TO.P,U10,9,Q*%
%TO.N,unconnected-(U10-Pad9)*%
X118105000Y-57013000D03*
%TO.P,U10,10,~{S}*%
%TO.N,+5V*%
X115565000Y-57013000D03*
%TO.P,U10,11,C*%
X113025000Y-57013000D03*
%TO.P,U10,12,D*%
X110485000Y-57013000D03*
%TO.P,U10,13,~{R}*%
X107945000Y-57013000D03*
%TO.P,U10,14,VCC*%
X105405000Y-57013000D03*
%TD*%
D10*
%TO.P,U6,1,Clock*%
%TO.N,/CPU& Bank Address Latching/CLK*%
X78608000Y-83302000D03*
D15*
%TO.P,U6,2,RW*%
%TO.N,/CPU& Bank Address Latching/~{RW}*%
X81148000Y-83302000D03*
%TO.P,U6,3,VPA*%
%TO.N,/CPU& Bank Address Latching/VPA*%
X83688000Y-83302000D03*
%TO.P,U6,4,VDA*%
%TO.N,/CPU& Bank Address Latching/VDA*%
X86228000Y-83302000D03*
%TO.P,U6,5,A19*%
%TO.N,/CPU& Bank Address Latching/A19*%
X88768000Y-83302000D03*
%TO.P,U6,6,A18*%
%TO.N,/CPU& Bank Address Latching/A18*%
X91308000Y-83302000D03*
%TO.P,U6,7,A17*%
%TO.N,/CPU& Bank Address Latching/A17*%
X93848000Y-83302000D03*
%TO.P,U6,8,A16*%
%TO.N,/CPU& Bank Address Latching/A16*%
X96388000Y-83302000D03*
%TO.P,U6,9,A15*%
%TO.N,/CPU& Bank Address Latching/A15*%
X98928000Y-83302000D03*
%TO.P,U6,10,A14*%
%TO.N,/CPU& Bank Address Latching/A14*%
X101468000Y-83302000D03*
%TO.P,U6,11,A13*%
%TO.N,/CPU& Bank Address Latching/A13*%
X104008000Y-83302000D03*
%TO.P,U6,12,GND*%
%TO.N,GND*%
X106548000Y-83302000D03*
%TO.P,U6,13,S0*%
%TO.N,/Memory/S0*%
X106548000Y-75682000D03*
%TO.P,U6,14,~{RAM0}*%
%TO.N,/Memory/~{RAM0CS}*%
X104008000Y-75682000D03*
%TO.P,U6,15,~{RAM1}*%
%TO.N,/Memory/~{RAM1CS}*%
X101468000Y-75682000D03*
%TO.P,U6,16,~{ROM}*%
%TO.N,/Memory/~{ROMCS}*%
X98928000Y-75682000D03*
%TO.P,U6,17,~{IO}*%
%TO.N,/IO/~{IOCS}*%
X96388000Y-75682000D03*
%TO.P,U6,18,~{RD}*%
%TO.N,/Memory/~{RD}*%
X93848000Y-75682000D03*
%TO.P,U6,19,~{WR}*%
%TO.N,/Memory/~{WR}*%
X91308000Y-75682000D03*
%TO.P,U6,20,S1*%
%TO.N,/Memory/S1*%
X88768000Y-75682000D03*
%TO.P,U6,21,S2*%
%TO.N,/Memory/S2*%
X86228000Y-75682000D03*
%TO.P,U6,22,S3*%
%TO.N,/Memory/S3*%
X83688000Y-75682000D03*
%TO.P,U6,23,S4*%
%TO.N,/Memory/S4*%
X81148000Y-75682000D03*
%TO.P,U6,24,VCC*%
%TO.N,+5V*%
X78608000Y-75682000D03*
%TD*%
D37*
%TO.P,C1,1*%
%TO.N,+5V*%
X75438000Y-91286500D03*
%TO.P,C1,2*%
%TO.N,GND*%
X75438000Y-89561500D03*
%TD*%
D29*
%TO.P,C6,1*%
%TO.N,+5V*%
X73760500Y-53086000D03*
%TO.P,C6,2*%
%TO.N,GND*%
X72035500Y-53086000D03*
%TD*%
D38*
%TO.P,C16,1*%
%TO.N,+5V*%
X130683000Y-125857000D03*
D39*
%TO.P,C16,2*%
%TO.N,GND*%
X132183000Y-125857000D03*
%TD*%
D13*
%TO.P,J16,1,Pin_1*%
%TO.N,/Memory/~{RAM0CS}*%
X98298000Y-72136000D03*
D14*
%TO.P,J16,2,Pin_2*%
%TO.N,/Memory/~{RAM1CS}*%
X95758000Y-72136000D03*
%TO.P,J16,3,Pin_3*%
%TO.N,/Memory/~{ROMCS}*%
X93218000Y-72136000D03*
%TO.P,J16,4,Pin_4*%
%TO.N,/IO/~{IOCS}*%
X90678000Y-72136000D03*
%TO.P,J16,5,Pin_5*%
%TO.N,/Memory/~{RD}*%
X88138000Y-72136000D03*
%TO.P,J16,6,Pin_6*%
%TO.N,/Memory/~{WR}*%
X85598000Y-72136000D03*
%TD*%
D40*
%TO.P,R6,1*%
%TO.N,Net-(J1-Pad2)*%
X106830500Y-47879000D03*
%TO.P,R6,2*%
%TO.N,GND*%
X105005500Y-47879000D03*
%TD*%
D21*
%TO.P,TP9,1,1*%
%TO.N,GND*%
X118110000Y-99314000D03*
%TD*%
D24*
%TO.P,R15,1*%
%TO.N,/Memory/ROMSW0*%
X188595000Y-80367500D03*
%TO.P,R15,2*%
%TO.N,GND*%
X188595000Y-82192500D03*
%TD*%
D23*
%TO.P,R7,1*%
%TO.N,/CPU& Bank Address Latching/D0*%
X227076000Y-128420500D03*
%TO.P,R7,2*%
%TO.N,+5V*%
X227076000Y-126595500D03*
%TD*%
%TO.P,R11,1*%
%TO.N,/CPU& Bank Address Latching/D4*%
X216916000Y-128420500D03*
%TO.P,R11,2*%
%TO.N,+5V*%
X216916000Y-126595500D03*
%TD*%
D30*
%TO.P,R4,1*%
%TO.N,Net-(D1-Pad1)*%
X225505000Y-46106000D03*
%TO.P,R4,2*%
%TO.N,GND*%
X227330000Y-46106000D03*
%TD*%
D13*
%TO.P,J2,1,Pin_1*%
%TO.N,/CPU& Bank Address Latching/~{RES_BTN}*%
X94483000Y-44450000D03*
D14*
%TO.P,J2,2,Pin_2*%
%TO.N,GND*%
X97023000Y-44450000D03*
%TD*%
D16*
%TO.P,C5,1*%
%TO.N,+5V*%
X178054000Y-122735000D03*
%TO.P,C5,2*%
%TO.N,GND*%
X178054000Y-124460000D03*
%TD*%
D41*
%TO.P,U5,1,~{RST}*%
%TO.N,/CPU& Bank Address Latching/~{RES}*%
X97470000Y-50160000D03*
%TO.P,U5,2,GND*%
%TO.N,GND*%
X97470000Y-49210000D03*
%TO.P,U5,3,RST*%
%TO.N,/CPU& Bank Address Latching/RES*%
X97470000Y-48260000D03*
%TO.P,U5,4,~{MR}*%
%TO.N,/CPU& Bank Address Latching/~{RES_BTN}*%
X94770000Y-48260000D03*
%TO.P,U5,5,VDD*%
%TO.N,+5V*%
X94770000Y-50160000D03*
%TD*%
D30*
%TO.P,R5,1*%
%TO.N,Net-(D2-Pad1)*%
X225505000Y-42931000D03*
%TO.P,R5,2*%
%TO.N,GND*%
X227330000Y-42931000D03*
%TD*%
%TO.P,R2,1*%
%TO.N,/CPU& Bank Address Latching/RDY*%
X121134500Y-90805000D03*
%TO.P,R2,2*%
%TO.N,+5V*%
X122959500Y-90805000D03*
%TD*%
D10*
%TO.P,U4,1,~{VP}*%
%TO.N,/CPU& Bank Address Latching/~{VP}*%
X129540000Y-93345000D03*
D15*
%TO.P,U4,2,RDY*%
%TO.N,/CPU& Bank Address Latching/RDY*%
X132080000Y-93345000D03*
%TO.P,U4,3,~{ABORT}*%
%TO.N,/CPU& Bank Address Latching/~{ABORT}*%
X134620000Y-93345000D03*
%TO.P,U4,4,~{IRQ}*%
%TO.N,/CPU& Bank Address Latching/~{IRQ}*%
X137160000Y-93345000D03*
%TO.P,U4,5,~{ML}*%
%TO.N,/CPU& Bank Address Latching/~{ML}*%
X139700000Y-93345000D03*
%TO.P,U4,6,~{NMI}*%
%TO.N,/CPU& Bank Address Latching/~{NMI}*%
X142240000Y-93345000D03*
%TO.P,U4,7,VPA*%
%TO.N,/CPU& Bank Address Latching/VPA*%
X144780000Y-93345000D03*
%TO.P,U4,8,VDD*%
%TO.N,+5V*%
X147320000Y-93345000D03*
%TO.P,U4,9,A0*%
%TO.N,/CPU& Bank Address Latching/A0*%
X149860000Y-93345000D03*
%TO.P,U4,10,A1*%
%TO.N,/CPU& Bank Address Latching/A1*%
X152400000Y-93345000D03*
%TO.P,U4,11,A2*%
%TO.N,/CPU& Bank Address Latching/A2*%
X154940000Y-93345000D03*
%TO.P,U4,12,A3*%
%TO.N,/CPU& Bank Address Latching/A3*%
X157480000Y-93345000D03*
%TO.P,U4,13,A4*%
%TO.N,/CPU& Bank Address Latching/A4*%
X160020000Y-93345000D03*
%TO.P,U4,14,A5*%
%TO.N,/CPU& Bank Address Latching/A5*%
X162560000Y-93345000D03*
%TO.P,U4,15,A6*%
%TO.N,/CPU& Bank Address Latching/A6*%
X165100000Y-93345000D03*
%TO.P,U4,16,A7*%
%TO.N,/CPU& Bank Address Latching/A7*%
X167640000Y-93345000D03*
%TO.P,U4,17,A8*%
%TO.N,/CPU& Bank Address Latching/A8*%
X170180000Y-93345000D03*
%TO.P,U4,18,A9*%
%TO.N,/CPU& Bank Address Latching/A9*%
X172720000Y-93345000D03*
%TO.P,U4,19,A10*%
%TO.N,/CPU& Bank Address Latching/A10*%
X175260000Y-93345000D03*
%TO.P,U4,20,A11*%
%TO.N,/CPU& Bank Address Latching/A11*%
X177800000Y-93345000D03*
%TO.P,U4,21,VSS*%
%TO.N,GND*%
X177800000Y-78105000D03*
%TO.P,U4,22,A12*%
%TO.N,/CPU& Bank Address Latching/A12*%
X175260000Y-78105000D03*
%TO.P,U4,23,A13*%
%TO.N,/CPU& Bank Address Latching/A13*%
X172720000Y-78105000D03*
%TO.P,U4,24,A14*%
%TO.N,/CPU& Bank Address Latching/A14*%
X170180000Y-78105000D03*
%TO.P,U4,25,A15*%
%TO.N,/CPU& Bank Address Latching/A15*%
X167640000Y-78105000D03*
%TO.P,U4,26,D7*%
%TO.N,/CPU& Bank Address Latching/DB7*%
X165100000Y-78105000D03*
%TO.P,U4,27,D6*%
%TO.N,/CPU& Bank Address Latching/DB6*%
X162560000Y-78105000D03*
%TO.P,U4,28,D5*%
%TO.N,/CPU& Bank Address Latching/DB5*%
X160020000Y-78105000D03*
%TO.P,U4,29,D4*%
%TO.N,/CPU& Bank Address Latching/DB4*%
X157480000Y-78105000D03*
%TO.P,U4,30,D3*%
%TO.N,/CPU& Bank Address Latching/DB3*%
X154940000Y-78105000D03*
%TO.P,U4,31,D2*%
%TO.N,/CPU& Bank Address Latching/DB2*%
X152400000Y-78105000D03*
%TO.P,U4,32,D1*%
%TO.N,/CPU& Bank Address Latching/DB1*%
X149860000Y-78105000D03*
%TO.P,U4,33,D0*%
%TO.N,/CPU& Bank Address Latching/DB0*%
X147320000Y-78105000D03*
%TO.P,U4,34,~{RW}*%
%TO.N,/CPU& Bank Address Latching/~{RW}*%
X144780000Y-78105000D03*
%TO.P,U4,35,E*%
%TO.N,/CPU& Bank Address Latching/EMU*%
X142240000Y-78105000D03*
%TO.P,U4,36,BE*%
%TO.N,/CPU& Bank Address Latching/BE*%
X139700000Y-78105000D03*
%TO.P,U4,37,PHI2*%
%TO.N,/CPU& Bank Address Latching/CLK*%
X137160000Y-78105000D03*
%TO.P,U4,38,MX*%
%TO.N,/CPU& Bank Address Latching/MX*%
X134620000Y-78105000D03*
%TO.P,U4,39,VDA*%
%TO.N,/CPU& Bank Address Latching/VDA*%
X132080000Y-78105000D03*
%TO.P,U4,40,~{RES}*%
%TO.N,/CPU& Bank Address Latching/~{RES}*%
X129540000Y-78105000D03*
%TD*%
D13*
%TO.P,J4,1,Pin_1*%
%TO.N,/IO/~{UART_DTRA}*%
X101600000Y-132842000D03*
D14*
%TO.P,J4,2,Pin_2*%
%TO.N,/IO/~{UART_DSRA}*%
X101600000Y-135382000D03*
%TO.P,J4,3,Pin_3*%
%TO.N,/IO/~{UART_OPA}*%
X99060000Y-132842000D03*
%TO.P,J4,4,Pin_4*%
%TO.N,/IO/~{UART_CTSA}*%
X99060000Y-135382000D03*
%TO.P,J4,5,Pin_5*%
%TO.N,/IO/~{UART_RIA}*%
X96520000Y-132842000D03*
%TO.P,J4,6,Pin_6*%
%TO.N,/IO/~{UART_CDA}*%
X96520000Y-135382000D03*
%TO.P,J4,7,Pin_7*%
%TO.N,/IO/~{UART_RXRDYA}*%
X93980000Y-132842000D03*
%TO.P,J4,8,Pin_8*%
%TO.N,/IO/UART_RXA*%
X93980000Y-135382000D03*
%TO.P,J4,9,Pin_9*%
%TO.N,/IO/~{UART_TXRDYA}*%
X91440000Y-132842000D03*
%TO.P,J4,10,Pin_10*%
%TO.N,/IO/UART_TXA*%
X91440000Y-135382000D03*
%TO.P,J4,11,Pin_11*%
%TO.N,/IO/~{UART_RTSA}*%
X88900000Y-132842000D03*
%TO.P,J4,12,Pin_12*%
%TO.N,GND*%
X88900000Y-135382000D03*
%TD*%
D29*
%TO.P,C11,1*%
%TO.N,+5V*%
X89635500Y-52832000D03*
%TO.P,C11,2*%
%TO.N,GND*%
X87910500Y-52832000D03*
%TD*%
D10*
%TO.P,U3,1,OE*%
%TO.N,GND*%
X143510000Y-58420000D03*
D15*
%TO.P,U3,2,D0*%
%TO.N,/CPU& Bank Address Latching/DB0*%
X146050000Y-58420000D03*
%TO.P,U3,3,D1*%
%TO.N,/CPU& Bank Address Latching/DB1*%
X148590000Y-58420000D03*
%TO.P,U3,4,D2*%
%TO.N,/CPU& Bank Address Latching/DB2*%
X151130000Y-58420000D03*
%TO.P,U3,5,D3*%
%TO.N,/CPU& Bank Address Latching/DB3*%
X153670000Y-58420000D03*
%TO.P,U3,6,D4*%
%TO.N,/CPU& Bank Address Latching/DB4*%
X156210000Y-58420000D03*
%TO.P,U3,7,D5*%
%TO.N,/CPU& Bank Address Latching/DB5*%
X158750000Y-58420000D03*
%TO.P,U3,8,D6*%
%TO.N,/CPU& Bank Address Latching/DB6*%
X161290000Y-58420000D03*
%TO.P,U3,9,D7*%
%TO.N,/CPU& Bank Address Latching/DB7*%
X163830000Y-58420000D03*
%TO.P,U3,10,GND*%
%TO.N,GND*%
X166370000Y-58420000D03*
%TO.P,U3,11,Load*%
%TO.N,/CPU& Bank Address Latching/CLK_INV*%
X166370000Y-50800000D03*
%TO.P,U3,12,Q7*%
%TO.N,unconnected-(U3-Pad12)*%
X163830000Y-50800000D03*
%TO.P,U3,13,Q6*%
%TO.N,unconnected-(U3-Pad13)*%
X161290000Y-50800000D03*
%TO.P,U3,14,Q5*%
%TO.N,unconnected-(U3-Pad14)*%
X158750000Y-50800000D03*
%TO.P,U3,15,Q4*%
%TO.N,unconnected-(U3-Pad15)*%
X156210000Y-50800000D03*
%TO.P,U3,16,Q3*%
%TO.N,/CPU& Bank Address Latching/A19*%
X153670000Y-50800000D03*
%TO.P,U3,17,Q2*%
%TO.N,/CPU& Bank Address Latching/A18*%
X151130000Y-50800000D03*
%TO.P,U3,18,Q1*%
%TO.N,/CPU& Bank Address Latching/A17*%
X148590000Y-50800000D03*
%TO.P,U3,19,Q0*%
%TO.N,/CPU& Bank Address Latching/A16*%
X146050000Y-50800000D03*
%TO.P,U3,20,VCC*%
%TO.N,+5V*%
X143510000Y-50800000D03*
%TD*%
D21*
%TO.P,TP4,1,1*%
%TO.N,/CPU& Bank Address Latching/~{RES}*%
X113030000Y-99060000D03*
%TD*%
D16*
%TO.P,C8,1*%
%TO.N,+5V*%
X93726000Y-124613500D03*
%TO.P,C8,2*%
%TO.N,GND*%
X93726000Y-126338500D03*
%TD*%
D13*
%TO.P,JP1,1,A*%
%TO.N,/IO/VIA_PB7*%
X125730000Y-119507000D03*
D14*
%TO.P,JP1,2,B*%
%TO.N,/IO/SPEAKER*%
X123190000Y-119507000D03*
%TD*%
D21*
%TO.P,TP6,1,1*%
%TO.N,/CPU& Bank Address Latching/~{NMI}*%
X183134000Y-104521000D03*
%TD*%
D13*
%TO.P,J18,1,Pin_1*%
%TO.N,GND*%
X111500600Y-125984400D03*
D14*
%TO.P,J18,2,Pin_2*%
%TO.N,unconnected-(J18-Pad2)*%
X114040600Y-125984400D03*
%TO.P,J18,3,Pin_3*%
%TO.N,/IO/VIA_PA0*%
X116580600Y-125984400D03*
%TO.P,J18,4,Pin_4*%
%TO.N,/IO/VIA_PA1*%
X119120600Y-125984400D03*
%TO.P,J18,5,Pin_5*%
%TO.N,/IO/VIA_PA2*%
X121660600Y-125984400D03*
%TO.P,J18,6,Pin_6*%
%TO.N,/IO/VIA_PA3*%
X124200600Y-125984400D03*
%TO.P,J18,7,Pin_7*%
%TO.N,+5V*%
X126740600Y-125984400D03*
%TD*%
D23*
%TO.P,R9,1*%
%TO.N,/CPU& Bank Address Latching/D2*%
X221996000Y-128420500D03*
%TO.P,R9,2*%
%TO.N,+5V*%
X221996000Y-126595500D03*
%TD*%
D22*
%TO.P,D2,1,K*%
%TO.N,Net-(D2-Pad1)*%
X222847500Y-42931000D03*
%TO.P,D2,2,A*%
%TO.N,+5V*%
X221097500Y-42931000D03*
%TD*%
D30*
%TO.P,R1,1*%
%TO.N,/CPU& Bank Address Latching/~{ABORT}*%
X121134500Y-85725000D03*
%TO.P,R1,2*%
%TO.N,+5V*%
X122959500Y-85725000D03*
%TD*%
D13*
%TO.P,J1,1,Pin_1*%
%TO.N,+5V*%
X104516000Y-44450000D03*
D14*
%TO.P,J1,2,Pin_2*%
%TO.N,Net-(J1-Pad2)*%
X107056000Y-44450000D03*
%TD*%
D21*
%TO.P,TP5,1,1*%
%TO.N,/CPU& Bank Address Latching/~{IRQ}*%
X108204000Y-99060000D03*
%TD*%
D31*
%TO.P,C9,1*%
%TO.N,+5V*%
X194137500Y-102070000D03*
%TO.P,C9,2*%
%TO.N,GND*%
X195862500Y-102070000D03*
%TD*%
D21*
%TO.P,TP1,1,1*%
%TO.N,/CPU& Bank Address Latching/CLK*%
X119380000Y-72390000D03*
%TD*%
D42*
%TO.P,X2_ALT,1*%
%TO.N,+5V*%
X75057000Y-63060000D03*
%TO.P,X2_ALT,2*%
%TO.N,N/C*%
X77597000Y-63060000D03*
%TO.P,X2_ALT,3*%
%TO.N,GND*%
X80137000Y-63060000D03*
%TO.P,X2_ALT,4*%
%TO.N,Net-(JP2-Pad3)*%
X80137000Y-58860000D03*
%TO.P,X2_ALT,5*%
%TO.N,N/C*%
X77597000Y-58860000D03*
%TO.P,X2_ALT,6*%
%TO.N,+5V*%
X75057000Y-58860000D03*
%TD*%
%TO.P,X1_ALT,1*%
%TO.N,+5V*%
X90932000Y-62992000D03*
%TO.P,X1_ALT,2*%
%TO.N,N/C*%
X93472000Y-62992000D03*
%TO.P,X1_ALT,3*%
%TO.N,GND*%
X96012000Y-62992000D03*
%TO.P,X1_ALT,4*%
%TO.N,/CPU& Bank Address Latching/CLK_UART*%
X96012000Y-58792000D03*
%TO.P,X1_ALT,5*%
%TO.N,N/C*%
X93472000Y-58792000D03*
%TO.P,X1_ALT,6*%
%TO.N,+5V*%
X90932000Y-58792000D03*
%TD*%
D43*
%TO.P,SW2,1*%
%TO.N,+5V*%
X184150000Y-95237000D03*
%TO.P,SW2,2*%
X186690000Y-95237000D03*
%TO.P,SW2,3*%
%TO.N,/Memory/ROMSW1*%
X186690000Y-86627000D03*
%TO.P,SW2,4*%
%TO.N,/Memory/ROMSW0*%
X184150000Y-86627000D03*
%TD*%
D13*
%TO.P,J12,1,Pin_1*%
%TO.N,/IO/~{IO0}*%
X80787000Y-89154000D03*
D14*
%TO.P,J12,2,Pin_2*%
%TO.N,/IO/~{IO1}*%
X83327000Y-89154000D03*
%TO.P,J12,3,Pin_3*%
%TO.N,/IO/~{IO2}*%
X85867000Y-89154000D03*
%TO.P,J12,4,Pin_4*%
%TO.N,/IO/~{IO3}*%
X88407000Y-89154000D03*
%TO.P,J12,5,Pin_5*%
%TO.N,/IO/~{IO4}*%
X90947000Y-89154000D03*
%TO.P,J12,6,Pin_6*%
%TO.N,/IO/~{IO5}*%
X93487000Y-89154000D03*
%TO.P,J12,7,Pin_7*%
%TO.N,/IO/~{IO6}*%
X96027000Y-89154000D03*
%TO.P,J12,8,Pin_8*%
%TO.N,/IO/~{IO7}*%
X98567000Y-89154000D03*
%TD*%
D10*
%TO.P,C15,1*%
%TO.N,+5V*%
X126071621Y-44958000D03*
D11*
%TO.P,C15,2*%
%TO.N,GND*%
X128571621Y-44958000D03*
%TD*%
D10*
%TO.P,U2,1,A->B*%
%TO.N,/CPU& Bank Address Latching/~{RW}*%
X143637000Y-72131000D03*
D15*
%TO.P,U2,2,A0*%
%TO.N,/CPU& Bank Address Latching/D0*%
X146177000Y-72131000D03*
%TO.P,U2,3,A1*%
%TO.N,/CPU& Bank Address Latching/D1*%
X148717000Y-72131000D03*
%TO.P,U2,4,A2*%
%TO.N,/CPU& Bank Address Latching/D2*%
X151257000Y-72131000D03*
%TO.P,U2,5,A3*%
%TO.N,/CPU& Bank Address Latching/D3*%
X153797000Y-72131000D03*
%TO.P,U2,6,A4*%
%TO.N,/CPU& Bank Address Latching/D4*%
X156337000Y-72131000D03*
%TO.P,U2,7,A5*%
%TO.N,/CPU& Bank Address Latching/D5*%
X158877000Y-72131000D03*
%TO.P,U2,8,A6*%
%TO.N,/CPU& Bank Address Latching/D6*%
X161417000Y-72131000D03*
%TO.P,U2,9,A7*%
%TO.N,/CPU& Bank Address Latching/D7*%
X163957000Y-72131000D03*
%TO.P,U2,10,GND*%
%TO.N,GND*%
X166497000Y-72131000D03*
%TO.P,U2,11,B7*%
%TO.N,/CPU& Bank Address Latching/DB7*%
X166497000Y-64511000D03*
%TO.P,U2,12,B6*%
%TO.N,/CPU& Bank Address Latching/DB6*%
X163957000Y-64511000D03*
%TO.P,U2,13,B5*%
%TO.N,/CPU& Bank Address Latching/DB5*%
X161417000Y-64511000D03*
%TO.P,U2,14,B4*%
%TO.N,/CPU& Bank Address Latching/DB4*%
X158877000Y-64511000D03*
%TO.P,U2,15,B3*%
%TO.N,/CPU& Bank Address Latching/DB3*%
X156337000Y-64511000D03*
%TO.P,U2,16,B2*%
%TO.N,/CPU& Bank Address Latching/DB2*%
X153797000Y-64511000D03*
%TO.P,U2,17,B1*%
%TO.N,/CPU& Bank Address Latching/DB1*%
X151257000Y-64511000D03*
%TO.P,U2,18,B0*%
%TO.N,/CPU& Bank Address Latching/DB0*%
X148717000Y-64511000D03*
%TO.P,U2,19,CE*%
%TO.N,/CPU& Bank Address Latching/CLK_INV*%
X146177000Y-64511000D03*
%TO.P,U2,20,VCC*%
%TO.N,+5V*%
X143637000Y-64511000D03*
%TD*%
D21*
%TO.P,TP2,1,1*%
%TO.N,Net-(JP2-Pad3)*%
X113919000Y-50546000D03*
%TD*%
D13*
%TO.P,J15,1,Pin_1*%
%TO.N,/IO/UART_INTA*%
X80391000Y-135387000D03*
D14*
%TO.P,J15,2,Pin_2*%
%TO.N,/IO/UART_INTB*%
X80391000Y-132847000D03*
%TO.P,J15,3,Pin_3*%
%TO.N,/CPU& Bank Address Latching/RES*%
X80391000Y-130307000D03*
%TD*%
D13*
%TO.P,J7,1,Pin_1*%
%TO.N,+5V*%
X162241609Y-134946609D03*
D14*
%TO.P,J7,2,Pin_2*%
%TO.N,GND*%
X162241609Y-132406609D03*
%TO.P,J7,3,Pin_3*%
%TO.N,/IO/VIA_CB1*%
X164781609Y-134946609D03*
%TO.P,J7,4,Pin_4*%
%TO.N,/IO/VIA_CB2*%
X164781609Y-132406609D03*
%TO.P,J7,5,Pin_5*%
%TO.N,/IO/VIA_PB0*%
X167321609Y-134946609D03*
%TO.P,J7,6,Pin_6*%
%TO.N,/IO/VIA_PB1*%
X167321609Y-132406609D03*
%TO.P,J7,7,Pin_7*%
%TO.N,/IO/VIA_PB2*%
X169861609Y-134946609D03*
%TO.P,J7,8,Pin_8*%
%TO.N,/IO/VIA_PB3*%
X169861609Y-132406609D03*
%TO.P,J7,9,Pin_9*%
%TO.N,/IO/VIA_PB4*%
X172401609Y-134946609D03*
%TO.P,J7,10,Pin_10*%
%TO.N,/IO/VIA_PB5*%
X172401609Y-132406609D03*
%TO.P,J7,11,Pin_11*%
%TO.N,/IO/VIA_PB6*%
X174941609Y-134946609D03*
%TO.P,J7,12,Pin_12*%
%TO.N,/IO/VIA_PB7*%
X174941609Y-132406609D03*
%TD*%
D21*
%TO.P,TP10,1,1*%
%TO.N,GND*%
X182245000Y-79375000D03*
%TD*%
D30*
%TO.P,R17,1*%
%TO.N,Net-(D3-Pad1)*%
X166854500Y-42926000D03*
%TO.P,R17,2*%
%TO.N,GND*%
X168679500Y-42926000D03*
%TD*%
D13*
%TO.P,JP2,1,A*%
%TO.N,/CPU& Bank Address Latching/CLK_UART*%
X120015000Y-44450000D03*
D14*
%TO.P,JP2,2,C*%
%TO.N,Net-(JP2-Pad2)*%
X117475000Y-44450000D03*
%TO.P,JP2,3,B*%
%TO.N,Net-(JP2-Pad3)*%
X114935000Y-44450000D03*
%TD*%
D13*
%TO.P,J11,1,Pin_1*%
%TO.N,/CPU& Bank Address Latching/A16*%
X146060000Y-44450000D03*
D14*
%TO.P,J11,2,Pin_2*%
%TO.N,/CPU& Bank Address Latching/A17*%
X148600000Y-44450000D03*
%TO.P,J11,3,Pin_3*%
%TO.N,/CPU& Bank Address Latching/A18*%
X151140000Y-44450000D03*
%TO.P,J11,4,Pin_4*%
%TO.N,/CPU& Bank Address Latching/A19*%
X153680000Y-44450000D03*
%TD*%
D13*
%TO.P,J8,1,Pin_1*%
%TO.N,/CPU& Bank Address Latching/A0*%
X201930000Y-133604000D03*
D14*
%TO.P,J8,2,Pin_2*%
%TO.N,/CPU& Bank Address Latching/A1*%
X199390000Y-133604000D03*
%TO.P,J8,3,Pin_3*%
%TO.N,/CPU& Bank Address Latching/A2*%
X196850000Y-133604000D03*
%TO.P,J8,4,Pin_4*%
%TO.N,/CPU& Bank Address Latching/A3*%
X194310000Y-133604000D03*
%TO.P,J8,5,Pin_5*%
%TO.N,/CPU& Bank Address Latching/A4*%
X191770000Y-133604000D03*
%TO.P,J8,6,Pin_6*%
%TO.N,/CPU& Bank Address Latching/A5*%
X189230000Y-133604000D03*
%TO.P,J8,7,Pin_7*%
%TO.N,/CPU& Bank Address Latching/A6*%
X186690000Y-133604000D03*
%TO.P,J8,8,Pin_8*%
%TO.N,/CPU& Bank Address Latching/A7*%
X184150000Y-133604000D03*
%TD*%
D10*
%TO.P,U8,1,A18*%
%TO.N,/CPU& Bank Address Latching/A18*%
X193802000Y-120401000D03*
D15*
%TO.P,U8,2,A16*%
%TO.N,/CPU& Bank Address Latching/A16*%
X196342000Y-120401000D03*
%TO.P,U8,3,A14*%
%TO.N,/CPU& Bank Address Latching/A14*%
X198882000Y-120401000D03*
%TO.P,U8,4,A12*%
%TO.N,/CPU& Bank Address Latching/A12*%
X201422000Y-120401000D03*
%TO.P,U8,5,A7*%
%TO.N,/CPU& Bank Address Latching/A7*%
X203962000Y-120401000D03*
%TO.P,U8,6,A6*%
%TO.N,/CPU& Bank Address Latching/A6*%
X206502000Y-120401000D03*
%TO.P,U8,7,A5*%
%TO.N,/CPU& Bank Address Latching/A5*%
X209042000Y-120401000D03*
%TO.P,U8,8,A4*%
%TO.N,/CPU& Bank Address Latching/A4*%
X211582000Y-120401000D03*
%TO.P,U8,9,A3*%
%TO.N,/CPU& Bank Address Latching/A3*%
X214122000Y-120401000D03*
%TO.P,U8,10,A2*%
%TO.N,/CPU& Bank Address Latching/A2*%
X216662000Y-120401000D03*
%TO.P,U8,11,A1*%
%TO.N,/CPU& Bank Address Latching/A1*%
X219202000Y-120401000D03*
%TO.P,U8,12,A0*%
%TO.N,/CPU& Bank Address Latching/A0*%
X221742000Y-120401000D03*
%TO.P,U8,13,DQ0*%
%TO.N,/CPU& Bank Address Latching/D0*%
X224282000Y-120401000D03*
%TO.P,U8,14,DQ1*%
%TO.N,/CPU& Bank Address Latching/D1*%
X226822000Y-120401000D03*
%TO.P,U8,15,DQ2*%
%TO.N,/CPU& Bank Address Latching/D2*%
X229362000Y-120401000D03*
%TO.P,U8,16,VSS*%
%TO.N,GND*%
X231902000Y-120401000D03*
%TO.P,U8,17,DQ3*%
%TO.N,/CPU& Bank Address Latching/D3*%
X231902000Y-105161000D03*
%TO.P,U8,18,DQ4*%
%TO.N,/CPU& Bank Address Latching/D4*%
X229362000Y-105161000D03*
%TO.P,U8,19,DQ5*%
%TO.N,/CPU& Bank Address Latching/D5*%
X226822000Y-105161000D03*
%TO.P,U8,20,DQ6*%
%TO.N,/CPU& Bank Address Latching/D6*%
X224282000Y-105161000D03*
%TO.P,U8,21,DQ7*%
%TO.N,/CPU& Bank Address Latching/D7*%
X221742000Y-105161000D03*
%TO.P,U8,22,~{CE}*%
%TO.N,/Memory/~{RAM1CS}*%
X219202000Y-105161000D03*
%TO.P,U8,23,A10*%
%TO.N,/CPU& Bank Address Latching/A10*%
X216662000Y-105161000D03*
%TO.P,U8,24,~{OE}*%
%TO.N,/Memory/~{RD}*%
X214122000Y-105161000D03*
%TO.P,U8,25,A11*%
%TO.N,/CPU& Bank Address Latching/A11*%
X211582000Y-105161000D03*
%TO.P,U8,26,A9*%
%TO.N,/CPU& Bank Address Latching/A9*%
X209042000Y-105161000D03*
%TO.P,U8,27,A8*%
%TO.N,/CPU& Bank Address Latching/A8*%
X206502000Y-105161000D03*
%TO.P,U8,28,A13*%
%TO.N,/CPU& Bank Address Latching/A13*%
X203962000Y-105161000D03*
%TO.P,U8,29,~{WE}*%
%TO.N,/Memory/~{WR}*%
X201422000Y-105161000D03*
%TO.P,U8,30,A17*%
%TO.N,/CPU& Bank Address Latching/A17*%
X198882000Y-105161000D03*
%TO.P,U8,31,A15*%
%TO.N,/CPU& Bank Address Latching/A15*%
X196342000Y-105161000D03*
%TO.P,U8,32,VCC*%
%TO.N,+5V*%
X193802000Y-105161000D03*
%TD*%
D44*
%TO.P,U14,1,~{RESET}*%
%TO.N,/CPU& Bank Address Latching/~{RES_BTN}*%
X133223000Y-44577000D03*
D45*
%TO.P,U14,2,VCC*%
%TO.N,+5V*%
X134493000Y-44577000D03*
%TO.P,U14,3,GND*%
%TO.N,GND*%
X135763000Y-44577000D03*
%TD*%
D23*
%TO.P,R12,1*%
%TO.N,/CPU& Bank Address Latching/D5*%
X214376000Y-128420500D03*
%TO.P,R12,2*%
%TO.N,+5V*%
X214376000Y-126595500D03*
%TD*%
D31*
%TO.P,C2,1*%
%TO.N,+5V*%
X199727500Y-51790000D03*
%TO.P,C2,2*%
%TO.N,GND*%
X201452500Y-51790000D03*
%TD*%
D16*
%TO.P,C10,1*%
%TO.N,+5V*%
X190500000Y-80417500D03*
%TO.P,C10,2*%
%TO.N,GND*%
X190500000Y-82142500D03*
%TD*%
D46*
%TO.N,+5V*%
X185420000Y-98044000D03*
X125730000Y-85725000D03*
X172085000Y-61595000D03*
X125730000Y-90805000D03*
X90424000Y-51308000D03*
X95250000Y-127000000D03*
X229108000Y-41656000D03*
X125730000Y-80645000D03*
X228092000Y-124968000D03*
%TO.N,GND*%
X96520000Y-127000000D03*
X70612000Y-51816000D03*
X135890000Y-51816000D03*
X146012500Y-95250000D03*
X100584000Y-48768000D03*
X74930000Y-80772000D03*
X172085000Y-63500000D03*
X109728000Y-53594000D03*
X196088000Y-100076000D03*
X85344000Y-52832000D03*
X194945000Y-64135000D03*
X178308000Y-127000000D03*
X204216000Y-51816000D03*
X76200000Y-87884000D03*
X94234000Y-106426000D03*
X193548000Y-82296000D03*
X102870000Y-47498000D03*
X141224000Y-66040000D03*
%TO.N,/CPU& Bank Address Latching/RES*%
X83820000Y-122174000D03*
X100838000Y-46482000D03*
X219202000Y-47498000D03*
%TO.N,/CPU& Bank Address Latching/CLK*%
X141356275Y-83778940D03*
X137058400Y-73189500D03*
%TO.N,/CPU& Bank Address Latching/~{RES}*%
X110306312Y-82366312D03*
X130302000Y-108204000D03*
%TO.N,/CPU& Bank Address Latching/~{RW}*%
X144780000Y-83312000D03*
X166370000Y-83566000D03*
%TO.N,/CPU& Bank Address Latching/D0*%
X223012000Y-110876000D03*
X110523020Y-111539020D03*
%TO.N,/CPU& Bank Address Latching/D1*%
X109816265Y-110832265D03*
X225552000Y-110241000D03*
%TO.N,/CPU& Bank Address Latching/D2*%
X228092000Y-109606000D03*
X109109510Y-110125510D03*
%TO.N,/CPU& Bank Address Latching/D3*%
X108402755Y-109418755D03*
%TO.N,/CPU& Bank Address Latching/D4*%
X107696000Y-108712000D03*
%TO.N,/CPU& Bank Address Latching/D5*%
X106878755Y-107894755D03*
%TO.N,/CPU& Bank Address Latching/D6*%
X106172000Y-107188000D03*
%TO.N,/CPU& Bank Address Latching/D7*%
X105465245Y-106481245D03*
%TO.N,/CPU& Bank Address Latching/~{NMI}*%
X166624000Y-82550000D03*
X142240000Y-86614000D03*
X142240000Y-83312000D03*
%TO.N,/CPU& Bank Address Latching/A0*%
X141679263Y-98178380D03*
X103124000Y-104261986D03*
%TO.N,/CPU& Bank Address Latching/A1*%
X103886000Y-105049990D03*
X142644545Y-98619854D03*
%TO.N,/CPU& Bank Address Latching/A2*%
X104758490Y-105774490D03*
X143533161Y-99077420D03*
%TO.N,/CPU& Bank Address Latching/A3*%
X144563500Y-99077420D03*
%TO.N,/CPU& Bank Address Latching/A8*%
X169672000Y-81788000D03*
%TO.N,/CPU& Bank Address Latching/A9*%
X170396500Y-83467271D03*
%TO.N,/CPU& Bank Address Latching/A10*%
X173228000Y-85127500D03*
%TO.N,/CPU& Bank Address Latching/A11*%
X172212000Y-84036500D03*
%TO.N,/CPU& Bank Address Latching/A12*%
X178524500Y-89957060D03*
%TO.N,/CPU& Bank Address Latching/A13*%
X174752000Y-82804000D03*
%TO.N,/CPU& Bank Address Latching/A14*%
X168947500Y-89957060D03*
%TO.N,/Memory/~{RAM0CS}*%
X130048000Y-61214000D03*
X131262755Y-51506755D03*
X220472000Y-68072000D03*
%TO.N,/Memory/~{RAM1CS}*%
X129794000Y-56896000D03*
X235208299Y-127258299D03*
X130556000Y-50800000D03*
%TO.N,/Memory/~{ROMCS}*%
X210878842Y-58605842D03*
X129540000Y-58674000D03*
X129069500Y-51943000D03*
X213995000Y-58420000D03*
%TO.N,/Memory/~{RD}*%
X92715017Y-106928983D03*
%TO.N,/Memory/~{WR}*%
X95954500Y-106231713D03*
%TO.N,/IO/~{IO2}*%
X97401706Y-105880500D03*
%TO.N,/IO/~{IO1}*%
X98483125Y-105986875D03*
%TO.N,/IO/~{IO0}*%
X131826000Y-108966000D03*
X125222000Y-107950000D03*
%TO.N,/IO/UART_TXA*%
X103532460Y-112776000D03*
%TO.N,/IO/~{UART_DTRB}*%
X82943700Y-122936000D03*
%TO.N,/IO/~{UART_OPB}*%
X78448500Y-110579500D03*
%TO.N,/IO/~{UART_RIB}*%
X81794094Y-110369094D03*
%TO.N,/IO/UART_RXB*%
X77954950Y-107935550D03*
%TO.N,/IO/~{UART_RTSB}*%
X83254953Y-109543953D03*
%TO.N,/CPU& Bank Address Latching/~{RES_BTN}*%
X131567342Y-41778342D03*
%TO.N,/CPU& Bank Address Latching/CLK_UART*%
X101346000Y-108966000D03*
%TO.N,/Memory/ROMSW0*%
X185821801Y-77160180D03*
X187452000Y-77216000D03*
%TO.N,/IO/UART_RXA*%
X103611020Y-115316000D03*
%TO.N,/CPU& Bank Address Latching/VPA*%
X140716000Y-73914000D03*
%TO.N,/CPU& Bank Address Latching/VDA*%
X130937000Y-74167989D03*
%TD*%
D47*
%TO.N,+5V*%
X193785500Y-80417500D02*
X193802000Y-80401000D01*
X75438000Y-75845500D02*
X78444500Y-75845500D01*
X73787000Y-64770000D02*
X73787000Y-64330000D01*
X90043000Y-64643000D02*
X90932000Y-63754000D01*
X90932000Y-58293000D02*
X89662000Y-57023000D01*
X142590000Y-51720000D02*
X143510000Y-50800000D01*
X89635500Y-52832000D02*
X89635500Y-56996500D01*
D48*
X93730000Y-118970500D02*
X93730000Y-124609500D01*
D47*
X172085000Y-61595000D02*
X174625000Y-61595000D01*
D48*
X122959500Y-85725000D02*
X125730000Y-85725000D01*
D47*
X147320000Y-93345000D02*
X147320000Y-96292500D01*
D48*
X122959500Y-80645000D02*
X125730000Y-80645000D01*
X174625000Y-61595000D02*
X175895000Y-60325000D01*
D47*
X91572000Y-50160000D02*
X90424000Y-51308000D01*
D48*
X184150000Y-95237000D02*
X184150000Y-96774000D01*
D47*
X73787000Y-57150000D02*
X73787000Y-57590000D01*
D48*
X214376000Y-126595500D02*
X211836000Y-126595500D01*
D47*
X143596000Y-64470000D02*
X143637000Y-64511000D01*
D48*
X95250000Y-126137500D02*
X95250000Y-127000000D01*
D47*
X75438000Y-91286500D02*
X75438000Y-91694000D01*
X140562500Y-64470000D02*
X143596000Y-64470000D01*
X105405000Y-54387500D02*
X105817500Y-53975000D01*
X73760500Y-53086000D02*
X73760500Y-57123500D01*
X78444500Y-75845500D02*
X78608000Y-75682000D01*
D48*
X228092000Y-124968000D02*
X228092000Y-125579500D01*
D47*
X177927000Y-122608000D02*
X178054000Y-122735000D01*
D48*
X221996000Y-126595500D02*
X219456000Y-126595500D01*
D47*
X190500000Y-80417500D02*
X193785500Y-80417500D01*
X177927000Y-119766000D02*
X177927000Y-122608000D01*
X140582500Y-51720000D02*
X142590000Y-51720000D01*
D48*
X93730000Y-124609500D02*
X93726000Y-124613500D01*
D47*
X90932000Y-63754000D02*
X90932000Y-62992000D01*
D48*
X185420000Y-98044000D02*
X186690000Y-96774000D01*
X227076000Y-126595500D02*
X224536000Y-126595500D01*
D47*
X198882000Y-52635500D02*
X199727500Y-51790000D01*
X194137500Y-102070000D02*
X194137500Y-104825500D01*
X90932000Y-58792000D02*
X90932000Y-58293000D01*
X75438000Y-91694000D02*
X76454000Y-92710000D01*
D48*
X224536000Y-126595500D02*
X221996000Y-126595500D01*
X122959500Y-90805000D02*
X125730000Y-90805000D01*
D47*
X89635500Y-52096500D02*
X90424000Y-51308000D01*
D48*
X216916000Y-126595500D02*
X214376000Y-126595500D01*
X228092000Y-125579500D02*
X227076000Y-126595500D01*
X175895000Y-60325000D02*
X177312500Y-60325000D01*
D47*
X94770000Y-50160000D02*
X91572000Y-50160000D01*
D48*
X93726000Y-124613500D02*
X95250000Y-126137500D01*
D47*
X73787000Y-57590000D02*
X75057000Y-58860000D01*
X105405000Y-57013000D02*
X105405000Y-54387500D01*
X170815000Y-61595000D02*
X172085000Y-61595000D01*
X76454000Y-92710000D02*
X78232000Y-92710000D01*
X89635500Y-52832000D02*
X89635500Y-52096500D01*
D48*
X211836000Y-126595500D02*
X209296000Y-126595500D01*
X221097500Y-42931000D02*
X222372500Y-41656000D01*
D47*
X194137500Y-104825500D02*
X193802000Y-105161000D01*
D48*
X186690000Y-96774000D02*
X186690000Y-95237000D01*
X222372500Y-41656000D02*
X229108000Y-41656000D01*
D47*
X89635500Y-56996500D02*
X89662000Y-57023000D01*
D48*
X219456000Y-126595500D02*
X216916000Y-126595500D01*
X184150000Y-96774000D02*
X185420000Y-98044000D01*
D47*
X73760500Y-57123500D02*
X73787000Y-57150000D01*
X198882000Y-55636000D02*
X198882000Y-52635500D01*
X73787000Y-64330000D02*
X75057000Y-63060000D01*
X174625000Y-61595000D02*
X177312500Y-61595000D01*
X89662000Y-64643000D02*
X90043000Y-64643000D01*
%TO.N,GND*%
X87910500Y-52832000D02*
X85344000Y-52832000D01*
X146012500Y-95250000D02*
X146012500Y-96710000D01*
D48*
X193394500Y-82142500D02*
X193548000Y-82296000D01*
D47*
X135986000Y-51720000D02*
X135890000Y-51816000D01*
X204190000Y-51790000D02*
X204216000Y-51816000D01*
D48*
X227330000Y-42931000D02*
X230510000Y-42931000D01*
X186690000Y-82192500D02*
X190450000Y-82192500D01*
D47*
X141224000Y-66040000D02*
X140407500Y-66040000D01*
D48*
X169359520Y-62679520D02*
X170000000Y-63320000D01*
D47*
X103251000Y-47879000D02*
X102870000Y-47498000D01*
D48*
X170816436Y-59055000D02*
X169359520Y-60511916D01*
D47*
X105005500Y-47879000D02*
X103251000Y-47879000D01*
X75438000Y-88646000D02*
X76200000Y-87884000D01*
D48*
X231643000Y-46106000D02*
X232791000Y-44958000D01*
X190500000Y-82142500D02*
X193394500Y-82142500D01*
D47*
X201452500Y-51790000D02*
X204190000Y-51790000D01*
D48*
X190450000Y-82192500D02*
X190500000Y-82142500D01*
D47*
X97470000Y-49210000D02*
X100142000Y-49210000D01*
X178054000Y-126746000D02*
X178308000Y-127000000D01*
X75438000Y-80264000D02*
X74930000Y-80772000D01*
D48*
X170000000Y-63320000D02*
X170815000Y-63320000D01*
D47*
X71882000Y-53086000D02*
X70612000Y-51816000D01*
X96012000Y-63373000D02*
X97282000Y-64643000D01*
D48*
X175895000Y-65405000D02*
X177312500Y-65405000D01*
X172085000Y-63500000D02*
X173990000Y-63500000D01*
X169359520Y-60511916D02*
X169359520Y-62679520D01*
D47*
X170815000Y-63320000D02*
X171905000Y-63320000D01*
D48*
X96520000Y-127000000D02*
X95544160Y-127975840D01*
D47*
X107542500Y-53975000D02*
X109347000Y-53975000D01*
X178054000Y-124460000D02*
X178054000Y-126746000D01*
D48*
X173990000Y-63500000D02*
X174625000Y-62865000D01*
X93726000Y-127975840D02*
X93726000Y-126338500D01*
D47*
X80137000Y-63060000D02*
X80137000Y-63500000D01*
X195862500Y-100301500D02*
X196088000Y-100076000D01*
D48*
X168679500Y-42926000D02*
X174006000Y-42926000D01*
D47*
X100142000Y-49210000D02*
X100584000Y-48768000D01*
X75438000Y-77570500D02*
X75438000Y-80264000D01*
D48*
X231897000Y-46106000D02*
X232791000Y-45212000D01*
X174625000Y-64135000D02*
X175895000Y-65405000D01*
X177312500Y-62865000D02*
X174625000Y-62865000D01*
X94730000Y-106922000D02*
X94234000Y-106426000D01*
D47*
X75438000Y-89561500D02*
X75438000Y-88646000D01*
D48*
X95544160Y-127975840D02*
X93726000Y-127975840D01*
X174006000Y-42926000D02*
X174550000Y-43470000D01*
X177312500Y-59055000D02*
X170816436Y-59055000D01*
X227330000Y-46106000D02*
X231897000Y-46106000D01*
D47*
X140407500Y-66040000D02*
X138837500Y-64470000D01*
X72035500Y-53086000D02*
X71882000Y-53086000D01*
X138857500Y-51720000D02*
X135986000Y-51720000D01*
D48*
X230510000Y-42931000D02*
X232791000Y-45212000D01*
D47*
X195862500Y-102070000D02*
X195862500Y-100301500D01*
X171905000Y-63320000D02*
X172085000Y-63500000D01*
D48*
X94730000Y-110645500D02*
X94730000Y-106922000D01*
X173990000Y-63500000D02*
X174625000Y-64135000D01*
D47*
X80137000Y-63500000D02*
X81407000Y-64770000D01*
X146012500Y-96710000D02*
X147320000Y-98017500D01*
X109347000Y-53975000D02*
X109728000Y-53594000D01*
D48*
X174625000Y-64135000D02*
X177312500Y-64135000D01*
D47*
X190987500Y-64135000D02*
X194945000Y-64135000D01*
X96012000Y-62992000D02*
X96012000Y-63373000D01*
D48*
%TO.N,Net-(D1-Pad1)*%
X222847500Y-46106000D02*
X225505000Y-46106000D01*
%TO.N,/CPU& Bank Address Latching/RES*%
X83820000Y-119888000D02*
X83118240Y-119186240D01*
X220594000Y-46106000D02*
X219202000Y-47498000D01*
X83820000Y-124206000D02*
X85852000Y-126238000D01*
X97470000Y-48260000D02*
X99822000Y-48260000D01*
X100838000Y-47244000D02*
X100838000Y-46482000D01*
X99822000Y-48260000D02*
X100838000Y-47244000D01*
X83118240Y-118049760D02*
X83610000Y-117558000D01*
X221097500Y-46106000D02*
X220594000Y-46106000D01*
X83820000Y-122174000D02*
X83820000Y-124206000D01*
X83820000Y-122174000D02*
X83820000Y-119888000D01*
X83610000Y-117558000D02*
X89817500Y-117558000D01*
X85852000Y-126238000D02*
X87122000Y-126238000D01*
X83118240Y-119186240D02*
X83118240Y-118049760D01*
%TO.N,Net-(D2-Pad1)*%
X222847500Y-42931000D02*
X225505000Y-42931000D01*
%TO.N,/CPU& Bank Address Latching/~{ABORT}*%
X117221000Y-85725000D02*
X118491000Y-85725000D01*
X119888000Y-87122000D02*
X127000000Y-87122000D01*
X118491000Y-85725000D02*
X119888000Y-87122000D01*
X133495489Y-92220489D02*
X134620000Y-93345000D01*
X118491000Y-85725000D02*
X121134500Y-85725000D01*
X132098489Y-92220489D02*
X133495489Y-92220489D01*
X127000000Y-87122000D02*
X132098489Y-92220489D01*
%TO.N,Net-(J1-Pad2)*%
X107056000Y-47653500D02*
X107056000Y-44450000D01*
X106830500Y-47879000D02*
X107056000Y-47653500D01*
%TO.N,/IO/~{UART_DTRA}*%
X82578000Y-116558000D02*
X82219200Y-116916800D01*
X91997158Y-130223440D02*
X98981440Y-130223440D01*
X91313718Y-129540000D02*
X91997158Y-130223440D01*
X89817500Y-116558000D02*
X82578000Y-116558000D01*
X82219200Y-123367200D02*
X88392000Y-129540000D01*
X88392000Y-129540000D02*
X91313718Y-129540000D01*
X82219200Y-116916800D02*
X82219200Y-123367200D01*
X98981440Y-130223440D02*
X101600000Y-132842000D01*
%TO.N,/CPU& Bank Address Latching/CLK*%
X140954752Y-99038211D02*
X137826483Y-102166480D01*
X134053520Y-102166480D02*
X133331511Y-102888489D01*
X137160000Y-77495400D02*
X137160000Y-78105000D01*
X141115489Y-84019726D02*
X141115489Y-97717540D01*
X133331511Y-102888489D02*
X133331511Y-104883511D01*
X141356275Y-83778940D02*
X141115489Y-84019726D01*
X136906000Y-108458000D02*
X163835000Y-108458000D01*
X133331511Y-104883511D02*
X136906000Y-108458000D01*
X137058400Y-73189500D02*
X137058400Y-77393800D01*
X137826483Y-102166480D02*
X134053520Y-102166480D01*
X163835000Y-108458000D02*
X167767000Y-104526000D01*
X141115489Y-97717540D02*
X140954752Y-97878277D01*
X137058400Y-77393800D02*
X137160000Y-77495400D01*
X140954752Y-97878277D02*
X140954752Y-99038211D01*
%TO.N,/CPU& Bank Address Latching/CLK_INV*%
X163830000Y-56896000D02*
X145542000Y-56896000D01*
X144761511Y-63095511D02*
X146177000Y-64511000D01*
X144761511Y-57676489D02*
X144761511Y-63095511D01*
X166370000Y-50800000D02*
X166370000Y-54356000D01*
X145542000Y-56896000D02*
X144761511Y-57676489D01*
X166370000Y-54356000D02*
X163830000Y-56896000D01*
%TO.N,/CPU& Bank Address Latching/~{RES}*%
X120650000Y-42164000D02*
X114886978Y-42164000D01*
X106172000Y-88265000D02*
X105029000Y-89408000D01*
X107975107Y-88265000D02*
X106172000Y-88265000D01*
X127508000Y-72387128D02*
X127508000Y-50800000D01*
X129540000Y-78105000D02*
X125095000Y-78105000D01*
X137033000Y-49022000D02*
X138430000Y-47625000D01*
X117221000Y-88265000D02*
X113030000Y-92456000D01*
X128778000Y-97536000D02*
X124460000Y-97536000D01*
X115443000Y-76454000D02*
X123441128Y-76454000D01*
X114886978Y-42164000D02*
X106890978Y-50160000D01*
X124460000Y-97536000D02*
X122936000Y-96012000D01*
X130302000Y-105481300D02*
X130791511Y-104991789D01*
X121666000Y-43180000D02*
X120650000Y-42164000D01*
X139065000Y-47625000D02*
X140081000Y-46609000D01*
X127508000Y-50800000D02*
X127444500Y-50736500D01*
X129159000Y-49022000D02*
X137033000Y-49022000D01*
X123441128Y-76454000D02*
X127508000Y-72387128D01*
X124498400Y-78701600D02*
X116373990Y-78701600D01*
X116373990Y-78701600D02*
X112828903Y-82246687D01*
X116078000Y-96012000D02*
X122936000Y-96012000D01*
X121666000Y-44958000D02*
X121666000Y-43180000D01*
X130791511Y-99549511D02*
X128778000Y-97536000D01*
X111305489Y-100784511D02*
X113030000Y-99060000D01*
X125095000Y-78105000D02*
X124498400Y-78701600D01*
X107007511Y-100784511D02*
X111305489Y-100784511D01*
X127444500Y-50736500D02*
X129159000Y-49022000D01*
X113030000Y-99060000D02*
X116078000Y-96012000D01*
X110306312Y-82366312D02*
X110306312Y-81590688D01*
X112828903Y-83411204D02*
X107975107Y-88265000D01*
X105029000Y-98806000D02*
X107007511Y-100784511D01*
X130791511Y-104991789D02*
X130791511Y-99549511D01*
X140081000Y-46609000D02*
X140081000Y-44988000D01*
X113030000Y-92456000D02*
X113030000Y-99060000D01*
X110306312Y-81590688D02*
X115443000Y-76454000D01*
X112828903Y-82246687D02*
X112828903Y-83411204D01*
X130302000Y-108204000D02*
X130302000Y-105481300D01*
X105029000Y-89408000D02*
X105029000Y-98806000D01*
X138430000Y-47625000D02*
X139065000Y-47625000D01*
X127444500Y-50736500D02*
X121666000Y-44958000D01*
X106890978Y-50160000D02*
X97470000Y-50160000D01*
%TO.N,/CPU& Bank Address Latching/~{RW}*%
X135128000Y-56642000D02*
X137975480Y-59489480D01*
X143637000Y-72131000D02*
X143637000Y-76962000D01*
X137975480Y-59489480D02*
X137975480Y-68785880D01*
X137975480Y-68785880D02*
X141320600Y-72131000D01*
X175387000Y-102682300D02*
X175387000Y-104526000D01*
X166370000Y-93665300D02*
X175387000Y-102682300D01*
X166370000Y-83566000D02*
X166370000Y-93665300D01*
X141320600Y-72131000D02*
X143637000Y-72131000D01*
X144780000Y-78105000D02*
X144780000Y-83312000D01*
X143637000Y-76962000D02*
X144780000Y-78105000D01*
%TO.N,/CPU& Bank Address Latching/D0*%
X223157489Y-81175772D02*
X224282000Y-82300283D01*
X224282000Y-95641000D02*
X223017000Y-96906000D01*
X101325920Y-124226080D02*
X97302080Y-124226080D01*
X110523020Y-111539020D02*
X110505264Y-111556776D01*
X94730000Y-121654000D02*
X94730000Y-118970500D01*
X223017000Y-96906000D02*
X223012000Y-96906000D01*
X145288000Y-73020000D02*
X145904511Y-73636511D01*
X145904511Y-73636511D02*
X145904511Y-94252489D01*
X224282000Y-69341282D02*
X224282000Y-70876000D01*
X224282000Y-82300283D02*
X224282000Y-95641000D01*
X189230000Y-68427500D02*
X193191783Y-68427500D01*
X108595040Y-116956960D02*
X101325920Y-124226080D01*
X220345718Y-65405000D02*
X224282000Y-69341282D01*
X227076000Y-128420500D02*
X227076000Y-133604000D01*
X224282000Y-70876000D02*
X224282000Y-78810700D01*
X145904511Y-94252489D02*
X145288000Y-94869000D01*
X224282000Y-78810700D02*
X223157489Y-79935211D01*
X196214283Y-65405000D02*
X220345718Y-65405000D01*
X145288000Y-102367000D02*
X147447000Y-104526000D01*
X223157489Y-79935211D02*
X223157489Y-81175772D01*
X108595040Y-112004678D02*
X108595040Y-116956960D01*
X223012000Y-119131000D02*
X224282000Y-120401000D01*
X145288000Y-94869000D02*
X145288000Y-102367000D01*
X223012000Y-110876000D02*
X223012000Y-119131000D01*
X193191783Y-68427500D02*
X196214283Y-65405000D01*
X109042942Y-111556776D02*
X108595040Y-112004678D01*
X97302080Y-124226080D02*
X94730000Y-121654000D01*
X110505264Y-111556776D02*
X109042942Y-111556776D01*
X146177000Y-72131000D02*
X145288000Y-73020000D01*
X223012000Y-96906000D02*
X223012000Y-110876000D01*
%TO.N,/CPU& Bank Address Latching/D1*%
X226822000Y-82300283D02*
X226822000Y-95641000D01*
X226822000Y-78810700D02*
X225406511Y-80226189D01*
X95230000Y-121518282D02*
X95230000Y-118970500D01*
X225406511Y-80226189D02*
X225406511Y-80884794D01*
X220901480Y-64955480D02*
X196028085Y-64955480D01*
X109113979Y-110850021D02*
X108145520Y-111818480D01*
X148717000Y-103256000D02*
X149987000Y-104526000D01*
X226822000Y-70876000D02*
X220901480Y-64955480D01*
X225406511Y-80884794D02*
X226822000Y-82300283D01*
X225552000Y-96911000D02*
X225552000Y-119131000D01*
X194308565Y-66675000D02*
X190987500Y-66675000D01*
X148717000Y-72131000D02*
X148717000Y-103256000D01*
X226822000Y-95641000D02*
X225552000Y-96911000D01*
X226822000Y-70876000D02*
X226822000Y-78810700D01*
X196028085Y-64955480D02*
X194308565Y-66675000D01*
X109798509Y-110850021D02*
X109113979Y-110850021D01*
X225552000Y-119131000D02*
X226822000Y-120401000D01*
X97488278Y-123776560D02*
X95230000Y-121518282D01*
X109816265Y-110832265D02*
X109798509Y-110850021D01*
X108145520Y-116770762D02*
X101139722Y-123776560D01*
X224536000Y-128420500D02*
X224536000Y-133604000D01*
X108145520Y-111818480D02*
X108145520Y-116770762D01*
X101139722Y-123776560D02*
X97488278Y-123776560D01*
%TO.N,/CPU& Bank Address Latching/D2*%
X107696000Y-111539020D02*
X107696000Y-116584564D01*
X228092000Y-80080700D02*
X228092000Y-81030283D01*
X95730000Y-121382564D02*
X95730000Y-118970500D01*
X109109510Y-110125510D02*
X107696000Y-111539020D01*
X228092000Y-109606000D02*
X228092000Y-119131000D01*
X97674476Y-123327040D02*
X95730000Y-121382564D01*
X228092000Y-96906000D02*
X228092000Y-109606000D01*
X195841887Y-64505960D02*
X222991960Y-64505960D01*
X151257000Y-103256000D02*
X152527000Y-104526000D01*
X229362000Y-82300283D02*
X229362000Y-95641000D01*
X221996000Y-128420500D02*
X221996000Y-133604000D01*
X100953524Y-123327040D02*
X97674476Y-123327040D01*
X151257000Y-72131000D02*
X151257000Y-103256000D01*
X229362000Y-95641000D02*
X228097000Y-96906000D01*
X228092000Y-81030283D02*
X229362000Y-82300283D01*
X190987500Y-65405000D02*
X194942847Y-65405000D01*
X229362000Y-78810700D02*
X228092000Y-80080700D01*
X228092000Y-119131000D02*
X229362000Y-120401000D01*
X229362000Y-70876000D02*
X229362000Y-78810700D01*
X222991960Y-64505960D02*
X229362000Y-70876000D01*
X194942847Y-65405000D02*
X195841887Y-64505960D01*
X107696000Y-116584564D02*
X100953524Y-123327040D01*
X228097000Y-96906000D02*
X228092000Y-96906000D01*
%TO.N,/CPU& Bank Address Latching/D3*%
X153797000Y-103256000D02*
X155067000Y-104526000D01*
X197395886Y-64056440D02*
X196204446Y-62865000D01*
X223403000Y-64135000D02*
X223256718Y-64135000D01*
X107188000Y-110633510D02*
X107188000Y-116456846D01*
X107188000Y-116456846D02*
X100767326Y-122877520D01*
X100767326Y-122877520D02*
X97860674Y-122877520D01*
X233172000Y-96271000D02*
X231902000Y-97541000D01*
X153797000Y-72131000D02*
X153797000Y-103256000D01*
X233172000Y-81666000D02*
X233172000Y-96271000D01*
X231902000Y-97541000D02*
X231902000Y-105161000D01*
X96230000Y-121246846D02*
X96230000Y-118970500D01*
X231902000Y-80401000D02*
X233167000Y-81666000D01*
X97860674Y-122877520D02*
X96230000Y-121246846D01*
X231902000Y-55636000D02*
X223403000Y-64135000D01*
X223256718Y-64135000D02*
X223178157Y-64056440D01*
X108402755Y-109418755D02*
X107188000Y-110633510D01*
X223178157Y-64056440D02*
X197395886Y-64056440D01*
X233167000Y-81666000D02*
X233172000Y-81666000D01*
X219456000Y-128420500D02*
X219456000Y-133604000D01*
X196204446Y-62865000D02*
X190987500Y-62865000D01*
%TO.N,/CPU& Bank Address Latching/D4*%
X100581128Y-122428000D02*
X98046872Y-122428000D01*
X96730000Y-121111128D02*
X96730000Y-118970500D01*
X230632000Y-96271000D02*
X229362000Y-97541000D01*
X229362000Y-80401000D02*
X230627000Y-81666000D01*
X106621520Y-109786480D02*
X106621520Y-116387608D01*
X98046872Y-122428000D02*
X96730000Y-121111128D01*
X106621520Y-116387608D02*
X100581128Y-122428000D01*
X197475164Y-63500000D02*
X221498000Y-63500000D01*
X229362000Y-97541000D02*
X229362000Y-105161000D01*
X156337000Y-72131000D02*
X156337000Y-103256000D01*
X216916000Y-128420500D02*
X216916000Y-133604000D01*
X230627000Y-81666000D02*
X230632000Y-81666000D01*
X156337000Y-103256000D02*
X157607000Y-104526000D01*
X107696000Y-108712000D02*
X106621520Y-109786480D01*
X230632000Y-81666000D02*
X230632000Y-96271000D01*
X221498000Y-63500000D02*
X229362000Y-55636000D01*
X190987500Y-61595000D02*
X195570164Y-61595000D01*
X195570164Y-61595000D02*
X197475164Y-63500000D01*
%TO.N,/CPU& Bank Address Latching/D5*%
X226822000Y-80401000D02*
X228087000Y-81666000D01*
X226822000Y-55636000D02*
X219593000Y-62865000D01*
X106172000Y-116201410D02*
X104815410Y-117558000D01*
X214376000Y-128420500D02*
X214376000Y-133604000D01*
X106878755Y-107894755D02*
X106172000Y-108601510D01*
X158877000Y-72131000D02*
X158877000Y-103256000D01*
X228092000Y-81666000D02*
X228092000Y-96270283D01*
X104815410Y-117558000D02*
X98142500Y-117558000D01*
X219593000Y-62865000D02*
X197475882Y-62865000D01*
X106172000Y-108601510D02*
X106172000Y-116201410D01*
X158877000Y-103256000D02*
X160147000Y-104526000D01*
X194935882Y-60325000D02*
X190987500Y-60325000D01*
X228092000Y-96270283D02*
X226822000Y-97540283D01*
X228087000Y-81666000D02*
X228092000Y-81666000D01*
X226822000Y-97540283D02*
X226822000Y-105161000D01*
X197475882Y-62865000D02*
X194935882Y-60325000D01*
%TO.N,/CPU& Bank Address Latching/D6*%
X225552000Y-96275282D02*
X224282000Y-97545282D01*
X211836000Y-128420500D02*
X211836000Y-133604000D01*
X104679692Y-117058000D02*
X105605520Y-116132172D01*
X98142500Y-117058000D02*
X104679692Y-117058000D01*
X161417000Y-103256000D02*
X162687000Y-104526000D01*
X217502520Y-62415480D02*
X224282000Y-55636000D01*
X194301600Y-59055000D02*
X197662080Y-62415480D01*
X224282000Y-80401000D02*
X225547000Y-81666000D01*
X197662080Y-62415480D02*
X217502520Y-62415480D01*
X105605520Y-107754480D02*
X106172000Y-107188000D01*
X224282000Y-97545282D02*
X224282000Y-105161000D01*
X161417000Y-72131000D02*
X161417000Y-103256000D01*
X225552000Y-81666000D02*
X225552000Y-96275282D01*
X190987500Y-59055000D02*
X194301600Y-59055000D01*
X225547000Y-81666000D02*
X225552000Y-81666000D01*
X105605520Y-116132172D02*
X105605520Y-107754480D01*
%TO.N,/CPU& Bank Address Latching/D7*%
X221742000Y-80401000D02*
X223007000Y-81666000D01*
X105156000Y-106790490D02*
X105156000Y-115945974D01*
X209296000Y-128420500D02*
X209296000Y-133604000D01*
X189230000Y-55880000D02*
X189230000Y-57302500D01*
X105465245Y-106481245D02*
X105156000Y-106790490D01*
X221742000Y-97540283D02*
X221742000Y-105161000D01*
X163957000Y-72131000D02*
X163957000Y-103256000D01*
X104543974Y-116558000D02*
X98142500Y-116558000D01*
X223012000Y-81666000D02*
X223012000Y-96270283D01*
X215412040Y-61965960D02*
X197848278Y-61965960D01*
X163957000Y-103256000D02*
X165227000Y-104526000D01*
X191762318Y-55880000D02*
X189230000Y-55880000D01*
X105156000Y-115945974D02*
X104543974Y-116558000D01*
X223007000Y-81666000D02*
X223012000Y-81666000D01*
X221742000Y-55636000D02*
X215412040Y-61965960D01*
X197848278Y-61965960D02*
X191762318Y-55880000D01*
X223012000Y-96270283D02*
X221742000Y-97540283D01*
%TO.N,/CPU& Bank Address Latching/DB7*%
X163830000Y-58420000D02*
X163830000Y-58918000D01*
X165227000Y-65781000D02*
X166497000Y-64511000D01*
X163830000Y-58918000D02*
X166497000Y-61585000D01*
X166497000Y-61585000D02*
X166497000Y-64511000D01*
X165227000Y-78491000D02*
X165227000Y-65781000D01*
%TO.N,/CPU& Bank Address Latching/DB6*%
X161290000Y-58420000D02*
X161290000Y-58918000D01*
X161290000Y-58918000D02*
X163957000Y-61585000D01*
X163957000Y-61585000D02*
X163957000Y-64511000D01*
X163957000Y-64511000D02*
X162687000Y-65781000D01*
X162687000Y-65781000D02*
X162687000Y-78491000D01*
%TO.N,/CPU& Bank Address Latching/DB5*%
X161417000Y-61585000D02*
X161417000Y-64511000D01*
X158750000Y-58420000D02*
X158750000Y-58918000D01*
X158750000Y-58918000D02*
X161417000Y-61585000D01*
X160147000Y-65781000D02*
X160147000Y-78491000D01*
X161417000Y-64511000D02*
X160147000Y-65781000D01*
%TO.N,/CPU& Bank Address Latching/DB4*%
X158877000Y-61585000D02*
X158877000Y-64511000D01*
X156210000Y-58420000D02*
X156210000Y-58918000D01*
X158877000Y-64511000D02*
X157607000Y-65781000D01*
X157607000Y-65781000D02*
X157607000Y-78491000D01*
X156210000Y-58918000D02*
X158877000Y-61585000D01*
%TO.N,/CPU& Bank Address Latching/DB3*%
X156337000Y-64511000D02*
X155067000Y-65781000D01*
X155067000Y-65781000D02*
X155067000Y-78491000D01*
X156337000Y-61585000D02*
X156337000Y-64511000D01*
X153670000Y-58420000D02*
X153670000Y-58918000D01*
X153670000Y-58918000D02*
X156337000Y-61585000D01*
%TO.N,/CPU& Bank Address Latching/DB2*%
X152527000Y-65781000D02*
X152527000Y-78491000D01*
X153797000Y-61585000D02*
X153797000Y-64511000D01*
X151130000Y-58918000D02*
X153797000Y-61585000D01*
X151130000Y-58420000D02*
X151130000Y-58918000D01*
X153797000Y-64511000D02*
X152527000Y-65781000D01*
%TO.N,/CPU& Bank Address Latching/DB1*%
X148590000Y-58918000D02*
X151257000Y-61585000D01*
X148590000Y-58420000D02*
X148590000Y-58918000D01*
X149987000Y-65781000D02*
X149987000Y-78491000D01*
X151257000Y-64511000D02*
X149987000Y-65781000D01*
X151257000Y-61585000D02*
X151257000Y-64511000D01*
%TO.N,/CPU& Bank Address Latching/DB0*%
X148717000Y-61585000D02*
X148717000Y-64511000D01*
X148717000Y-64511000D02*
X147447000Y-65781000D01*
X147447000Y-65781000D02*
X147447000Y-78491000D01*
X146050000Y-58918000D02*
X148717000Y-61585000D01*
X146050000Y-58420000D02*
X146050000Y-58918000D01*
%TO.N,/CPU& Bank Address Latching/A19*%
X112379383Y-82060489D02*
X112379383Y-83225006D01*
X109673829Y-85930560D02*
X91396560Y-85930560D01*
X132403237Y-70034762D02*
X124185919Y-78252080D01*
X112379383Y-83225006D02*
X109673829Y-85930560D01*
X132666560Y-69771440D02*
X132403237Y-70034762D01*
X153680000Y-44450000D02*
X153680000Y-50790000D01*
X134795440Y-54180560D02*
X132666560Y-56309440D01*
X150289440Y-54180560D02*
X134795440Y-54180560D01*
X132666560Y-56309440D02*
X132666560Y-69771440D01*
X124185919Y-78252080D02*
X116187792Y-78252080D01*
X153670000Y-50800000D02*
X150289440Y-54180560D01*
X153680000Y-50790000D02*
X153670000Y-50800000D01*
X116187792Y-78252080D02*
X112379383Y-82060489D01*
X91396560Y-85930560D02*
X88768000Y-83302000D01*
%TO.N,/CPU& Bank Address Latching/A18*%
X192532000Y-119131000D02*
X193802000Y-120401000D01*
X132217040Y-56123243D02*
X132217040Y-69585242D01*
X192532000Y-96906000D02*
X192532000Y-119131000D01*
X93487040Y-85481040D02*
X109487632Y-85481040D01*
X151140000Y-44450000D02*
X151140000Y-50790000D01*
X134609243Y-53731040D02*
X132217040Y-56123243D01*
X91308000Y-83302000D02*
X93487040Y-85481040D01*
X111929863Y-81874291D02*
X116001594Y-77802560D01*
X111929863Y-83038810D02*
X111929863Y-81874291D01*
X148198960Y-53731040D02*
X134609243Y-53731040D01*
X109487632Y-85481040D02*
X111929863Y-83038810D01*
X132217040Y-69585242D02*
X128954151Y-72848131D01*
X192537000Y-96906000D02*
X192532000Y-96906000D01*
X151140000Y-50790000D02*
X151130000Y-50800000D01*
X123999722Y-77802560D02*
X129540000Y-72262282D01*
X193802000Y-95641000D02*
X192537000Y-96906000D01*
X151130000Y-50800000D02*
X148198960Y-53731040D01*
X116001594Y-77802560D02*
X123999722Y-77802560D01*
%TO.N,/CPU& Bank Address Latching/A17*%
X115815396Y-77353040D02*
X111480343Y-81688093D01*
X134423045Y-53281520D02*
X131767520Y-55937046D01*
X198882000Y-105161000D02*
X198882000Y-97231300D01*
X109301435Y-85031520D02*
X95577520Y-85031520D01*
X131504197Y-69662365D02*
X123813522Y-77353040D01*
X111480343Y-82852612D02*
X109301435Y-85031520D01*
X111480343Y-81688093D02*
X111480343Y-82852612D01*
X148600000Y-50790000D02*
X148590000Y-50800000D01*
X200006511Y-81525511D02*
X198882000Y-80401000D01*
X123813522Y-77353040D02*
X115815396Y-77353040D01*
X95577520Y-85031520D02*
X93848000Y-83302000D01*
X131767520Y-69399043D02*
X131504197Y-69662365D01*
X131767520Y-55937046D02*
X131767520Y-69399043D01*
X198882000Y-97231300D02*
X200006511Y-96106789D01*
X200006511Y-96106789D02*
X200006511Y-81525511D01*
X146108480Y-53281520D02*
X134423045Y-53281520D01*
X148600000Y-44450000D02*
X148600000Y-50790000D01*
X148590000Y-50800000D02*
X146108480Y-53281520D01*
%TO.N,/CPU& Bank Address Latching/A16*%
X197533440Y-102993551D02*
X197533440Y-96832440D01*
X144018000Y-52832000D02*
X134236847Y-52832000D01*
X197016991Y-103510000D02*
X197533440Y-102993551D01*
X146050000Y-50800000D02*
X144018000Y-52832000D01*
X196402700Y-103510000D02*
X197016991Y-103510000D01*
X197533440Y-96832440D02*
X196342000Y-95641000D01*
X195217489Y-104695211D02*
X196402700Y-103510000D01*
X123627325Y-76903520D02*
X115629198Y-76903520D01*
X146060000Y-50790000D02*
X146050000Y-50800000D01*
X134236847Y-52832000D02*
X131318000Y-55750849D01*
X111030823Y-81501895D02*
X111030823Y-82666415D01*
X97668000Y-84582000D02*
X96388000Y-83302000D01*
X111030823Y-82666415D02*
X109115238Y-84582000D01*
X109115238Y-84582000D02*
X97668000Y-84582000D01*
X195217489Y-119276489D02*
X195217489Y-104695211D01*
X146060000Y-44450000D02*
X146060000Y-50790000D01*
X196342000Y-120401000D02*
X195217489Y-119276489D01*
X131318000Y-55750849D02*
X131318000Y-69212845D01*
X131318000Y-69212845D02*
X123627325Y-76903520D01*
X115629198Y-76903520D02*
X111030823Y-81501895D01*
%TO.N,/CPU& Bank Address Latching/~{NMI}*%
X167132000Y-83058000D02*
X166624000Y-82550000D01*
X169055489Y-95654489D02*
X169055489Y-91839489D01*
X142240000Y-86106000D02*
X142240000Y-86614000D01*
X142240000Y-83312000D02*
X142240000Y-86106000D01*
X183129000Y-104526000D02*
X183134000Y-104521000D01*
X142240000Y-86106000D02*
X142240000Y-93345000D01*
X177927000Y-104526000D02*
X169055489Y-95654489D01*
X167132000Y-89916000D02*
X167132000Y-83058000D01*
X177927000Y-104526000D02*
X183129000Y-104526000D01*
X169055489Y-91839489D02*
X167132000Y-89916000D01*
%TO.N,/CPU& Bank Address Latching/A0*%
X79522080Y-115425074D02*
X81389154Y-113558000D01*
X69966960Y-123690113D02*
X72534927Y-126258080D01*
X69966960Y-108211888D02*
X69966960Y-123690113D01*
X220326511Y-80885511D02*
X221742000Y-82301000D01*
X83016733Y-102400400D02*
X79186649Y-106230480D01*
X138012681Y-102616000D02*
X135382000Y-102616000D01*
X72085407Y-106093440D02*
X69966960Y-108211888D01*
X221742000Y-70876000D02*
X220326511Y-72291489D01*
X141679263Y-98178380D02*
X141679263Y-98949418D01*
X141679263Y-98949418D02*
X138012681Y-102616000D01*
X196215000Y-66040000D02*
X220345000Y-66040000D01*
X220477000Y-96906000D02*
X220472000Y-96906000D01*
X221742000Y-95641000D02*
X220477000Y-96906000D01*
X188595000Y-72390000D02*
X189865000Y-72390000D01*
X81389154Y-113558000D02*
X89817500Y-113558000D01*
X220345000Y-66040000D02*
X221742000Y-67437000D01*
X79186649Y-106230480D02*
X76387632Y-106230480D01*
X79522080Y-124061072D02*
X79522080Y-115425074D01*
X189865000Y-72390000D02*
X196215000Y-66040000D01*
X135382000Y-102616000D02*
X134747000Y-103251000D01*
X221742000Y-82301000D02*
X221742000Y-95641000D01*
X187960000Y-71755000D02*
X188595000Y-72390000D01*
X221742000Y-67437000D02*
X221742000Y-70876000D01*
X134747000Y-103251000D02*
X134747000Y-104526000D01*
X220472000Y-96906000D02*
X220326511Y-97051489D01*
X76250592Y-106093440D02*
X72085407Y-106093440D01*
X103124000Y-104261986D02*
X102785516Y-104600470D01*
X101935623Y-104600470D02*
X99735553Y-102400400D01*
X77325073Y-126258080D02*
X79522080Y-124061072D01*
X220326511Y-72291489D02*
X220326511Y-80885511D01*
X76387632Y-106230480D02*
X76250592Y-106093440D01*
X220326511Y-118985511D02*
X221742000Y-120401000D01*
X72534927Y-126258080D02*
X77325073Y-126258080D01*
X99735553Y-102400400D02*
X83016733Y-102400400D01*
X187960000Y-68427500D02*
X187960000Y-71755000D01*
X220326511Y-97051489D02*
X220326511Y-118985511D01*
X102785516Y-104600470D02*
X101935623Y-104600470D01*
%TO.N,/CPU& Bank Address Latching/A1*%
X72271605Y-106542960D02*
X70416480Y-108398085D01*
X217937000Y-96906000D02*
X217932000Y-96906000D01*
X217932000Y-80080700D02*
X217932000Y-81035282D01*
X217932000Y-96906000D02*
X217932000Y-119131000D01*
X83202930Y-102849920D02*
X79372847Y-106680000D01*
X70416480Y-123503916D02*
X72721124Y-125808560D01*
X76064394Y-106542960D02*
X72271605Y-106542960D01*
X219202000Y-95641000D02*
X217937000Y-96906000D01*
X79372847Y-106680000D02*
X76201434Y-106680000D01*
X99549355Y-102849920D02*
X83202930Y-102849920D01*
X190051198Y-72839520D02*
X187325000Y-72839520D01*
X219202000Y-70876000D02*
X219202000Y-78810700D01*
X77138875Y-125808560D02*
X79072560Y-123874875D01*
X70416480Y-108398085D02*
X70416480Y-123503916D01*
X187325000Y-72839520D02*
X186690000Y-72204520D01*
X219202000Y-70876000D02*
X219202000Y-67437000D01*
X103886000Y-105049990D02*
X101749426Y-105049990D01*
X219202000Y-67437000D02*
X218254520Y-66489520D01*
X186690000Y-72204520D02*
X186690000Y-68427500D01*
X79072560Y-123874875D02*
X79072560Y-115238876D01*
X72721124Y-125808560D02*
X77138875Y-125808560D01*
X142644545Y-98619854D02*
X137287000Y-103977399D01*
X76201434Y-106680000D02*
X76064394Y-106542960D01*
X217932000Y-119131000D02*
X219202000Y-120401000D01*
X101749426Y-105049990D02*
X99549355Y-102849920D01*
X137287000Y-103977399D02*
X137287000Y-104526000D01*
X81253436Y-113058000D02*
X89817500Y-113058000D01*
X219202000Y-82305282D02*
X219202000Y-95641000D01*
X218254520Y-66489520D02*
X196401198Y-66489520D01*
X217932000Y-81035282D02*
X219202000Y-82305282D01*
X196401198Y-66489520D02*
X190051198Y-72839520D01*
X219202000Y-78810700D02*
X217932000Y-80080700D01*
X79072560Y-115238876D02*
X81253436Y-113058000D01*
%TO.N,/CPU& Bank Address Latching/A2*%
X215392000Y-96906000D02*
X215392000Y-119131000D01*
X216662000Y-95641000D02*
X215397000Y-96906000D01*
X139446000Y-104145000D02*
X139827000Y-104526000D01*
X72907322Y-125359040D02*
X70866000Y-123317718D01*
X70866000Y-108584283D02*
X72457803Y-106992480D01*
X142555752Y-99344365D02*
X139446000Y-102454117D01*
X79500565Y-107188000D02*
X83389127Y-103299440D01*
X89817500Y-112558000D02*
X81117718Y-112558000D01*
X196587396Y-66939040D02*
X215397040Y-66939040D01*
X76952677Y-125359040D02*
X72907322Y-125359040D01*
X83389127Y-103299440D02*
X99363158Y-103299440D01*
X81117718Y-112558000D02*
X78623040Y-115052678D01*
X143266216Y-99344365D02*
X142555752Y-99344365D01*
X139446000Y-102454117D02*
X139446000Y-104145000D01*
X76073717Y-107188000D02*
X79500565Y-107188000D01*
X185420000Y-72390000D02*
X186319040Y-73289040D01*
X99626480Y-103562763D02*
X101563228Y-105499510D01*
X190237396Y-73289040D02*
X196587396Y-66939040D01*
X216662000Y-70876000D02*
X216662000Y-78810700D01*
X216662000Y-82305282D02*
X216662000Y-95641000D01*
X75878197Y-106992480D02*
X76073717Y-107188000D01*
X185420000Y-68427500D02*
X185420000Y-72390000D01*
X72457803Y-106992480D02*
X75878197Y-106992480D01*
X215397000Y-96906000D02*
X215392000Y-96906000D01*
X99363158Y-103299440D02*
X99626480Y-103562763D01*
X101563228Y-105499510D02*
X103310906Y-105499510D01*
X143533161Y-99077420D02*
X143266216Y-99344365D01*
X104758479Y-105774501D02*
X104758490Y-105774490D01*
X216662000Y-68204000D02*
X216662000Y-70876000D01*
X215246511Y-80226189D02*
X215246511Y-80889793D01*
X103310906Y-105499510D02*
X103585897Y-105774501D01*
X215246511Y-80889793D02*
X216662000Y-82305282D01*
X78623040Y-115052678D02*
X78623040Y-123688677D01*
X186319040Y-73289040D02*
X190237396Y-73289040D01*
X103585897Y-105774501D02*
X104758479Y-105774501D01*
X215397040Y-66939040D02*
X216662000Y-68204000D01*
X216662000Y-78810700D02*
X215246511Y-80226189D01*
X70866000Y-123317718D02*
X70866000Y-108584283D01*
X78623040Y-123688677D02*
X76952677Y-125359040D01*
X215392000Y-119131000D02*
X216662000Y-120401000D01*
%TO.N,/CPU& Bank Address Latching/A3*%
X212852000Y-119131000D02*
X214122000Y-120401000D01*
X212706511Y-80226189D02*
X212706511Y-80884794D01*
X214122000Y-70876000D02*
X214122000Y-78810700D01*
X142768069Y-99801931D02*
X140462000Y-102108000D01*
X214122000Y-68072000D02*
X213438560Y-67388560D01*
X214122000Y-95641000D02*
X212857000Y-96906000D01*
X184150000Y-73025000D02*
X184150000Y-68427500D01*
X143833264Y-99801931D02*
X142768069Y-99801931D01*
X212857000Y-96906000D02*
X212852000Y-96906000D01*
X212706511Y-80884794D02*
X214122000Y-82300283D01*
X144257672Y-99077420D02*
X144257672Y-99377523D01*
X144563500Y-99077420D02*
X144257672Y-99077420D01*
X214122000Y-70876000D02*
X214122000Y-68072000D01*
X184863560Y-73738560D02*
X184150000Y-73025000D01*
X140462000Y-102621000D02*
X142367000Y-104526000D01*
X144257672Y-99377523D02*
X143833264Y-99801931D01*
X212852000Y-96906000D02*
X212852000Y-119131000D01*
X213438560Y-67388560D02*
X196773594Y-67388560D01*
X190423593Y-73738560D02*
X184863560Y-73738560D01*
X214122000Y-82300283D02*
X214122000Y-95641000D01*
X140462000Y-102108000D02*
X140462000Y-102621000D01*
X196773594Y-67388560D02*
X190423593Y-73738560D01*
X214122000Y-78810700D02*
X212706511Y-80226189D01*
%TO.N,/CPU& Bank Address Latching/A4*%
X211582000Y-70876000D02*
X211582000Y-78810700D01*
X210078080Y-67838080D02*
X211582000Y-69342000D01*
X210457489Y-79935211D02*
X210457489Y-80866789D01*
X211582000Y-81991300D02*
X211582000Y-95641000D01*
X182880000Y-73659282D02*
X183408798Y-74188080D01*
X211582000Y-69342000D02*
X211582000Y-70876000D01*
X210457489Y-80866789D02*
X211582000Y-81991300D01*
X211582000Y-78810700D02*
X210457489Y-79935211D01*
X210317000Y-96906000D02*
X210312000Y-96906000D01*
X210166511Y-97051489D02*
X210166511Y-118985511D01*
X211582000Y-95641000D02*
X210317000Y-96906000D01*
X196959792Y-67838080D02*
X210078080Y-67838080D01*
X182880000Y-68427500D02*
X182880000Y-73659282D01*
X190609791Y-74188080D02*
X196959792Y-67838080D01*
X210312000Y-96906000D02*
X210166511Y-97051489D01*
X183408798Y-74188080D02*
X190609791Y-74188080D01*
X210166511Y-118985511D02*
X211582000Y-120401000D01*
%TO.N,/CPU& Bank Address Latching/A5*%
X207772000Y-96906000D02*
X207772000Y-119131000D01*
X207626511Y-80889793D02*
X209042000Y-82305282D01*
X207777000Y-96906000D02*
X207772000Y-96906000D01*
X181610000Y-73660000D02*
X181610000Y-68427500D01*
X206453600Y-68287600D02*
X197145990Y-68287600D01*
X209042000Y-78810700D02*
X207626511Y-80226189D01*
X197145990Y-68287600D02*
X190795990Y-74637600D01*
X209042000Y-95641000D02*
X207777000Y-96906000D01*
X207772000Y-119131000D02*
X209042000Y-120401000D01*
X190795990Y-74637600D02*
X182587600Y-74637600D01*
X209042000Y-70876000D02*
X206453600Y-68287600D01*
X209042000Y-82305282D02*
X209042000Y-95641000D01*
X209042000Y-70876000D02*
X209042000Y-78810700D01*
X207626511Y-80226189D02*
X207626511Y-80889793D01*
X182587600Y-74637600D02*
X181610000Y-73660000D01*
%TO.N,/CPU& Bank Address Latching/A6*%
X206502000Y-119888000D02*
X206502000Y-120401000D01*
X181132838Y-75087120D02*
X190982188Y-75087120D01*
X206502000Y-95641000D02*
X205237000Y-96906000D01*
X206502000Y-70876000D02*
X205377489Y-72000511D01*
X180340000Y-68427500D02*
X180340000Y-74294282D01*
X191245510Y-74823797D02*
X197332188Y-68737120D01*
X190982188Y-75087120D02*
X191245510Y-74823797D01*
X204363120Y-68737120D02*
X206502000Y-70876000D01*
X205232000Y-118618000D02*
X206502000Y-119888000D01*
X205232000Y-96906000D02*
X205232000Y-118618000D01*
X205377489Y-80866789D02*
X206502000Y-81991300D01*
X197332188Y-68737120D02*
X204363120Y-68737120D01*
X205377489Y-72000511D02*
X205377489Y-80866789D01*
X206502000Y-81991300D02*
X206502000Y-95641000D01*
X205237000Y-96906000D02*
X205232000Y-96906000D01*
X180340000Y-74294282D02*
X181132838Y-75087120D01*
%TO.N,/CPU& Bank Address Latching/A7*%
X202837489Y-72000511D02*
X202837489Y-81176489D01*
X203962000Y-70876000D02*
X202837489Y-72000511D01*
X179070000Y-73660000D02*
X179070000Y-68427500D01*
X202692000Y-96906000D02*
X202692000Y-119131000D01*
X202837489Y-81176489D02*
X203962000Y-82301000D01*
X203962000Y-95641000D02*
X202697000Y-96906000D01*
X197490026Y-69215000D02*
X191168385Y-75536640D01*
X191168385Y-75536640D02*
X180946640Y-75536640D01*
X203962000Y-70876000D02*
X202301000Y-69215000D01*
X202301000Y-69215000D02*
X197490026Y-69215000D01*
X180946640Y-75536640D02*
X179070000Y-73660000D01*
X203962000Y-82301000D02*
X203962000Y-95641000D01*
X202697000Y-96906000D02*
X202692000Y-96906000D01*
X202692000Y-119131000D02*
X203962000Y-120401000D01*
%TO.N,/CPU& Bank Address Latching/A8*%
X202750480Y-127566480D02*
X201930000Y-126746000D01*
X207772000Y-95961300D02*
X207772000Y-81671000D01*
X197933802Y-58234520D02*
X192853802Y-53154520D01*
X207626511Y-124675353D02*
X204735384Y-127566480D01*
X206502000Y-118810700D02*
X207626511Y-119935211D01*
X206502000Y-55636000D02*
X203903480Y-58234520D01*
X207626511Y-119935211D02*
X207626511Y-124675353D01*
X169672000Y-81788000D02*
X169672000Y-92837000D01*
X192853802Y-53154520D02*
X183065480Y-53154520D01*
X181610000Y-54610000D02*
X181610000Y-57302500D01*
X183065480Y-53154520D02*
X181610000Y-54610000D01*
X206502000Y-105161000D02*
X206502000Y-118810700D01*
X207772000Y-81671000D02*
X206502000Y-80401000D01*
X206502000Y-105161000D02*
X206502000Y-97231300D01*
X204735384Y-127566480D02*
X202750480Y-127566480D01*
X169672000Y-92837000D02*
X170180000Y-93345000D01*
X206502000Y-97231300D02*
X207772000Y-95961300D01*
X203903480Y-58234520D02*
X197933802Y-58234520D01*
%TO.N,/CPU& Bank Address Latching/A9*%
X210312000Y-122625582D02*
X210312000Y-119766718D01*
X209042000Y-105161000D02*
X209042000Y-97231300D01*
X209042000Y-97231300D02*
X210166511Y-96106789D01*
X205993960Y-58684040D02*
X197747604Y-58684040D01*
X210166511Y-96106789D02*
X210166511Y-81525511D01*
X170396500Y-84129245D02*
X172720000Y-86452745D01*
X170396500Y-83467271D02*
X170396500Y-84129245D01*
X182880000Y-54610000D02*
X182880000Y-57302500D01*
X197747604Y-58684040D02*
X192667604Y-53604040D01*
X209042000Y-55636000D02*
X205993960Y-58684040D01*
X183885960Y-53604040D02*
X182880000Y-54610000D01*
X204921582Y-128016000D02*
X210312000Y-122625582D01*
X209042000Y-118496718D02*
X209042000Y-105161000D01*
X200660000Y-128016000D02*
X204921582Y-128016000D01*
X192667604Y-53604040D02*
X183885960Y-53604040D01*
X172720000Y-86452745D02*
X172720000Y-93345000D01*
X210312000Y-119766718D02*
X209042000Y-118496718D01*
X199390000Y-126746000D02*
X200660000Y-128016000D01*
X210166511Y-81525511D02*
X209042000Y-80401000D01*
%TO.N,/CPU& Bank Address Latching/A10*%
X205348960Y-128915040D02*
X197875323Y-128915040D01*
X217786511Y-96106789D02*
X216662000Y-97231300D01*
X216662000Y-118810700D02*
X217786511Y-119935211D01*
X214701300Y-123952000D02*
X210312000Y-123952000D01*
X216662000Y-54102000D02*
X216662000Y-55636000D01*
X187363400Y-54952600D02*
X192109010Y-54952600D01*
X175260000Y-87592500D02*
X175260000Y-93345000D01*
X212725000Y-53975000D02*
X213360000Y-53340000D01*
X197875323Y-128915040D02*
X196850000Y-127889717D01*
X216662000Y-80401000D02*
X217786511Y-81525511D01*
X173228000Y-85127500D02*
X173228000Y-85560500D01*
X216662000Y-105161000D02*
X216662000Y-118810700D01*
X217786511Y-81525511D02*
X217786511Y-96106789D01*
X192109010Y-54952600D02*
X198116410Y-60960000D01*
X217786511Y-120866789D02*
X214701300Y-123952000D01*
X196850000Y-127889717D02*
X196850000Y-126746000D01*
X213360000Y-53340000D02*
X215900000Y-53340000D01*
X173228000Y-85560500D02*
X175260000Y-87592500D01*
X212725000Y-57784282D02*
X212725000Y-53975000D01*
X186690000Y-55626000D02*
X187363400Y-54952600D01*
X210312000Y-123952000D02*
X205348960Y-128915040D01*
X198116410Y-60960000D02*
X209549282Y-60960000D01*
X215900000Y-53340000D02*
X216662000Y-54102000D01*
X217786511Y-119935211D02*
X217786511Y-120866789D01*
X186690000Y-56515000D02*
X186690000Y-55626000D01*
X209549282Y-60960000D02*
X212725000Y-57784282D01*
X216662000Y-97231300D02*
X216662000Y-105161000D01*
%TO.N,/CPU& Bank Address Latching/A11*%
X194310000Y-126746000D02*
X195950960Y-125105040D01*
X184150000Y-55245000D02*
X184150000Y-57302500D01*
X185341440Y-54053560D02*
X184150000Y-55245000D01*
X212706511Y-120866789D02*
X212706511Y-119621229D01*
X198117846Y-59690000D02*
X192481406Y-54053560D01*
X197368040Y-125105040D02*
X198024511Y-125761511D01*
X212706511Y-119621229D02*
X211582000Y-118496718D01*
X212852000Y-96270283D02*
X212852000Y-81666000D01*
X198823520Y-128465520D02*
X205107780Y-128465520D01*
X211582000Y-105161000D02*
X211582000Y-97540283D01*
X172212000Y-84036500D02*
X173161614Y-84036500D01*
X211582000Y-97540283D02*
X212852000Y-96270283D01*
X212847000Y-81666000D02*
X211582000Y-80401000D01*
X195950960Y-125105040D02*
X197368040Y-125105040D01*
X211582000Y-55636000D02*
X207528000Y-59690000D01*
X205107780Y-128465520D02*
X212706511Y-120866789D01*
X207528000Y-59690000D02*
X198117846Y-59690000D01*
X173161614Y-84036500D02*
X177800000Y-88674886D01*
X212852000Y-81666000D02*
X212847000Y-81666000D01*
X198024511Y-127666511D02*
X198823520Y-128465520D01*
X177800000Y-88674886D02*
X177800000Y-93345000D01*
X198024511Y-125761511D02*
X198024511Y-127666511D01*
X211582000Y-118496718D02*
X211582000Y-105161000D01*
X192481406Y-54053560D02*
X185341440Y-54053560D01*
%TO.N,/CPU& Bank Address Latching/A12*%
X201422000Y-120401000D02*
X200152000Y-119131000D01*
X200157000Y-96906000D02*
X201422000Y-95641000D01*
X178524500Y-81369500D02*
X175260000Y-78105000D01*
X191770000Y-126746000D02*
X191770000Y-126492000D01*
X180760444Y-75986160D02*
X173990000Y-69215716D01*
X191770000Y-126492000D02*
X194056000Y-124206000D01*
X200152000Y-119131000D02*
X200152000Y-96906000D01*
X201164436Y-120401000D02*
X201422000Y-120401000D01*
X191354582Y-75986160D02*
X180760444Y-75986160D01*
X201422000Y-70876000D02*
X200297489Y-69751489D01*
X201422000Y-70876000D02*
X200297489Y-72000511D01*
X194056000Y-124206000D02*
X197359436Y-124206000D01*
X200297489Y-69751489D02*
X197589255Y-69751489D01*
X200152000Y-96906000D02*
X200157000Y-96906000D01*
X200297489Y-72000511D02*
X200297489Y-81176489D01*
X197589255Y-69751489D02*
X191354582Y-75986160D01*
X174625000Y-66675000D02*
X177312500Y-66675000D01*
X173990000Y-67310000D02*
X174625000Y-66675000D01*
X197359436Y-124206000D02*
X201164436Y-120401000D01*
X200297489Y-81176489D02*
X201422000Y-82301000D01*
X201422000Y-82301000D02*
X201422000Y-95641000D01*
X178524500Y-89957060D02*
X178524500Y-81369500D01*
X173990000Y-69215716D02*
X173990000Y-67310000D01*
%TO.N,/CPU& Bank Address Latching/A13*%
X192024000Y-128270000D02*
X192944511Y-127349489D01*
X203962000Y-97231300D02*
X205232000Y-95961300D01*
X203962000Y-105161000D02*
X203962000Y-97231300D01*
X194368480Y-124655520D02*
X201297780Y-124655520D01*
X205232000Y-81671000D02*
X203962000Y-80401000D01*
X172720000Y-80772000D02*
X174752000Y-82804000D01*
X192944511Y-127349489D02*
X192944511Y-126079489D01*
X203962000Y-118587350D02*
X203962000Y-105161000D01*
X205232000Y-119857350D02*
X203962000Y-118587350D01*
X205232000Y-120721300D02*
X205232000Y-119857350D01*
X205232000Y-95961300D02*
X205232000Y-81671000D01*
X172720000Y-78105000D02*
X172720000Y-80772000D01*
X192944511Y-126079489D02*
X194368480Y-124655520D01*
X189230000Y-126746000D02*
X189230000Y-127508000D01*
X189230000Y-127508000D02*
X189992000Y-128270000D01*
X201297780Y-124655520D02*
X205232000Y-120721300D01*
X189992000Y-128270000D02*
X192024000Y-128270000D01*
%TO.N,/CPU& Bank Address Latching/A14*%
X189679521Y-123756480D02*
X197173238Y-123756480D01*
X168947489Y-89957049D02*
X168947500Y-89957060D01*
X198432480Y-103857520D02*
X197466511Y-104823489D01*
X198432480Y-96090520D02*
X198432480Y-103857520D01*
X186690000Y-126746000D02*
X189679521Y-123756480D01*
X197466511Y-104823489D02*
X197466511Y-118985511D01*
X198882000Y-95641000D02*
X198432480Y-96090520D01*
X197173238Y-123756480D02*
X198882000Y-122047718D01*
X168947489Y-79337511D02*
X168947489Y-89957049D01*
X198882000Y-122047718D02*
X198882000Y-120401000D01*
X170180000Y-78105000D02*
X168947489Y-79337511D01*
X197466511Y-118985511D02*
X198882000Y-120401000D01*
%TO.N,/CPU& Bank Address Latching/A15*%
X197982960Y-96600000D02*
X197982960Y-103520040D01*
X197982960Y-103520040D02*
X196342000Y-105161000D01*
X196342000Y-118810700D02*
X196342000Y-105161000D01*
X197612000Y-122682000D02*
X197612000Y-120080700D01*
X196987040Y-123306960D02*
X197612000Y-122682000D01*
X197466511Y-96083551D02*
X197982960Y-96600000D01*
X189493323Y-123306960D02*
X196987040Y-123306960D01*
X188340282Y-124460000D02*
X189493323Y-123306960D01*
X197466511Y-81525511D02*
X197466511Y-96083551D01*
X184150000Y-126746000D02*
X186436000Y-124460000D01*
X197612000Y-120080700D02*
X196342000Y-118810700D01*
X186436000Y-124460000D02*
X188340282Y-124460000D01*
X196342000Y-80401000D02*
X197466511Y-81525511D01*
%TO.N,/Memory/~{RAM0CS}*%
X130810000Y-60452000D02*
X130048000Y-61214000D01*
X220472000Y-71374000D02*
X220472000Y-68072000D01*
X131262755Y-51506755D02*
X130868480Y-51901030D01*
X98298000Y-72136000D02*
X99822000Y-72136000D01*
X130868480Y-51901030D02*
X130868480Y-58860906D01*
X101854000Y-74168000D02*
X102494000Y-74168000D01*
X130810000Y-58919386D02*
X130810000Y-60452000D01*
X130868480Y-58860906D02*
X130810000Y-58919386D01*
X99822000Y-72136000D02*
X101854000Y-74168000D01*
X219651520Y-79951480D02*
X219651520Y-72194480D01*
X102494000Y-74168000D02*
X104008000Y-75682000D01*
X219651520Y-72194480D02*
X220472000Y-71374000D01*
X219202000Y-80401000D02*
X219651520Y-79951480D01*
%TO.N,/Memory/~{RAM1CS}*%
X95885000Y-72136000D02*
X97155000Y-73406000D01*
X101468000Y-75052000D02*
X101468000Y-75682000D01*
X129794000Y-56896000D02*
X129794000Y-51562000D01*
X231902000Y-123952000D02*
X223702700Y-123952000D01*
X223702700Y-123952000D02*
X220472000Y-120721300D01*
X220472000Y-119984350D02*
X219202000Y-118714350D01*
X99822000Y-73406000D02*
X101468000Y-75052000D01*
X220472000Y-120721300D02*
X220472000Y-119984350D01*
X95758000Y-72136000D02*
X95885000Y-72136000D01*
X219202000Y-118714350D02*
X219202000Y-105161000D01*
X129794000Y-51562000D02*
X130556000Y-50800000D01*
X235208299Y-127258299D02*
X231902000Y-123952000D01*
X97155000Y-73406000D02*
X99822000Y-73406000D01*
%TO.N,/Memory/~{ROMCS}*%
X94742000Y-73660000D02*
X96266000Y-73660000D01*
X128778000Y-52234500D02*
X128778000Y-57912000D01*
X98552000Y-73914000D02*
X98928000Y-74290000D01*
X96520000Y-73914000D02*
X98552000Y-73914000D01*
X210878842Y-58605842D02*
X209218902Y-60265782D01*
X98928000Y-74290000D02*
X98928000Y-75682000D01*
X96266000Y-73660000D02*
X96520000Y-73914000D01*
X93218000Y-72136000D02*
X94742000Y-73660000D01*
X185420000Y-55372000D02*
X185420000Y-57302500D01*
X192295208Y-54503080D02*
X186288920Y-54503080D01*
X129069500Y-51943000D02*
X128778000Y-52234500D01*
X209218902Y-60265782D02*
X198057910Y-60265782D01*
X186288920Y-54503080D02*
X185420000Y-55372000D01*
X198057910Y-60265782D02*
X192295208Y-54503080D01*
X216418000Y-58420000D02*
X213995000Y-58420000D01*
X219202000Y-55636000D02*
X216418000Y-58420000D01*
X128778000Y-57912000D02*
X129540000Y-58674000D01*
%TO.N,/IO/~{IOCS}*%
X90678000Y-72644000D02*
X91440000Y-73406000D01*
X87122000Y-87507990D02*
X87122000Y-99060000D01*
X91440000Y-73406000D02*
X93345718Y-73406000D01*
X94107718Y-74168000D02*
X96012000Y-74168000D01*
X90282000Y-81788000D02*
X88541850Y-81788000D01*
X87441995Y-87187995D02*
X87122000Y-87507990D01*
X87441995Y-82887855D02*
X87441995Y-87187995D01*
X93345718Y-73406000D02*
X94107718Y-74168000D01*
X87122000Y-99060000D02*
X88392000Y-100330000D01*
X96012000Y-74168000D02*
X96388000Y-74544000D01*
X88541850Y-81788000D02*
X87441995Y-82887855D01*
X96388000Y-74544000D02*
X96388000Y-75682000D01*
X90678000Y-72136000D02*
X90678000Y-72644000D01*
X96388000Y-75682000D02*
X90282000Y-81788000D01*
%TO.N,/Memory/~{RD}*%
X215392000Y-95961300D02*
X215392000Y-81671000D01*
X214122000Y-57023000D02*
X214122000Y-55636000D01*
X187960000Y-55402120D02*
X191920156Y-55402120D01*
X209628560Y-61516440D02*
X214122000Y-57023000D01*
X198034476Y-61516440D02*
X209628560Y-61516440D01*
X191920156Y-55402120D02*
X198034476Y-61516440D01*
X187960000Y-57302500D02*
X187960000Y-55402120D01*
X214122000Y-105161000D02*
X214122000Y-97231300D01*
X215392000Y-81671000D02*
X214122000Y-80401000D01*
X214122000Y-97231300D02*
X215392000Y-95961300D01*
X93848000Y-74544000D02*
X93848000Y-75682000D01*
X93730000Y-110645500D02*
X93730000Y-107943966D01*
X88138000Y-72136000D02*
X89408000Y-73406000D01*
X91370762Y-73972480D02*
X93276480Y-73972480D01*
X93276480Y-73972480D02*
X93848000Y-74544000D01*
X90804282Y-73406000D02*
X91370762Y-73972480D01*
X93730000Y-107943966D02*
X92715017Y-106928983D01*
X89408000Y-73406000D02*
X90804282Y-73406000D01*
%TO.N,/Memory/~{WR}*%
X95730000Y-106456213D02*
X95730000Y-110645500D01*
X91184564Y-74422000D02*
X91186000Y-74422000D01*
X91308000Y-74544000D02*
X91308000Y-75682000D01*
X202692000Y-95961300D02*
X202692000Y-81671000D01*
X86868000Y-73406000D02*
X88772283Y-73406000D01*
X202692000Y-81671000D02*
X201422000Y-80401000D01*
X91186000Y-74422000D02*
X91308000Y-74544000D01*
X95954500Y-106231713D02*
X95730000Y-106456213D01*
X89221803Y-73855520D02*
X90618084Y-73855520D01*
X90618084Y-73855520D02*
X91184564Y-74422000D01*
X201422000Y-105161000D02*
X201422000Y-97231300D01*
X88772283Y-73406000D02*
X89221803Y-73855520D01*
X85598000Y-72136000D02*
X86868000Y-73406000D01*
X201422000Y-97231300D02*
X202692000Y-95961300D01*
%TO.N,/Memory/S1*%
X88768000Y-75682000D02*
X87643489Y-74557489D01*
X81963440Y-73073440D02*
X80772000Y-71882000D01*
X85739207Y-74557489D02*
X84255158Y-73073440D01*
X87643489Y-74557489D02*
X85739207Y-74557489D01*
X84255158Y-73073440D02*
X81963440Y-73073440D01*
%TO.N,/Memory/S2*%
X78232000Y-71882000D02*
X79872960Y-73522960D01*
X84068960Y-73522960D02*
X86228000Y-75682000D01*
X79872960Y-73522960D02*
X84068960Y-73522960D01*
%TO.N,/Memory/S3*%
X81978480Y-73972480D02*
X83688000Y-75682000D01*
X75692000Y-71882000D02*
X77782480Y-73972480D01*
X77782480Y-73972480D02*
X81978480Y-73972480D01*
%TO.N,/Memory/S4*%
X79888000Y-74422000D02*
X81148000Y-75682000D01*
X75692000Y-74422000D02*
X79888000Y-74422000D01*
X73152000Y-71882000D02*
X75692000Y-74422000D01*
%TO.N,/IO/~{IO2}*%
X98183022Y-106711386D02*
X98960801Y-106711386D01*
X101846630Y-108196630D02*
X102458880Y-108808880D01*
X101459389Y-112558000D02*
X98142500Y-112558000D01*
X97401706Y-105930070D02*
X98183022Y-106711386D01*
X102458880Y-108808880D02*
X102458880Y-110917812D01*
X100446045Y-108196630D02*
X101846630Y-108196630D01*
X98960801Y-106711386D02*
X100446045Y-108196630D01*
X102458880Y-110917812D02*
X101459389Y-111917304D01*
X85867000Y-92695000D02*
X85852000Y-92710000D01*
X101459389Y-111917304D02*
X101459389Y-112558000D01*
X97401706Y-105880500D02*
X97401706Y-105930070D01*
X85867000Y-89154000D02*
X85867000Y-92695000D01*
%TO.N,/IO/~{IO1}*%
X101908909Y-112973655D02*
X101824564Y-113058000D01*
X102908400Y-108275590D02*
X102908400Y-111104010D01*
X98483125Y-105986875D02*
X98872007Y-105986875D01*
X98872007Y-105986875D02*
X100632242Y-107747110D01*
X102908400Y-111104010D02*
X101908909Y-112103501D01*
X83327000Y-92695000D02*
X83312000Y-92710000D01*
X101908909Y-112103501D02*
X101908909Y-112973655D01*
X101824564Y-113058000D02*
X98142500Y-113058000D01*
X102379920Y-107747110D02*
X102908400Y-108275590D01*
X83327000Y-89154000D02*
X83327000Y-92695000D01*
X100632242Y-107747110D02*
X102379920Y-107747110D01*
%TO.N,/IO/~{IO0}*%
X80787000Y-89154000D02*
X80787000Y-92695000D01*
X79502000Y-93980000D02*
X80772000Y-92710000D01*
X121158000Y-103886000D02*
X104241600Y-103886000D01*
X79502000Y-101092000D02*
X79502000Y-93980000D01*
X80360880Y-101950880D02*
X79502000Y-101092000D01*
X125222000Y-107950000D02*
X121158000Y-103886000D01*
X168407000Y-108966000D02*
X164846000Y-108966000D01*
X164846000Y-108966000D02*
X131826000Y-108966000D01*
X102306480Y-101950880D02*
X80360880Y-101950880D01*
X80787000Y-92695000D02*
X80772000Y-92710000D01*
X104241600Y-103886000D02*
X102306480Y-101950880D01*
X172847000Y-104526000D02*
X168407000Y-108966000D01*
%TO.N,/IO/~{UART_DSRA}*%
X92230000Y-118970500D02*
X92230000Y-121382564D01*
X90873520Y-122739046D02*
X90873520Y-127450956D01*
X100663998Y-130634560D02*
X102377300Y-130634560D01*
X92230000Y-121382564D02*
X90873520Y-122739046D01*
X92746964Y-129324400D02*
X99353836Y-129324400D01*
X90873520Y-127450956D02*
X92746964Y-129324400D01*
X102377300Y-130634560D02*
X103807440Y-132064700D01*
X99353836Y-129324400D02*
X100663998Y-130634560D01*
X103807440Y-133682560D02*
X102108000Y-135382000D01*
X103807440Y-132064700D02*
X103807440Y-133682560D01*
X102108000Y-135382000D02*
X101600000Y-135382000D01*
%TO.N,/IO/~{UART_OPA}*%
X88019606Y-130439040D02*
X90941322Y-130439040D01*
X82054000Y-115558000D02*
X81320160Y-116291840D01*
X89817500Y-115558000D02*
X82054000Y-115558000D01*
X81320160Y-123739594D02*
X88019606Y-130439040D01*
X91624762Y-131122480D02*
X97340480Y-131122480D01*
X97340480Y-131122480D02*
X99060000Y-132842000D01*
X81320160Y-116291840D02*
X81320160Y-123739594D01*
X90941322Y-130439040D02*
X91624762Y-131122480D01*
%TO.N,/IO/~{UART_CTSA}*%
X103357920Y-133433102D02*
X102583533Y-134207489D01*
X90424001Y-127637154D02*
X92560767Y-129773920D01*
X103357920Y-132250898D02*
X103357920Y-133433102D01*
X91730000Y-121246847D02*
X90424000Y-122552849D01*
X102191102Y-131084080D02*
X103357920Y-132250898D01*
X102583533Y-134207489D02*
X100234511Y-134207489D01*
X91730000Y-118970500D02*
X91730000Y-121246847D01*
X100234511Y-134207489D02*
X99060000Y-135382000D01*
X99167638Y-129773920D02*
X100477798Y-131084080D01*
X100477798Y-131084080D02*
X102191102Y-131084080D01*
X92560767Y-129773920D02*
X99167638Y-129773920D01*
X90424000Y-122552849D02*
X90424001Y-127637154D01*
%TO.N,/IO/~{UART_RIA}*%
X104706480Y-135449802D02*
X102683802Y-137472480D01*
X95250000Y-135958505D02*
X95250000Y-134112000D01*
X96763975Y-137472480D02*
X95250000Y-135958505D01*
X93230000Y-121654000D02*
X91772560Y-123111440D01*
X93119360Y-128425360D02*
X99726232Y-128425360D01*
X93230000Y-118970500D02*
X93230000Y-121654000D01*
X99726232Y-128425360D02*
X101036392Y-129735520D01*
X101036392Y-129735520D02*
X102749694Y-129735520D01*
X95250000Y-134112000D02*
X96520000Y-132842000D01*
X102683802Y-137472480D02*
X96763975Y-137472480D01*
X91772560Y-127078560D02*
X93119360Y-128425360D01*
X102749694Y-129735520D02*
X104706480Y-131692306D01*
X104706480Y-131692306D02*
X104706480Y-135449802D01*
X91772560Y-123111440D02*
X91772560Y-127078560D01*
%TO.N,/IO/~{UART_CDA}*%
X91323040Y-127264758D02*
X92933163Y-128874880D01*
X92730000Y-118970500D02*
X92730000Y-121518282D01*
X99540034Y-128874880D02*
X100850195Y-130185040D01*
X102563497Y-130185040D02*
X104256960Y-131878503D01*
X91323040Y-122925243D02*
X91323040Y-127264758D01*
X104256960Y-131878503D02*
X104256960Y-135263604D01*
X100850195Y-130185040D02*
X102563497Y-130185040D01*
X92730000Y-121518282D02*
X91323040Y-122925243D01*
X92933163Y-128874880D02*
X99540034Y-128874880D01*
X98160960Y-137022960D02*
X96520000Y-135382000D01*
X102497604Y-137022960D02*
X98160960Y-137022960D01*
X104256960Y-135263604D02*
X102497604Y-137022960D01*
%TO.N,/IO/~{UART_RXRDYA}*%
X80870640Y-115983668D02*
X80870640Y-123925792D01*
X92710000Y-131572000D02*
X93980000Y-132842000D01*
X90755124Y-130888560D02*
X91438564Y-131572000D01*
X80870640Y-123925792D02*
X87833408Y-130888560D01*
X89817500Y-115058000D02*
X81796308Y-115058000D01*
X91438564Y-131572000D02*
X92710000Y-131572000D01*
X81796308Y-115058000D02*
X80870640Y-115983668D01*
X87833408Y-130888560D02*
X90755124Y-130888560D01*
%TO.N,/IO/UART_TXA*%
X103532460Y-113630360D02*
X102604820Y-114558000D01*
X102604820Y-114558000D02*
X98142500Y-114558000D01*
X103532460Y-112776000D02*
X103532460Y-113630360D01*
%TO.N,/IO/~{UART_TXRDYA}*%
X94230000Y-118970500D02*
X94230000Y-121789718D01*
X97244511Y-127300103D02*
X97920248Y-127975840D01*
X88646000Y-137922000D02*
X87122000Y-136398000D01*
X105156000Y-135636000D02*
X102870000Y-137922000D01*
X99912429Y-127975840D02*
X101222589Y-129286000D01*
X88117920Y-131338080D02*
X89936080Y-131338080D01*
X94230000Y-121789718D02*
X97244511Y-124804229D01*
X87122000Y-136398000D02*
X87122000Y-132334000D01*
X101222589Y-129286000D02*
X102935891Y-129286000D01*
X97920248Y-127975840D02*
X99912429Y-127975840D01*
X105156000Y-131506109D02*
X105156000Y-135636000D01*
X87122000Y-132334000D02*
X88117920Y-131338080D01*
X97244511Y-124804229D02*
X97244511Y-127300103D01*
X102935891Y-129286000D02*
X105156000Y-131506109D01*
X89936080Y-131338080D02*
X91440000Y-132842000D01*
X102870000Y-137922000D02*
X88646000Y-137922000D01*
%TO.N,/IO/~{UART_RTSA}*%
X81769680Y-116630064D02*
X82341744Y-116058000D01*
X90170000Y-134112000D02*
X94488000Y-134112000D01*
X95250000Y-132450990D02*
X96128990Y-131572000D01*
X91810960Y-130672960D02*
X91127520Y-129989520D01*
X95250000Y-133350000D02*
X95250000Y-132450990D01*
X82341744Y-116058000D02*
X89817500Y-116058000D01*
X96128990Y-131572000D02*
X96911010Y-131572000D01*
X99568000Y-134112000D02*
X100330000Y-133350000D01*
X100330000Y-133350000D02*
X100330000Y-132450990D01*
X98551970Y-130672960D02*
X91810960Y-130672960D01*
X94488000Y-134112000D02*
X95250000Y-133350000D01*
X96911010Y-131572000D02*
X97790000Y-132450990D01*
X91127520Y-129989520D02*
X88205802Y-129989520D01*
X97790000Y-132450990D02*
X97790000Y-133604000D01*
X97790000Y-133604000D02*
X98298000Y-134112000D01*
X88205802Y-129989520D02*
X81769680Y-123553398D01*
X98298000Y-134112000D02*
X99568000Y-134112000D01*
X81769680Y-123553398D02*
X81769680Y-116630064D01*
X100330000Y-132450990D02*
X98551970Y-130672960D01*
X88900000Y-132842000D02*
X90170000Y-134112000D01*
%TO.N,/IO/~{UART_DTRB}*%
X82668720Y-119498720D02*
X82668720Y-117229280D01*
X82943700Y-122936000D02*
X82943700Y-119773700D01*
X82943700Y-119773700D02*
X82668720Y-119498720D01*
X82668720Y-117229280D02*
X82840000Y-117058000D01*
X82840000Y-117058000D02*
X89817500Y-117058000D01*
%TO.N,/IO/~{UART_DSRB}*%
X77724000Y-123033511D02*
X76297511Y-124460000D01*
X73030000Y-122945292D02*
X73030000Y-121920000D01*
X80375474Y-110763116D02*
X80375473Y-111936069D01*
X93230000Y-110645500D02*
X93230000Y-108468564D01*
X80375473Y-111936069D02*
X77724000Y-114587542D01*
X76297511Y-124460000D02*
X74544708Y-124460000D01*
X84634030Y-106504560D02*
X80375474Y-110763116D01*
X77724000Y-114587542D02*
X77724000Y-123033511D01*
X93230000Y-108468564D02*
X91265996Y-106504560D01*
X91265996Y-106504560D02*
X84634030Y-106504560D01*
X74544708Y-124460000D02*
X73030000Y-122945292D01*
%TO.N,/IO/~{UART_OPB}*%
X102358429Y-113159853D02*
X101960282Y-113558000D01*
X102566118Y-107297590D02*
X103357920Y-108089392D01*
X102358429Y-112289699D02*
X102358429Y-113159853D01*
X78448500Y-110579500D02*
X78651936Y-110579500D01*
X103357920Y-111290208D02*
X102358429Y-112289699D01*
X78651936Y-110579500D02*
X84075436Y-105156000D01*
X103357920Y-108089392D02*
X103357920Y-111290208D01*
X84075436Y-105156000D02*
X98676848Y-105156000D01*
X100818440Y-107297590D02*
X102566118Y-107297590D01*
X101960282Y-113558000D02*
X98142500Y-113558000D01*
X98676848Y-105156000D02*
X100818440Y-107297590D01*
%TO.N,/IO/~{UART_CTSB}*%
X73093520Y-124909520D02*
X71374000Y-123190000D01*
X78173520Y-114866480D02*
X78173520Y-123502480D01*
X78173520Y-123502480D02*
X76766480Y-124909520D01*
X91730000Y-108875718D02*
X90707402Y-107853120D01*
X71374000Y-121412000D02*
X73030000Y-119756000D01*
X71374000Y-123190000D02*
X71374000Y-121412000D01*
X76766480Y-124909520D02*
X73093520Y-124909520D01*
X83820000Y-111125000D02*
X81915000Y-111125000D01*
X81915000Y-111125000D02*
X78173520Y-114866480D01*
X73030000Y-119756000D02*
X73030000Y-119380000D01*
X91730000Y-110645500D02*
X91730000Y-108875718D01*
X90707402Y-107853120D02*
X87091880Y-107853120D01*
X87091880Y-107853120D02*
X83820000Y-111125000D01*
%TO.N,/IO/~{UART_RIB}*%
X92730000Y-108604282D02*
X92730000Y-110645500D01*
X84820228Y-106954080D02*
X91079798Y-106954080D01*
X91079798Y-106954080D02*
X92730000Y-108604282D01*
X81794094Y-109980214D02*
X84820228Y-106954080D01*
X81794094Y-110369094D02*
X81794094Y-109980214D01*
%TO.N,/IO/~{UART_CDB}*%
X74395489Y-115474511D02*
X74395489Y-113564511D01*
X77565489Y-112934511D02*
X78511919Y-111988081D01*
X79052026Y-111988081D02*
X79476434Y-111563673D01*
X84261634Y-105605520D02*
X94937520Y-105605520D01*
X73030000Y-116840000D02*
X74395489Y-115474511D01*
X79476434Y-110390720D02*
X84261634Y-105605520D01*
X79476434Y-111563673D02*
X79476434Y-110390720D01*
X94937520Y-105605520D02*
X95230000Y-105898000D01*
X75025489Y-112934511D02*
X77565489Y-112934511D01*
X95230000Y-105898000D02*
X95230000Y-110645500D01*
X74395489Y-113564511D02*
X75025489Y-112934511D01*
X78511919Y-111988081D02*
X79052026Y-111988081D01*
%TO.N,/IO/~{UART_RXRDYB}*%
X94230000Y-110645500D02*
X94230000Y-107808248D01*
X94230000Y-107808248D02*
X93439528Y-107017776D01*
X84447832Y-106055040D02*
X79925954Y-110576918D01*
X93439528Y-107017776D02*
X93439528Y-106628880D01*
X79925954Y-110576918D02*
X79925954Y-111749871D01*
X76835718Y-114300000D02*
X75570000Y-114300000D01*
X79238223Y-112437601D02*
X78698117Y-112437601D01*
X92865688Y-106055040D02*
X84447832Y-106055040D01*
X78698117Y-112437601D02*
X76835718Y-114300000D01*
X93439528Y-106628880D02*
X92865688Y-106055040D01*
X79925954Y-111749871D02*
X79238223Y-112437601D01*
%TO.N,/IO/UART_RXB*%
X104706480Y-106747094D02*
X104706480Y-115759776D01*
X101377031Y-105949030D02*
X103124708Y-105949030D01*
X104706480Y-115759776D02*
X104425745Y-116040511D01*
X99176960Y-103748961D02*
X99440282Y-104012282D01*
X103124708Y-105949030D02*
X103399700Y-106224021D01*
X99440282Y-104012282D02*
X101377031Y-105949030D01*
X104425745Y-116040511D02*
X103310917Y-116040511D01*
X77954950Y-107935550D02*
X79388734Y-107935550D01*
X104183407Y-106224021D02*
X104706480Y-106747094D01*
X83575324Y-103748960D02*
X99176960Y-103748961D01*
X79388734Y-107935550D02*
X83575324Y-103748960D01*
X103399700Y-106224021D02*
X104183407Y-106224021D01*
X103293428Y-116058000D02*
X98142500Y-116058000D01*
X103310917Y-116040511D02*
X103293428Y-116058000D01*
%TO.N,/IO/~{UART_TXRDYB}*%
X71723489Y-113125489D02*
X74198793Y-113125489D01*
X104256960Y-106933292D02*
X103997209Y-106673541D01*
X98142500Y-115058000D02*
X102740538Y-115058000D01*
X102938511Y-106398550D02*
X101190834Y-106398550D01*
X76910061Y-108660061D02*
X75692000Y-107442000D01*
X71374000Y-108712000D02*
X71374000Y-112776000D01*
X75564282Y-111760000D02*
X75570000Y-111760000D01*
X74198793Y-113125489D02*
X75564282Y-111760000D01*
X98990762Y-104198480D02*
X83761521Y-104198480D01*
X102740538Y-115058000D02*
X104256960Y-113541578D01*
X103213503Y-106673541D02*
X102938511Y-106398550D01*
X101190834Y-106398550D02*
X98990762Y-104198480D01*
X79299940Y-108660061D02*
X76910061Y-108660061D01*
X72644000Y-107442000D02*
X71374000Y-108712000D01*
X71374000Y-112776000D02*
X71723489Y-113125489D01*
X75692000Y-107442000D02*
X72644000Y-107442000D01*
X104256960Y-113541578D02*
X104256960Y-106933292D01*
X83761521Y-104198480D02*
X79299940Y-108660061D01*
X103997209Y-106673541D02*
X103213503Y-106673541D01*
%TO.N,/IO/UART_TXB*%
X101004637Y-106848070D02*
X98804565Y-104648000D01*
X102807949Y-112475897D02*
X103807440Y-111476406D01*
X78740718Y-109855000D02*
X76596010Y-109855000D01*
X74834984Y-110394511D02*
X73469495Y-111760000D01*
X102752314Y-106848070D02*
X101004637Y-106848070D01*
X98804565Y-104648000D02*
X83947718Y-104648000D01*
X76596010Y-109855000D02*
X76056499Y-110394511D01*
X103807440Y-107903195D02*
X102752314Y-106848070D01*
X76056499Y-110394511D02*
X74834984Y-110394511D01*
X98142500Y-114058000D02*
X102096000Y-114058000D01*
X73469495Y-111760000D02*
X73030000Y-111760000D01*
X83947718Y-104648000D02*
X78740718Y-109855000D01*
X102096000Y-114058000D02*
X102807949Y-113346051D01*
X103807440Y-111476406D02*
X103807440Y-107903195D01*
X102807949Y-113346051D02*
X102807949Y-112475897D01*
%TO.N,/IO/~{UART_RTSB}*%
X83254953Y-109543953D02*
X83254953Y-109277048D01*
X92230000Y-108740000D02*
X92230000Y-110645500D01*
X83254953Y-109277048D02*
X85128401Y-107403600D01*
X85128401Y-107403600D02*
X90893600Y-107403600D01*
X90893600Y-107403600D02*
X92230000Y-108740000D01*
%TO.N,/IO/VIA_CA1*%
X137860648Y-122877520D02*
X143795098Y-128811970D01*
X129736238Y-122877520D02*
X137860648Y-122877520D01*
X128270000Y-105923000D02*
X128270000Y-121411282D01*
X143795098Y-128811970D02*
X143795098Y-133772098D01*
X129667000Y-104526000D02*
X128270000Y-105923000D01*
X128270000Y-121411282D02*
X129736238Y-122877520D01*
X143795098Y-133772098D02*
X144969609Y-134946609D01*
%TO.N,/IO/VIA_CA2*%
X130937000Y-105796000D02*
X130937000Y-107814386D01*
X130937000Y-108593614D02*
X130937000Y-120086300D01*
X131026511Y-107903897D02*
X131026511Y-108504103D01*
X138046846Y-122428000D02*
X144969609Y-129350763D01*
X144969609Y-129350763D02*
X144969609Y-132406609D01*
X131026511Y-108504103D02*
X130937000Y-108593614D01*
X133278700Y-122428000D02*
X138046846Y-122428000D01*
X130937000Y-120086300D02*
X133278700Y-122428000D01*
X132207000Y-104526000D02*
X130937000Y-105796000D01*
X130937000Y-107814386D02*
X131026511Y-107903897D01*
%TO.N,/IO/VIA_PA0*%
X146144120Y-129889556D02*
X146144120Y-133581120D01*
X132207000Y-120523000D02*
X133604000Y-121920000D01*
X133604000Y-121920000D02*
X138174564Y-121920000D01*
X138174564Y-121920000D02*
X146144120Y-129889556D01*
X146144120Y-133581120D02*
X147509609Y-134946609D01*
X132207000Y-119766000D02*
X132207000Y-120523000D01*
%TO.N,/IO/VIA_PA1*%
X134747000Y-119766000D02*
X134747000Y-120396000D01*
X147509609Y-130619327D02*
X147509609Y-132406609D01*
X134747000Y-120396000D02*
X135821480Y-121470480D01*
X138360762Y-121470480D02*
X147509609Y-130619327D01*
X135821480Y-121470480D02*
X138360762Y-121470480D01*
%TO.N,/IO/VIA_PA2*%
X138546960Y-121020960D02*
X148684120Y-131158120D01*
X148684120Y-133581120D02*
X150049609Y-134946609D01*
X148684120Y-131158120D02*
X148684120Y-133581120D01*
X137287000Y-119766000D02*
X137287000Y-120523000D01*
X137784960Y-121020960D02*
X138546960Y-121020960D01*
X137287000Y-120523000D02*
X137784960Y-121020960D01*
%TO.N,/IO/VIA_PA3*%
X139827000Y-121665282D02*
X139827000Y-119766000D01*
X150049609Y-131887891D02*
X139827000Y-121665282D01*
X150049609Y-132406609D02*
X150049609Y-131887891D01*
%TO.N,/IO/VIA_PA4*%
X151224120Y-133581120D02*
X151224120Y-131485860D01*
X150430609Y-130692349D02*
X149489785Y-130692349D01*
X151224120Y-131485860D02*
X150430609Y-130692349D01*
X149489785Y-130692349D02*
X142367000Y-123569564D01*
X142367000Y-123569564D02*
X142367000Y-119766000D01*
X152589609Y-134946609D02*
X151224120Y-133581120D01*
%TO.N,/IO/VIA_PA5*%
X151864618Y-131036618D02*
X151070829Y-130242829D01*
X149675983Y-130242829D02*
X144907000Y-125473846D01*
X152589609Y-132406609D02*
X151864618Y-131681618D01*
X151864618Y-131681618D02*
X151864618Y-131036618D01*
X151070829Y-130242829D02*
X149675983Y-130242829D01*
X144907000Y-125473846D02*
X144907000Y-119766000D01*
%TO.N,/IO/VIA_PA6*%
X147447000Y-127378128D02*
X149862181Y-129793309D01*
X153764120Y-133581120D02*
X155129609Y-134946609D01*
X151637319Y-129793309D02*
X153764120Y-131920110D01*
X149862181Y-129793309D02*
X151637319Y-129793309D01*
X147447000Y-119766000D02*
X147447000Y-127378128D01*
X153764120Y-131920110D02*
X153764120Y-133581120D01*
%TO.N,/IO/VIA_PA7*%
X150368000Y-129286000D02*
X149987000Y-128905000D01*
X155129609Y-132406609D02*
X152009000Y-129286000D01*
X152009000Y-129286000D02*
X150368000Y-129286000D01*
X149987000Y-128905000D02*
X149987000Y-119766000D01*
%TO.N,/IO/VIA_CB1*%
X172847000Y-127762718D02*
X176588480Y-131504198D01*
X164332807Y-137027089D02*
X163865640Y-136559922D01*
X172847000Y-119766000D02*
X172847000Y-127762718D01*
X163865640Y-136559922D02*
X163865640Y-135862578D01*
X176588480Y-135577520D02*
X175138911Y-137027089D01*
X175138911Y-137027089D02*
X164332807Y-137027089D01*
X163865640Y-135862578D02*
X164781609Y-134946609D01*
X176588480Y-131504198D02*
X176588480Y-135577520D01*
%TO.N,/IO/VIA_CB2*%
X177038000Y-135763718D02*
X175325109Y-137476609D01*
X163416120Y-133772098D02*
X164781609Y-132406609D01*
X175325109Y-137476609D02*
X164146609Y-137476609D01*
X164146609Y-137476609D02*
X163416120Y-136746119D01*
X175387000Y-129667000D02*
X177038000Y-131318000D01*
X177038000Y-131318000D02*
X177038000Y-135763718D01*
X175387000Y-119766000D02*
X175387000Y-129667000D01*
X163416120Y-136746119D02*
X163416120Y-133772098D01*
%TO.N,/IO/VIA_PB0*%
X154061040Y-122819040D02*
X161551886Y-122819040D01*
X152527000Y-119766000D02*
X152527000Y-121285000D01*
X152527000Y-121285000D02*
X154061040Y-122819040D01*
X165956120Y-127223274D02*
X165956120Y-133581120D01*
X165956120Y-133581120D02*
X167321609Y-134946609D01*
X161551886Y-122819040D02*
X165956120Y-127223274D01*
%TO.N,/IO/VIA_PB1*%
X155067000Y-121031000D02*
X155067000Y-119766000D01*
X167321609Y-132406609D02*
X167321609Y-127953045D01*
X156405520Y-122369520D02*
X155067000Y-121031000D01*
X167321609Y-127953045D02*
X161738084Y-122369520D01*
X161738084Y-122369520D02*
X156405520Y-122369520D01*
%TO.N,/IO/VIA_PB2*%
X168496120Y-128491838D02*
X168496120Y-133581120D01*
X161924282Y-121920000D02*
X168496120Y-128491838D01*
X157607000Y-119766000D02*
X157607000Y-121285000D01*
X157607000Y-121285000D02*
X158242000Y-121920000D01*
X158242000Y-121920000D02*
X161924282Y-121920000D01*
X168496120Y-133581120D02*
X169861609Y-134946609D01*
%TO.N,/IO/VIA_PB3*%
X160332480Y-121470480D02*
X162110480Y-121470480D01*
X160147000Y-119766000D02*
X160147000Y-121285000D01*
X162110480Y-121470480D02*
X169861609Y-129221609D01*
X160147000Y-121285000D02*
X160332480Y-121470480D01*
X169861609Y-129221609D02*
X169861609Y-132406609D01*
%TO.N,/IO/VIA_PB4*%
X171196000Y-129920282D02*
X171196000Y-133741000D01*
X162687000Y-119766000D02*
X162687000Y-121411282D01*
X171196000Y-133741000D02*
X172401609Y-134946609D01*
X162687000Y-121411282D02*
X171196000Y-129920282D01*
%TO.N,/IO/VIA_PB5*%
X165227000Y-119766000D02*
X165227000Y-123315564D01*
X172401609Y-130490173D02*
X172401609Y-132406609D01*
X165227000Y-123315564D02*
X172401609Y-130490173D01*
%TO.N,/IO/VIA_PB6*%
X167767000Y-125219846D02*
X173576120Y-131028966D01*
X173576120Y-133581120D02*
X174941609Y-134946609D01*
X167767000Y-119766000D02*
X167767000Y-125219846D01*
X173576120Y-131028966D02*
X173576120Y-133581120D01*
%TO.N,/IO/VIA_PB7*%
X163960412Y-137926129D02*
X175511307Y-137926129D01*
X175514000Y-118110000D02*
X171963000Y-118110000D01*
X162559283Y-136525000D02*
X163960412Y-137926129D01*
X137674450Y-123327040D02*
X140970000Y-126622590D01*
X177487520Y-135949916D02*
X177487520Y-131131802D01*
X174941609Y-131758737D02*
X174941609Y-132406609D01*
X170307000Y-127124128D02*
X174941609Y-131758737D01*
X141658978Y-136525000D02*
X162559283Y-136525000D01*
X175511307Y-137926129D02*
X177487520Y-135949916D01*
X177487520Y-131131802D02*
X176511511Y-130155793D01*
X140970000Y-126622590D02*
X140970000Y-135836022D01*
X129550040Y-123327040D02*
X137674450Y-123327040D01*
X170307000Y-119766000D02*
X170307000Y-127124128D01*
X171963000Y-118110000D02*
X170307000Y-119766000D01*
X176511511Y-130155793D02*
X176511511Y-119107511D01*
X140970000Y-135836022D02*
X141658978Y-136525000D01*
X176511511Y-119107511D02*
X175514000Y-118110000D01*
X125730000Y-119507000D02*
X129550040Y-123327040D01*
%TO.N,/IO/SPEAKER*%
X118237000Y-114554000D02*
X123190000Y-119507000D01*
X118237000Y-111887000D02*
X118237000Y-114554000D01*
%TO.N,/CPU& Bank Address Latching/RDY*%
X118491000Y-90805000D02*
X119761000Y-92075000D01*
X119761000Y-92075000D02*
X130810000Y-92075000D01*
X117221000Y-90805000D02*
X118491000Y-90805000D01*
X130810000Y-92075000D02*
X132080000Y-93345000D01*
X118491000Y-90805000D02*
X121134500Y-90805000D01*
%TO.N,/CPU& Bank Address Latching/~{RES_BTN}*%
X139065000Y-42672000D02*
X134903000Y-42672000D01*
X92710000Y-48260000D02*
X94770000Y-48260000D01*
X91948000Y-45212000D02*
X91948000Y-47498000D01*
X140081000Y-43688000D02*
X139065000Y-42672000D01*
X133223000Y-43307000D02*
X133096000Y-43307000D01*
X91948000Y-45212000D02*
X92710000Y-44450000D01*
X91948000Y-47498000D02*
X92710000Y-48260000D01*
X134903000Y-42672000D02*
X133223000Y-44352000D01*
X133223000Y-44352000D02*
X133223000Y-44577000D01*
X92710000Y-44450000D02*
X94483000Y-44450000D01*
X133096000Y-43307000D02*
X131567342Y-41778342D01*
X133223000Y-43307000D02*
X133223000Y-44577000D01*
%TO.N,/CPU& Bank Address Latching/BE*%
X128651000Y-80010000D02*
X137795000Y-80010000D01*
X137795000Y-80010000D02*
X139700000Y-78105000D01*
X118491000Y-80645000D02*
X121134500Y-80645000D01*
X127792120Y-79151120D02*
X128651000Y-80010000D01*
X117221000Y-80645000D02*
X118491000Y-80645000D01*
X127792120Y-79151120D02*
X119984880Y-79151120D01*
X119984880Y-79151120D02*
X118491000Y-80645000D01*
%TO.N,/CPU& Bank Address Latching/CLK_UART*%
X97028000Y-108966000D02*
X101346000Y-108966000D01*
X121920000Y-50546000D02*
X123698000Y-50546000D01*
D47*
X96012000Y-58792000D02*
X96012000Y-58293000D01*
D48*
X96730000Y-110645500D02*
X96730000Y-109264000D01*
X120015000Y-44450000D02*
X120015000Y-48641000D01*
X96730000Y-109264000D02*
X97028000Y-108966000D01*
D47*
X96012000Y-58293000D02*
X97282000Y-57023000D01*
D48*
X120015000Y-48641000D02*
X121920000Y-50546000D01*
%TO.N,Net-(JP2-Pad2)*%
X109220000Y-63368000D02*
X109220000Y-55753000D01*
X117475000Y-52959000D02*
X117475000Y-44450000D01*
X111125000Y-53848000D02*
X116586000Y-53848000D01*
X116586000Y-53848000D02*
X117475000Y-52959000D01*
X109220000Y-55753000D02*
X111125000Y-53848000D01*
X110485000Y-64633000D02*
X109220000Y-63368000D01*
D47*
%TO.N,Net-(JP2-Pad3)*%
X80137000Y-58420000D02*
X81407000Y-57150000D01*
D48*
X113919000Y-50546000D02*
X113919000Y-49657000D01*
X114935000Y-48641000D02*
X114935000Y-44450000D01*
X113919000Y-49657000D02*
X114935000Y-48641000D01*
D47*
X80137000Y-58860000D02*
X80137000Y-58420000D01*
D48*
%TO.N,/Memory/ROMSW1*%
X186944000Y-86373000D02*
X186690000Y-86627000D01*
X179070000Y-57302500D02*
X179070000Y-55245000D01*
X191540780Y-76435680D02*
X197100460Y-70876000D01*
X178435000Y-54610000D02*
X174625718Y-54610000D01*
X185890480Y-79285520D02*
X185890480Y-82766480D01*
X186690000Y-78486000D02*
X185890480Y-79285520D01*
X186690000Y-76835000D02*
X187089320Y-76435680D01*
X186690000Y-76835000D02*
X186690000Y-78486000D01*
X179070000Y-55245000D02*
X178435000Y-54610000D01*
X186290680Y-76435680D02*
X186690000Y-76835000D01*
X174625718Y-54610000D02*
X168910000Y-60325718D01*
X186944000Y-83820000D02*
X186944000Y-86373000D01*
X180574246Y-76435680D02*
X186290680Y-76435680D01*
X185890480Y-82766480D02*
X186944000Y-83820000D01*
X186690000Y-78486000D02*
X186690000Y-80367500D01*
X168910000Y-60325718D02*
X168910000Y-64771434D01*
X168910000Y-64771434D02*
X180574246Y-76435680D01*
X187089320Y-76435680D02*
X191540780Y-76435680D01*
X197100460Y-70876000D02*
X198882000Y-70876000D01*
%TO.N,/Memory/ROMSW0*%
X180388049Y-76885200D02*
X183057200Y-76885200D01*
X201813000Y-57785000D02*
X203962000Y-55636000D01*
X184912000Y-83820000D02*
X184150000Y-84582000D01*
X183057200Y-76885200D02*
X185597200Y-76885200D01*
X198120000Y-57785000D02*
X201813000Y-57785000D01*
X185597200Y-76885200D02*
X185597200Y-76935579D01*
X174439520Y-54160480D02*
X168460480Y-60139520D01*
X168460480Y-60139520D02*
X168460480Y-64957632D01*
X184912000Y-77724000D02*
X184912000Y-83820000D01*
X184150000Y-84582000D02*
X184150000Y-86627000D01*
X183057200Y-76885200D02*
X184073200Y-76885200D01*
X180340000Y-57302500D02*
X180340000Y-55879283D01*
X187452000Y-77216000D02*
X188595000Y-78359000D01*
X188595000Y-78359000D02*
X188595000Y-80367500D01*
X180340000Y-57302500D02*
X180340000Y-54610000D01*
X185597200Y-76935579D02*
X185821801Y-77160180D01*
X193040000Y-52705000D02*
X198120000Y-57785000D01*
X185597200Y-76885200D02*
X185928000Y-77216000D01*
X182245000Y-52705000D02*
X193040000Y-52705000D01*
X184073200Y-76885200D02*
X184912000Y-77724000D01*
X168460480Y-64957632D02*
X180388049Y-76885200D01*
X180340000Y-55879283D02*
X178621197Y-54160480D01*
X180340000Y-54610000D02*
X182245000Y-52705000D01*
X178621197Y-54160480D02*
X174439520Y-54160480D01*
%TO.N,/IO/UART_RXA*%
X103611020Y-115316000D02*
X103369020Y-115558000D01*
X103369020Y-115558000D02*
X98142500Y-115558000D01*
%TO.N,/IO/~{IO3}*%
X88407000Y-89154000D02*
X88407000Y-92695000D01*
X88407000Y-92695000D02*
X88392000Y-92710000D01*
%TO.N,/IO/~{IO4}*%
X90947000Y-92695000D02*
X90932000Y-92710000D01*
X90947000Y-89154000D02*
X90947000Y-92695000D01*
%TO.N,/IO/~{IO5}*%
X93487000Y-92695000D02*
X93472000Y-92710000D01*
X93487000Y-89154000D02*
X93487000Y-92695000D01*
%TO.N,/IO/~{IO6}*%
X96027000Y-89154000D02*
X96027000Y-92695000D01*
X96027000Y-92695000D02*
X96012000Y-92710000D01*
%TO.N,/IO/~{IO7}*%
X98567000Y-95235000D02*
X93472000Y-100330000D01*
X98567000Y-89154000D02*
X98567000Y-95235000D01*
%TO.N,/CPU& Bank Address Latching/VPA*%
X143433800Y-82990414D02*
X143433800Y-77647800D01*
X144780000Y-84336614D02*
X143433800Y-82990414D01*
X137414000Y-61468000D02*
X135128000Y-59182000D01*
X143433800Y-77647800D02*
X140716000Y-74930000D01*
X137414000Y-70612000D02*
X137414000Y-61468000D01*
X140716000Y-74930000D02*
X140716000Y-73914000D01*
X140716000Y-73914000D02*
X137414000Y-70612000D01*
X144780000Y-93345000D02*
X144780000Y-84336614D01*
%TO.N,/CPU& Bank Address Latching/VDA*%
X133116080Y-71988909D02*
X130937000Y-74167989D01*
X132080000Y-75310989D02*
X130937000Y-74167989D01*
X133116080Y-63733920D02*
X133116080Y-71988909D01*
X132080000Y-78105000D02*
X132080000Y-75310989D01*
X135128000Y-61722000D02*
X133116080Y-63733920D01*
%TO.N,/CPU& Bank Address Latching/MX*%
X135128000Y-72390000D02*
X135636000Y-72898000D01*
X135128000Y-69342000D02*
X135128000Y-72390000D01*
X135636000Y-72898000D02*
X135636000Y-77089000D01*
X135636000Y-77089000D02*
X134620000Y-78105000D01*
%TO.N,/CPU& Bank Address Latching/EMU*%
X134270511Y-60356511D02*
X133350000Y-59436000D01*
X136964480Y-71432480D02*
X138684000Y-73152000D01*
X136302511Y-60992229D02*
X135666793Y-60356511D01*
X155085489Y-48749511D02*
X160909000Y-42926000D01*
X135107920Y-54630080D02*
X151509409Y-54630080D01*
X151509409Y-54630080D02*
X155085489Y-51054000D01*
X133350000Y-59436000D02*
X133350000Y-56388000D01*
X136964480Y-66098480D02*
X136964480Y-71432480D01*
X135128000Y-64262000D02*
X136302511Y-63087489D01*
X138684000Y-73152000D02*
X138684000Y-74549000D01*
X133350000Y-56388000D02*
X135107920Y-54630080D01*
X136302511Y-63087489D02*
X136302511Y-60992229D01*
X135666793Y-60356511D02*
X134270511Y-60356511D01*
X160909000Y-42926000D02*
X162193000Y-42926000D01*
X135128000Y-64262000D02*
X136964480Y-66098480D01*
X155085489Y-51054000D02*
X155085489Y-48749511D01*
X138684000Y-74549000D02*
X142240000Y-78105000D01*
%TO.N,/CPU& Bank Address Latching/~{ML}*%
X140970000Y-78740000D02*
X140970000Y-77784700D01*
X136302511Y-67976511D02*
X135128000Y-66802000D01*
X139700000Y-93345000D02*
X139700000Y-80010000D01*
X140970000Y-77784700D02*
X138176000Y-74990700D01*
X138176000Y-74990700D02*
X138176000Y-73282486D01*
X136302511Y-71408997D02*
X136302511Y-67976511D01*
X139700000Y-80010000D02*
X140970000Y-78740000D01*
X138176000Y-73282486D02*
X136302511Y-71408997D01*
%TO.N,/CPU& Bank Address Latching/~{VP}*%
X129540000Y-93345000D02*
X117221000Y-93345000D01*
%TO.N,/CPU& Bank Address Latching/~{IRQ}*%
X106807000Y-92379000D02*
X106807000Y-97663000D01*
X133680969Y-91770969D02*
X135585969Y-91770969D01*
X114808000Y-85725000D02*
X115982511Y-84550489D01*
X115982511Y-84550489D02*
X126460489Y-84550489D01*
X135585969Y-91770969D02*
X137160000Y-93345000D01*
X113461000Y-85725000D02*
X114808000Y-85725000D01*
X106807000Y-97663000D02*
X108204000Y-99060000D01*
X106807000Y-92379000D02*
X113461000Y-85725000D01*
X126460489Y-84550489D02*
X133680969Y-91770969D01*
%TO.N,/IO/UART_INTA*%
X82015031Y-133762969D02*
X80391000Y-135387000D01*
X81660590Y-114558000D02*
X80421120Y-115797470D01*
X82015031Y-125705902D02*
X82015031Y-133762969D01*
X89817500Y-114558000D02*
X81660590Y-114558000D01*
X80421120Y-124111990D02*
X82015031Y-125705902D01*
X80421120Y-115797470D02*
X80421120Y-124111990D01*
%TO.N,/IO/UART_INTB*%
X81524872Y-114058000D02*
X79971600Y-115611273D01*
X81565511Y-131672489D02*
X80391000Y-132847000D01*
X79971600Y-124298188D02*
X81565511Y-125892099D01*
X79971600Y-115611273D02*
X79971600Y-124298188D01*
X89817500Y-114058000D02*
X81524872Y-114058000D01*
X81565511Y-125892099D02*
X81565511Y-131672489D01*
%TO.N,/Memory/S0*%
X106548000Y-72268000D02*
X106680000Y-72136000D01*
X106548000Y-75682000D02*
X106548000Y-72268000D01*
%TO.N,Net-(D3-Pad1)*%
X163943000Y-42926000D02*
X166854500Y-42926000D01*
%TD*%
M02*
